<?xml version="1.0" encoding="utf-8"?>
<!-- Generator: Adobe Illustrator 26.0.1, SVG Export Plug-In . SVG Version: 6.00 Build 0)  -->
<svg version="1.1" id="Слой_1" xmlns="http://www.w3.org/2000/svg" xmlns:xlink="http://www.w3.org/1999/xlink" x="0px" y="0px"
	 viewBox="0 0 500 500" style="enable-background:new 0 0 500 500;" xml:space="preserve">
<style type="text/css">
	.st0{fill:none;}
	.st1{fill:#F3DFD8;stroke:#61271C;stroke-linecap:round;stroke-linejoin:round;stroke-miterlimit:10;}
	.st2{fill:#61271C;stroke:#61271C;stroke-linecap:round;stroke-linejoin:round;stroke-miterlimit:10;}
	.st3{fill:none;stroke:#61271C;stroke-linecap:round;stroke-linejoin:round;stroke-miterlimit:10;}
	.st4{fill:url(#SVGID_1_);}
</style>
<pattern  x="919.2" y="536.8" width="280" height="195" patternUnits="userSpaceOnUse" id="New_Pattern_8" viewBox="34.8 -250.2 280 195" style="overflow:visible;">
	<g>
		<rect x="34.8" y="-250.2" class="st0" width="280" height="195"/>
		<g>
			<g>
				<path class="st1" d="M96.4-63.5c-11.7,3.1-16.8,13.7-10.3,24.7c4,6.8,17.5,18.3,26.6,21.8c12.1,4.7,20.4-1.6,22.2-11.1
					C138.1-44.4,118.7-69.4,96.4-63.5z"/>
				<path class="st2" d="M103.9-38.6c15.3,4.1-0.6,15.8,22.9,17.3c-6.2-4.2-7-13.4-12.8-18.1c-5.6-4.7-14.8-4-19-10.3
					c-0.8-1.2-2.3-8.3-3.8-8.2c-3.1,0.2,0.2,11.7,1.1,13C95-40.6,99.4-39.8,103.9-38.6z"/>
				<path class="st3" d="M98-59.7c6.7-1.2,13.8,0.2,19.5,4"/>
				<path class="st3" d="M102.4-48.1c-0.2-2.4,0.4-4.9,1.6-7"/>
			</g>
			<g>
				<path class="st1" d="M142.5-28.2c-4.8,17,7.3,30.6,24.6,27.1c22.1-4.5,57.3-47.5,24.9-58.7C170.6-67.2,148.1-48.1,142.5-28.2z"
					/>
				<path class="st3" d="M166-52.2c4.5-4.5,11.2-6.7,17.5-5.6"/>
				<path class="st3" d="M188.1-57.6c1.3,0,2.5,0.4,3.5,1.2"/>
			</g>
			<path class="st3" d="M135.4-57.6c2.8,2.4,4.8,5.7,5.6,9.3"/>
			<path class="st3" d="M142.9-55.3c1.6,1.5,2.7,3.5,3.2,5.6"/>
			<path class="st3" d="M219.4-47.7c-0.9-3-0.2-6.5,1.8-8.9"/>
		</g>
		<g>
			<g>
				<path class="st1" d="M357.4-69.2c4.3,14.9-6.1,28.2-22.4,24.5c-20.2-4.7-56.6-46.4-29.7-55.8C324.9-107.4,352.1-87.4,357.4-69.2
					z"/>
				<path class="st2" d="M337.2-67.3c-6.6-1-7.8-0.7-10.7-9.9c-2.9-9.3-8.1-6.4-10-6.8c-5.1-0.9-1.9-8.7-17.4-8.2
					c5.8,2.1,4.5,7,8,9.4c3.7,2.4,9.3,0,12.6,2.8c3,2.5,2.2,7.5,4.3,10.8c4,6.1,15.2,2.9,19.3,8.9c2,3,1.5,8.4,5.4,10
					C355.3-47.5,349.2-65.5,337.2-67.3z"/>
				<path class="st3" d="M323.6-95.6c-3.8-1.4-7.8-1.9-11.8-1.6"/>
				<path class="st3" d="M313-65.3c-1.6-1.4-2.9-3.2-3.8-5.1"/>
				<path class="st3" d="M314.5-93.9c0,0.7-0.2,1.4-0.6,2.1"/>
				<path class="st3" d="M311.9-77.5c0.5,0.9,0.6,2.1,0.2,3"/>
				<path class="st3" d="M308.4-78.4c0.4,1,0.5,2.2,0.3,3.2"/>
			</g>
			<path class="st3" d="M311.9-113.4c6.7-1.5,14.1,1.1,18.4,6.5"/>
		</g>
		<g>
			<g>
				<path class="st1" d="M46.3-209.6c-17.4,21-10.8,51.7,6.9,54.9c12.6,2.2,27.8-11.1,35.1-21.6C113.2-211.9,80.4-250.8,46.3-209.6z
					"/>
				<path class="st2" d="M51.8-176.6c2.1-1.6,5-1.8,6.8-3.6c4.4-4.3,0-13.6,5.2-16.8c1.6-1,3.8-1,5.2-2.4c2-1.9,1.2-5.2,1.4-8
					c0.7-9.9,12.3-11,14.9-14c0.3,6.8-2.9,6.4-4.1,9.3c-1.7,4.1,1.1,9.3-1.3,13c-2.6,4.2-10,3.7-12,8.3c-1.3,3.1,0.8,6.9-0.3,10.1
					c-1.1,3.1-4.7,4.5-7.4,6.3c-2.1,1.4-9.7,8.3-8.4,14.6C47.4-164.5,47.1-173.1,51.8-176.6z"/>
				<path class="st3" d="M42.9-169.3c-5.3-6.8-3.6-16-2-23.9"/>
				<path class="st3" d="M42.7-197.5c0.7-1.6,1.6-3.1,2.6-4.5"/>
				<path class="st3" d="M59.8-217.5c4.2-3.8,9.7-6.2,15.4-6.6"/>
				<path class="st3" d="M78.5-223.7c1.3-0.3,2.7-0.3,4,0.1"/>
				<path class="st3" d="M61.2-159.7c7.9-2.6,15-7.7,20-14.3"/>
				<path class="st3" d="M85.1-178.1c1-1.7,1.9-3.5,2.7-5.3"/>
				<path class="st3" d="M91.8-210.4c1.7,4.6,2.2,9.5,1.6,14.3"/>
				<path class="st3" d="M44.2-187.9c1.4,3.5,4.3,6.3,7.8,7.5"/>
				<path class="st3" d="M47.1-189.8c1.2,2.4,3.1,4.4,5.4,5.8"/>
				<path class="st3" d="M49.8-191.1c0.9,1.2,2.1,2.2,3.5,2.8"/>
				<path class="st3" d="M53.6-208.6c1.2,3.9,4.4,7,8.3,8.1"/>
				<path class="st3" d="M57.3-208.4c1.2,1.7,3.1,3,5.2,3.4"/>
				<path class="st3" d="M60.3-211c0.8,1.2,2.2,2.1,3.7,2.3"/>
				<path class="st3" d="M77.1-191.5c2.7,0.6,4.9,2.9,5.5,5.5"/>
				<path class="st3" d="M80.4-193.9c1.9,0.7,3.4,2.3,3.9,4.2"/>
				<path class="st3" d="M82.9-196.2c1.5,0.1,2.8,1.5,2.8,3"/>
				<path class="st3" d="M59.1-168.2c1.8-0.1,3.6,0.8,4.7,2.2"/>
				<path class="st3" d="M63.1-171.9c1.7,0.4,3.2,1.7,3.8,3.4"/>
				<path class="st3" d="M66.6-174.3c1.4,0.5,2.4,1.8,2.6,3.2"/>
			</g>
			<g>
				<path class="st1" d="M96.4-258.5c-11.7,3.1-16.8,13.7-10.3,24.7c4,6.8,17.5,18.3,26.6,21.8c12.1,4.7,20.4-1.6,22.2-11.1
					C138.1-239.4,118.7-264.4,96.4-258.5z"/>
				<path class="st2" d="M103.9-233.6c15.3,4.1-0.6,15.8,22.9,17.3c-6.2-4.2-7-13.4-12.8-18.1c-5.6-4.7-14.8-4-19-10.3
					c-0.8-1.2-2.3-8.3-3.8-8.2c-3.1,0.2,0.2,11.7,1.1,13C95-235.6,99.4-234.8,103.9-233.6z"/>
				<path class="st3" d="M86.2-244.7c-1.1,5.7,3,10.6,6.5,14.6"/>
				<path class="st3" d="M97.2-226c0.9,1.3,1.9,2.5,3.2,3.5"/>
				<path class="st3" d="M109.7-216.9c2.8,2.4,6.8,3.5,10.5,2.8"/>
				<path class="st3" d="M103.5-221.7c1.2-0.3,2.2-4.8,2.5-6.1"/>
				<path class="st3" d="M106.3-220.9c1-1.6,1.6-3.4,1.8-5.2"/>
				<path class="st3" d="M108.7-220.6c0.5-0.6,0.8-1.3,0.9-2.1"/>
				<path class="st3" d="M98-254.7c6.7-1.2,13.8,0.2,19.5,4"/>
				<path class="st3" d="M121.7-247.3c1.2,0.6,2.1,1.6,2.6,2.8"/>
				<path class="st3" d="M128.8-235.9c3.5,4.5,4.2,10.9,1.9,16"/>
				<path class="st3" d="M102.4-243.1c-0.2-2.4,0.4-4.9,1.6-7"/>
				<path class="st3" d="M105.5-242.2c-0.3-1.6,0.1-3.4,1.1-4.7"/>
				<path class="st3" d="M108.7-241.7c-0.2-1.5,0.2-3.1,1.1-4.4"/>
				<path class="st3" d="M122.1-229.8c0.8-2.1,1.9-4.2,3.2-6"/>
				<path class="st3" d="M124.1-226.2c0.5-1.7,1.2-3.3,2.2-4.9"/>
				<path class="st3" d="M125.9-223.4c0.5-1.3,1.1-2.6,1.9-3.7"/>
			</g>
			<g>
				<path class="st1" d="M142.5-223.2c-4.8,17,7.3,30.6,24.6,27.1c22.1-4.5,57.3-47.5,24.9-58.7
					C170.6-262.2,148.1-243.1,142.5-223.2z"/>
				<path class="st2" d="M169.7-219.1c5.7-4.9,4.5-17.9,11.5-19.8c2.6-0.7,4.1,0.6,8-3.8c1.2-1.4,2.5-2.9,4.1-3.8
					c1.7-0.9,4-0.8,5.2,0.6c-15,7.4-8.1,8.6-12.3,13.5c-1.7,2-4.7,2.2-6.8,3.8c-3.8,3-2.7,9.3-5.8,13c-4.2,5.1-18.4,3.2-17.7,13.6
					c-3.5-4.3-2-9.5,2.4-12.1C161.8-216.2,166.5-216.4,169.7-219.1z"/>
				<path class="st3" d="M147.8-207c-3.2-4.1-4.4-10.8-1-18.8"/>
				<path class="st3" d="M148.6-229.5c0.8-2,2-3.9,3.3-5.6"/>
				<path class="st3" d="M166-247.2c4.5-4.5,11.2-6.7,17.5-5.6"/>
				<path class="st3" d="M188.1-252.6c1.3,0,2.5,0.4,3.5,1.2"/>
				<path class="st3" d="M166.9-200.3c5.9-0.2,14.1-7.3,18.1-11.7"/>
				<path class="st3" d="M188.8-214.8c1-1,1.8-2,2.6-3.2"/>
				<path class="st3" d="M201.6-241.4c0.8,5-0.2,10.3-2.9,14.7"/>
				<path class="st3" d="M151.5-225.1c1.4,3.3,3,6.9,6.5,8.3"/>
				<path class="st3" d="M154.2-226c0.9,2.4,2.7,4.4,5.1,5.4"/>
				<path class="st3" d="M157.3-229.3c0.9,1.9,2.3,3.4,4.1,4.5"/>
				<path class="st3" d="M166.3-241.5c1.2,2.2,3.3,3.9,5.7,4.7"/>
				<path class="st3" d="M170.4-243.1c0.8,1.4,2.2,2.5,3.8,3"/>
				<path class="st3" d="M174.8-245.6c0.8,1.2,2.1,2,3.5,2.3"/>
				<path class="st3" d="M188.8-229.7c1.9,0.8,2.1,3.2,2.1,5.1"/>
				<path class="st3" d="M191.1-231.9c0.3-0.6,2,1.4,2,3.8"/>
				<path class="st3" d="M193.7-235.9c1.1,0.6,1.8,1.8,1.8,3.1"/>
				<path class="st3" d="M165.9-208.2c1.4,1.6,3.6,2.5,5.7,2.5"/>
				<path class="st3" d="M171-210.3c0.7,1,1.9,1.6,3.1,1.8"/>
				<path class="st3" d="M175-213.3c1.1,1,2.5,1.5,4,1.4"/>
			</g>
			<g>
				<path class="st1" d="M105-184c2.7-15.3,18-22.6,30.9-12c16,13.1,30.3,66.6,2,63.2C117.3-135.3,101.7-165.3,105-184z"/>
				<path class="st2" d="M124-176.8c5.5,3.8,6.7,4.1,5.2,13.6c-1.5,9.7,4.4,9.3,6,10.5c4.2,3.1-2.2,8.7,12,15.1
					c-4.3-4.4-0.9-8.3-3.1-12c-2.2-3.8-8.3-4.1-10.1-8.1c-1.6-3.6,1.4-7.7,0.9-11.6c-0.9-7.2-12.3-9.3-13.3-16.5
					c-0.5-3.6,2.3-8.2-0.5-11.3C116.5-202.5,114-183.7,124-176.8z"/>
				<path class="st3" d="M113.8-192.2c-7,5.5-5.4,15.3-3.8,23.2"/>
				<path class="st3" d="M112.6-162.7c0.5,1.8,1.1,3.6,1.8,5.4"/>
				<path class="st3" d="M123.6-145.3c2.8,2.9,6.2,5.2,9.9,6.6"/>
				<path class="st3" d="M133.3-191.8c5.7,5,9.6,11.9,11.1,19.4"/>
				<path class="st3" d="M146.6-167.8c0.8,2,1.2,4.1,1.2,6.3"/>
				<path class="st3" d="M115.4-170.6c0.3-2.4,2.1-4.6,4.4-5.3"/>
				<path class="st3" d="M117.5-167.3c0.6-2.1,2.1-3.9,3.9-5"/>
				<path class="st3" d="M120-164.3c0.4-1.1,1.2-2.1,2.1-2.8"/>
				<path class="st3" d="M127.2-148c0.1-1.1,0.9-2,1.9-2.3"/>
				<path class="st3" d="M129.8-145c0.2-1.1,0.8-2.1,1.6-2.8"/>
				<path class="st3" d="M132.6-142.9c0.3-0.6,0.8-1.2,1.5-1.6"/>
				<path class="st3" d="M128.8-183.4c0.4-1.9,1.7-3.5,3.3-4.4"/>
				<path class="st3" d="M131.2-181.6c0.2-0.8,0.6-1.5,1.2-2.1"/>
				<path class="st3" d="M134-178.8c0.3-0.7,0.8-1.4,1.4-1.9"/>
				<path class="st3" d="M139.2-158.2c-0.2-2.1,0.8-4.2,2.5-5.4"/>
				<path class="st3" d="M142.2-156.4c-0.1-1,0.4-2.1,1.2-2.8"/>
				<path class="st3" d="M144.9-154.1c0.1-1.1,0.5-2.2,1.2-3"/>
			</g>
			<g>
				<path class="st1" d="M77.4-69.2C81.7-54.3,71.3-41,55-44.7c-20.2-4.7-56.6-46.4-29.7-55.8C44.9-107.4,72.1-87.4,77.4-69.2z"/>
				<path class="st2" d="M57.2-67.3c-6.6-1-7.8-0.7-10.7-9.9c-2.9-9.3-8.1-6.4-10-6.8c-5.1-0.9-1.9-8.7-17.4-8.2
					c5.8,2.1,4.5,7,8,9.4c3.7,2.4,9.3,0,12.6,2.8c3,2.5,2.2,7.5,4.3,10.8c4,6.1,15.2,2.9,19.3,8.9c2,3,1.5,8.4,5.4,10
					C75.3-47.5,69.2-65.5,57.2-67.3z"/>
				<path class="st3" d="M73.1-58c3.8-8-1.9-16.1-6.9-22.5"/>
				<path class="st3" d="M61.2-85c-1.2-1.4-2.6-2.8-4-4"/>
				<path class="st3" d="M43.6-95.6c-3.8-1.4-7.8-1.9-11.8-1.6"/>
				<path class="st3" d="M55.5-49.6c-7.3-2-13.9-6.4-18.6-12.5"/>
				<path class="st3" d="M33-65.3c-1.6-1.4-2.9-3.2-3.8-5.1"/>
				<path class="st3" d="M62.2-76.6c0.8,2.3,0.1,5-1.6,6.8"/>
				<path class="st3" d="M58.9-78.6c0.3,2.1-0.1,4.4-1.3,6.2"/>
				<path class="st3" d="M55.3-80.2c0.1,1.2-0.1,2.4-0.6,3.4"/>
				<path class="st3" d="M41.6-91.7c0.4,1,0.1,2.2-0.7,2.9"/>
				<path class="st3" d="M37.9-93.2c0.3,1.1,0.2,2.2-0.2,3.2"/>
				<path class="st3" d="M34.5-93.9c0,0.7-0.2,1.4-0.6,2.1"/>
				<path class="st3" d="M55.9-59.2c0.5,1.9,0.1,3.9-1,5.5"/>
				<path class="st3" d="M52.9-59.8c0.2,0.8,0.1,1.6-0.1,2.4"/>
				<path class="st3" d="M49.1-61.1c0.1,0.8-0.1,1.6-0.4,2.3"/>
				<path class="st3" d="M35.4-77.2c1.1,1.8,1.1,4.1,0.2,5.9"/>
				<path class="st3" d="M31.9-77.5c0.5,0.9,0.6,2.1,0.2,3"/>
				<path class="st3" d="M28.4-78.4c0.4,1,0.5,2.2,0.3,3.2"/>
			</g>
			<g>
				<path class="st1" d="M185.2-193.6c18.8-15.5,34.3-3.7,31.1,12.9c-2.6,13.6-22.4,38.7-38.6,30.8
					C159.1-159,174.6-184.9,185.2-193.6z"/>
				<path class="st2" d="M180.4-163.8c2.5-7,5.8-5,8.8-7c5.3-3.4,0.7-14.6,7.4-16.4c2.7-0.7,4.3,0.6,5.3-3.2
					c1.5-5.7,5.9-5.8,7.3-3.7c-4.5-0.1-3.5,7.2-5.7,9.7c-3.6,4-7.5-0.2-8.1,10.3c-0.7,11.9-9.2,7.3-11.8,11.6
					c-1.5,2.6,0.2,7.3,0.2,10.3C180-155,178.9-159.5,180.4-163.8z"/>
				<path class="st3" d="M174.2-158.7c-1.7-4.7-1.3-10.1,1.1-14.4"/>
				<path class="st3" d="M177.1-177.4c0.4-1.3,0.9-2.6,1.6-3.7"/>
				<path class="st3" d="M186.8-189.5c2.3-3.2,5.6-5.6,9.4-6.7"/>
				<path class="st3" d="M201.8-197.9c0.5,0,0.9,0,1.4,0"/>
				<path class="st3" d="M193.9-155.6c5.8-3.7,10.4-9,13.2-15.3"/>
				<path class="st3" d="M210-174.6c0.7-1.6,1.3-3.2,1.6-4.9"/>
				<path class="st3" d="M182.3-181.1c0.2,2.3,1.5,4.5,3.5,5.9"/>
				<path class="st3" d="M184.8-182.7c0.6,1.3,1.5,2.5,2.6,3.5"/>
				<path class="st3" d="M187.1-185.5c0.3,1,0.8,2,1.4,2.8"/>
				<path class="st3" d="M208.3-187.6c1.1,1.3,1.7,3,1.7,4.6"/>
				<path class="st3" d="M210.2-189.5c0.9,0.8,1.5,2,1.6,3.3"/>
				<path class="st3" d="M211.9-191.8c0.9,0.6,1.5,1.7,1.4,2.8"/>
				<path class="st3" d="M190.2-161.3c1.3,0.1,2.4,1,3,2.1"/>
				<path class="st3" d="M193.2-164.2c1.1,0.2,2,1.1,2.1,2.2"/>
				<path class="st3" d="M195.3-166.7c0.8,0.3,1.5,0.9,1.8,1.7"/>
				<path class="st3" d="M175.5-167.1c-0.1,1.1,0.4,2.2,1.3,2.8"/>
				<path class="st3" d="M177.6-169.7c-0.1,1,0.5,2,1.4,2.3"/>
			</g>
			<g>
				<path class="st1" d="M289.1-233.5c14.1-19.8,32.1-12.5,33.4,4.4c1,13.8-11.6,43.2-29.3,39.7
					C272.9-193.3,281.2-222.4,289.1-233.5z"/>
				<path class="st2" d="M292.2-203.5c0.6-7.4,4.3-6.3,6.7-9c4.3-4.7-3.1-14.3,2.9-17.8c2.5-1.4,4.3-0.6,4.3-4.4
					c0-5.9,4.2-7.2,6.1-5.5c-4.4,1.1-1.5,7.8-3,10.9c-2.4,4.8-7.3,1.7-5.2,12.1c2.4,11.6-7,9.4-8.3,14.3c-0.8,2.9,2.1,7,2.8,9.9
					C294.1-194.8,291.8-199,292.2-203.5z"/>
				<path class="st3" d="M287.6-196.9c-2.8-4.1-3.8-9.4-2.7-14.2"/>
				<path class="st3" d="M285.5-215.7c0-1.4,0.2-2.7,0.6-4"/>
				<path class="st3" d="M291.8-230c1.4-3.7,4-6.9,7.3-8.9"/>
				<path class="st3" d="M304.1-241.9c0.5-0.1,0.9-0.2,1.4-0.4"/>
				<path class="st3" d="M307.4-199.1c4.6-5,7.7-11.4,8.8-18.1"/>
				<path class="st3" d="M318-221.5c0.3-1.7,0.4-3.4,0.3-5.2"/>
				<path class="st3" d="M289.5-220.7c0.8,2.2,2.7,4,4.9,4.8"/>
				<path class="st3" d="M291.6-222.9c1,1.1,2.1,2,3.4,2.7"/>
				<path class="st3" d="M293.1-226.2c0.5,0.9,1.3,1.7,2.1,2.3"/>
				<path class="st3" d="M313-233.7c1.4,0.9,2.4,2.4,2.8,4"/>
				<path class="st3" d="M314.4-236c1.1,0.6,2,1.6,2.4,2.8"/>
				<path class="st3" d="M315.3-238.7c1.1,0.3,1.9,1.3,2,2.4"/>
				<path class="st3" d="M302.3-203.6c1.3-0.2,2.6,0.3,3.5,1.3"/>
				<path class="st3" d="M304.5-207.1c1.1-0.1,2.2,0.6,2.6,1.6"/>
				<path class="st3" d="M305.9-210.1c0.9,0,1.7,0.5,2.2,1.2"/>
				<path class="st3" d="M286.7-205.4c0.2,1.1,1,2,2,2.4"/>
				<path class="st3" d="M288-208.4c0.2,1,1,1.8,2,1.9"/>
			</g>
			<g>
				<path class="st1" d="M215.8-209.6c-14.2-28.7,31.4-44,56.9-3.7c8,12.6,6.6,41.9-15,38.2C245.6-177.1,220.9-199.1,215.8-209.6z"
					/>
				<path class="st2" d="M235-220.7c12,1.9,5.4,8.6,9.5,13.2c3,3.3,10.8,1.2,11.7,6.2c0.5,2.5-2.8,6.3,5,12.4
					c2.8,2.2,6.1,4.3,7.4,7.6c2.9-6.5-7.4-10.4-8.9-16.1c-0.7-2.6,0.1-5.5-1.2-7.9c-2.2-4-8.8-3.4-11.1-7.3
					c-1.5-2.5-0.6-6.1-2.2-8.6c-3.1-4.8-11-1.2-17.4-9.2c-1.2-1.5-1.9-4.6-3.2-2.2c-0.9,1.7,0,5.4,0.9,7
					C227.5-222.4,231.6-221.3,235-220.7z"/>
				<path class="st3" d="M217.9-225c-1.4,9.2,3.8,17.5,10.4,23.9"/>
				<path class="st3" d="M233.2-196.7c0.7,1.2,1.7,2.3,2.8,3"/>
				<path class="st3" d="M248.9-184.3c3.1,4.1,8.5,6.3,13.5,5.5"/>
				<path class="st3" d="M240.3-232.6c9.3,2.2,17.9,7.1,24.4,14"/>
				<path class="st3" d="M267.3-214.2c1.3,1.3,2.2,2.9,2.8,4.7"/>
				<path class="st3" d="M272.6-199.5c0.6,1.6,0.9,3.4,0.9,5.1"/>
				<path class="st3" d="M228.9-210.5c1.1-2.3,2.9-4.2,5.1-5.5"/>
				<path class="st3" d="M232.1-209.1c0.5-1.9,1.8-3.5,3.5-4.4"/>
				<path class="st3" d="M234.6-207.4c0.5-1.6,1.8-3,3.3-3.7"/>
				<path class="st3" d="M244-191.6c-0.7-3.4,0.3-7.1,2.8-9.6"/>
				<path class="st3" d="M247.7-190.6c-0.2-1.7,0.1-3.5,0.7-5.1"/>
				<path class="st3" d="M250.7-189.9c0.2-1.3,0.6-2.6,1.2-3.7"/>
				<path class="st3" d="M250.9-214.9c0.7-2.4,2.8-4.2,5.2-4.6"/>
				<path class="st3" d="M254.9-213c0.5-1.6,1.7-3,3.3-3.7"/>
				<path class="st3" d="M258.2-211.4c0.6-1.3,1.7-2.3,3-2.8"/>
				<path class="st3" d="M263.5-199.3c0.1-1.4,0.9-2.7,2.1-3.5"/>
				<path class="st3" d="M265.6-196c0.3-1.3,0.8-2.6,1.4-3.7"/>
				<path class="st3" d="M268.2-194.4c0.3-0.6,0.6-1.2,0.9-1.9"/>
			</g>
			<g>
				<path class="st1" d="M54.4-130.2c-0.6,18.4,15.1,42.9,35.5,47.3c14.6,3.2,35.8-5.4,32.6-29.4c-3-22-26.7-40.9-38.1-43.8
					C68.1-160.2,54.8-145.4,54.4-130.2z"/>
				<path class="st2" d="M70.2-139.4c2.2,2.7,11.1,4.6,13.5,11.9c1.2,3.5,0.5,7.7,2.9,10.5c2.1,2.4,5.8,2.7,8.2,4.8
					c3.1,2.7,3.3,7.4,5.1,11.1c2.5,5.3,8.6,8.6,14.4,7.7c-8.8-0.7-7.9-14.1-12.8-19.4c-3.5-3.8-9.5-4.6-12.6-8.7
					c-5.4-7.2,1-14.8-12.8-18.4c-6.9-1.8-3.3-6.1-4.6-8.3c-0.6-1.1-4-1.4-4.1-1.8C68.6-146.6,67.8-142.4,70.2-139.4z"/>
				<path class="st3" d="M63.3-113.3c-3.5-6.6-5.1-14.1-4.5-21.5"/>
				<path class="st3" d="M60.4-140.5c0.1-1.6,0.8-3.2,1.8-4.5"/>
				<path class="st3" d="M78.8-93.3c5.2,3.1,11,6.4,17.2,5.2"/>
				<path class="st3" d="M102.8-88.8c1.3,0,2.7-0.4,3.9-0.9"/>
				<path class="st3" d="M86.4-148.5c9.4,3.6,17.5,10.4,22.6,19"/>
				<path class="st3" d="M111.5-125.1c1.7,1.8,2.7,4.2,2.8,6.7"/>
				<path class="st3" d="M66.4-122.8c0-3.6,2-7.1,4.9-9.1"/>
				<path class="st3" d="M69.6-121.4c0.8-2.8,2.4-5.4,4.4-7.5"/>
				<path class="st3" d="M73.2-119.8c0.4-2.2,1.5-4.2,3.2-5.6"/>
				<path class="st3" d="M82.2-100c-0.6-3.7,1-7.8,4.1-10"/>
				<path class="st3" d="M86.6-99.6c-0.2-2.7,0.7-5.4,2.6-7.4"/>
				<path class="st3" d="M90.9-98.8c0-1.5,0.5-3.1,1.4-4.3"/>
				<path class="st3" d="M91-127.4c1.2-2.7,3.3-4.9,6-6.2"/>
				<path class="st3" d="M95.3-123.8c0.9-2,2.3-3.8,4.1-5.1"/>
				<path class="st3" d="M99.1-122c0.7-1.2,1.6-2.3,2.6-3.3"/>
				<path class="st3" d="M76.6-147.3c0.9-0.7,1.9-1.1,3-1.4"/>
				<path class="st3" d="M75.5-151c1.1-0.7,2.3-1,3.6-1.1"/>
				<path class="st3" d="M112-104c1.8-0.9,3.1-2.9,3-5"/>
				<path class="st3" d="M116.1-101.3c1.3-1.1,2.1-2.8,2.2-4.5"/>
				<path class="st3" d="M71.7-100.3c-1-1.1-1.9-2.3-2.6-3.6"/>
			</g>
			<g>
				<path class="st1" d="M137.7-101.2c-4,14.8-1.2,30.4,16.5,34c36.2,7.3,52.2-49,38-65.4C184.1-142,147.7-138.2,137.7-101.2z"/>
				<path class="st2" d="M165.5-85.6c6.1-5.8-0.3-18.2,6.8-23.2c1.4-1,3.1-1.4,4.3-2.5c5.6-4.6-0.5-17.1,12.8-21.2
					c-6.1,6-1.4,17.9-7.5,23.8c-2.4,2.3-6.1,3.2-8.2,5.8c-2.7,3.4-1.6,8.3-2.4,12.6c-1.8,9.9-10.3,10.3-11.9,12.7
					c-0.4,0.7-1.6,1.7-2.7,6.8C150.1-79.4,160.8-81.2,165.5-85.6z"/>
				<path class="st3" d="M144-77.9c-3.3-5.2-4.2-11.8-2.5-17.8"/>
				<path class="st3" d="M142.5-100c0.5-1.9,1-3.8,1.7-5.6"/>
				<path class="st3" d="M154.8-121.2c3.8-5.5,9.5-9.6,15.9-11.3"/>
				<path class="st3" d="M175.8-133.4c1.2-0.1,2.3-0.2,3.5-0.3"/>
				<path class="st3" d="M169.8-73c4.9-2.4,8.9-6.3,11.5-11.1"/>
				<path class="st3" d="M185.5-89c0.6-1.2,1.1-2.5,1.5-3.9"/>
				<path class="st3" d="M193.2-121c1,3.2,1.1,6.6,0.2,9.8"/>
				<path class="st3" d="M147.7-96c2,3.9,5.5,6.9,9.6,8.4"/>
				<path class="st3" d="M151-98.3c1.7,2.8,4.4,5,7.5,6"/>
				<path class="st3" d="M154-101.8c1.3,2.2,3.4,3.9,5.9,4.6"/>
				<path class="st3" d="M158.8-117.5c2,3.3,5.5,5.6,9.3,6.3"/>
				<path class="st3" d="M163-119.2c1.5,1.9,3.6,3.3,6,4"/>
				<path class="st3" d="M166.6-122.9c0.7,1.4,2.1,2.4,3.6,2.8"/>
				<path class="st3" d="M177.6-99.1c2.3,0.6,4.5,2,6.1,3.8"/>
				<path class="st3" d="M181.4-102.7c2.2,0.7,4,2.3,4.9,4.4"/>
				<path class="st3" d="M184.8-106.2c1.7,0.5,3.1,1.8,3.8,3.4"/>
				<path class="st3" d="M161.9-74.7c1.1,0.6,2.1,1.7,2.5,2.9"/>
				<path class="st3" d="M164-76.1c1.1,0.3,2,1.1,2.4,2.1"/>
				<path class="st3" d="M167.3-78.4c0.7,0.3,1.3,0.9,1.6,1.6"/>
			</g>
			<g>
				<path class="st1" d="M222.7-128.5c8.3-2.4,22.6-7.3,28.6-13.6c10.7-11.1,7.3-25.5-8.1-25.9C206.2-169,186.2-118,222.7-128.5z"/>
				<path class="st2" d="M218.2-140.8c6.5-1,6.5,0.7,11.5-7.1c4.5-7,8-3.4,10.3-3.4c3.9,0,4.6-5.3,7.1-7.5c1.9-1.6,4.9-1.8,6.9-0.3
					c-5.3-0.1-5.5,7.8-9.3,10.3c-3.4,2.2-8.3,0.3-11.6,2.6c-3,2.1-4.8,10.8-14,9.8c-0.8-0.1-1.6-0.3-2.5-0.1
					c-1.8,0.3-7.1,7.1-7.4,3.1C209-137.2,215.4-140.4,218.2-140.8z"/>
				<path class="st3" d="M206.8-139.2c1.4-5,4.2-9.5,8.1-13"/>
				<path class="st3" d="M218.6-155.5c1.4-1.4,3.1-2.5,4.9-3.2"/>
				<path class="st3" d="M237.2-163.5c3.4-1,7.1-1.1,10.5-0.3"/>
				<path class="st3" d="M227.5-133.4c6.3-0.8,11.8-4.6,17-8.4"/>
				<path class="st3" d="M249.1-145.9c1.3-1.1,2.5-2.4,3.3-4"/>
				<path class="st3" d="M218.3-151c-0.5,2-0.1,4.3,1,6.1"/>
				<path class="st3" d="M221.1-151.3c0.3,1.1,0.6,2.2,1,3.2"/>
				<path class="st3" d="M223.5-152.7c0.1,0.9,0.5,1.8,1,2.6"/>
				<path class="st3" d="M232.4-158.7c1.1,1,1.7,2.5,1.8,4"/>
				<path class="st3" d="M235.9-159.2c1.1,0.6,1.9,1.8,1.9,3.1"/>
				<path class="st3" d="M239.6-159.6c0.6,0.4,1,1,1.2,1.6"/>
				<path class="st3" d="M215.1-131.7c0.5,1,1.4,1.8,2.5,2.1"/>
				<path class="st3" d="M218.1-132.6c0.8,0.8,1.9,1.3,3,1.4"/>
				<path class="st3" d="M221.2-134c0.3,0.4,0.9,0.7,1.4,0.7"/>
				<path class="st3" d="M232.8-142.6c0.6,0.9,1.2,1.7,1.9,2.6"/>
				<path class="st3" d="M236.5-144.3c0.2,0.7,0.6,1.4,1.2,1.9"/>
				<path class="st3" d="M239.1-145.2c0.3,0.4,0.6,0.8,0.9,1.2"/>
			</g>
			<g>
				<path class="st1" d="M213.7-75.1c-23.2-37.6,29.5-72.3,60.7-13.3C291.8-55.6,248.6-18.8,213.7-75.1z"/>
				<path class="st2" d="M226-107.9c-0.6,11.8,8.4,9.4,12,12.1c4.8,3.7,1.5,11.7,5.2,16.2c2.2,2.7,6.4,3.3,8.3,6.3
					c1.4,2.2,1,5.1,1.3,7.7c0.8,6.2,6.8,11.4,13.1,11.3c-13-10.1-1.5-17.2-13-24.9c-5.6-3.8-6.9-2.5-8.2-12.2
					c-1.9-14.2-11.7-3.3-15.5-15.2c-0.3-1-0.5-5.6-1.1-5.9C226.1-113.6,226-108.7,226-107.9z"/>
				<path class="st3" d="M216.3-107.2c-4.9,6.5-3.8,15-1.3,22.8"/>
				<path class="st3" d="M217.4-78.7c0.9,1.5,1.7,2.9,2.6,4.4"/>
				<path class="st3" d="M233.7-60.5c6,5.8,8,6.9,16.3,9.4"/>
				<path class="st3" d="M255.9-50.4c0.9,0.1,1.8,0,2.6-0.3"/>
				<path class="st3" d="M240-114.5c8.2,1.9,14.9,7.4,21.3,13"/>
				<path class="st3" d="M264.3-97.6c0.8,0.9,1.5,1.9,2.3,2.8"/>
				<path class="st3" d="M272.7-83.3c2.5,5.8,2.9,12.5,1.2,18.5"/>
				<path class="st3" d="M222.9-82c0.4-3.7,2.4-7.2,5.4-9.4"/>
				<path class="st3" d="M226-80.4c0.3-3.1,1.9-6.1,4.4-8.1"/>
				<path class="st3" d="M228.4-80.4c0.6-2,1.7-3.8,3.2-5.2"/>
				<path class="st3" d="M238.5-64c-0.6-3.7,1.2-7.6,4.4-9.6"/>
				<path class="st3" d="M242.4-61.9c-0.2-2.5,0.7-5,2.3-6.8"/>
				<path class="st3" d="M245.6-60.5c0.2-1.4,0.8-2.6,1.7-3.7"/>
				<path class="st3" d="M237.5-105.1c1.9-1.9,4.4-3.1,7-3.5"/>
				<path class="st3" d="M240.8-103.6c1.2-0.9,2.6-1.6,4.1-2"/>
				<path class="st3" d="M243.8-101.4c0.7-0.5,1.4-0.9,2.3-1.1"/>
				<path class="st3" d="M254.4-84.4c2.5-3.1,6.6-5,10.6-4.8"/>
				<path class="st3" d="M258-81.5c1.6-1.3,3.4-2.3,5.4-3"/>
				<path class="st3" d="M261.5-79.2c0.7-0.9,1.7-1.6,2.8-2.1"/>
				<path class="st3" d="M270.8-57.5c0.7-0.9,1.4-1.9,2.1-2.8"/>
				<path class="st3" d="M226.8-65.9c0.5,0.7,1.2,1.3,1.9,1.7"/>
			</g>
			<g>
				<path class="st1" d="M279.5-168.1c-33.1,26.2-9.2,67,12.9,58c11.2-4.6,24.9-27.4,20.1-52.7C309.2-179.9,292.6-178.4,279.5-168.1
					z"/>
				<path class="st2" d="M298.1-154.5c-1.1-6.6,6.9-11.4,3.3-16.2c-0.6-0.8-0.8,0.9-0.8,1.1c-1.8,5.2-7.4,5.8-7.5,11.5
					c-0.1,3.4,2.3,6.5,1.8,9.9c-1,6.3-11.8,8.7-10.3,15.5c1.8,8.2-9.1,6.3,0.3,19.8c-3.2-7.7,4.8-13.5,5-19c0-1.2-0.3-2.4-0.1-3.6
					c0.5-4.8,7.2-6.6,8.9-11.1C299.4-149.1,298.6-151.9,298.1-154.5z"/>
				<path class="st3" d="M272.8-120.7c-3.8-4.7-5.7-10.8-5.5-16.8"/>
				<path class="st3" d="M267.6-141.5c0.2-2.2,0.7-4.4,1.6-6.4"/>
				<path class="st3" d="M275.7-158.9c2.5-4.4,6.2-8.1,10.7-10.4"/>
				<path class="st3" d="M291.8-172.2c0.8-0.3,1.7-0.6,2.6-0.8"/>
				<path class="st3" d="M308.3-157.4c0.9,4.6,1,9.3,0.3,13.9"/>
				<path class="st3" d="M307.9-138.4c-0.4,2.4-1.1,4.8-2.2,7"/>
				<path class="st3" d="M290.5-112.2c1.5-0.8,2.8-1.8,3.9-3.1"/>
				<path class="st3" d="M296.4-117c0.7-0.5,1.2-1.1,1.6-1.9"/>
				<path class="st3" d="M277.7-153.4c2.3-2.6,5.6-4.1,9.1-4.3"/>
				<path class="st3" d="M280.3-151.5c1.5-1.3,3.3-2.3,5.2-2.8"/>
				<path class="st3" d="M282.7-150.1c1.4-1,3-1.8,4.7-2.2"/>
				<path class="st3" d="M273.6-132.9c1.2-1.9,3.3-3.2,5.5-3.4"/>
				<path class="st3" d="M275.7-130.3c0.9-1.2,2.3-2,3.7-2.3"/>
				<path class="st3" d="M276.3-126.8c1-1.1,2.3-2,3.7-2.5"/>
				<path class="st3" d="M292.7-128c1.6,0.6,3,1.4,4.3,2.5"/>
				<path class="st3" d="M294.1-131.6c1.5,0.4,2.9,1.4,3.8,2.7"/>
				<path class="st3" d="M296.5-133.7c0.2-0.6,1.9,1.1,2.4,2.3"/>
				<path class="st3" d="M301.5-151.9c0.9,0.2,1.7,0.5,2.4,1.1"/>
				<path class="st3" d="M301.9-154.7c1.1,0.1,2.1,0.6,2.9,1.3"/>
				<path class="st3" d="M301.9-158c1.1-0.1,2.2,0.4,2.9,1.3"/>
			</g>
			<path class="st3" d="M94.3-162.6c-2-3-2.5-6.9-1.3-10.3"/>
			<path class="st3" d="M99.2-164.6c-1.4-2.8-1.8-6.2-1.1-9.3"/>
			<path class="st3" d="M153.3-189.4c4.3,4.4,6.5,10.8,5.8,16.9"/>
			<path class="st3" d="M161.8-187.1c1.4,2.1,2.2,4.6,2.4,7.2"/>
			<path class="st3" d="M242.5-126.9c3.5-1.4,11.2,4.2,14.1,6.6"/>
			<path class="st3" d="M249.1-132c2.4,0.2,4.8,1.2,6.5,2.9"/>
			<path class="st3" d="M225.8-184.6c2.5,3.3,5.9,5.9,9.8,7.4"/>
			<path class="st3" d="M225.8-176.6c1,1.8,2.8,3.1,4.7,3.7"/>
			<path class="st3" d="M131.6-109.5c-1.2-6.4,0.7-13.2,4.8-18.1"/>
			<path class="st3" d="M137.7-116.6c0.3-2.3,1.3-4.4,2.9-6"/>
			<path class="st3" d="M160.6-147.8c0.9,3.2,3.4,5.8,6.5,7"/>
			<path class="st3" d="M166.7-150.1c1.2,1.9,3,3.4,5.1,4.2"/>
			<path class="st3" d="M198.2-211.3c4.1-4.2,7.4-9.3,9.4-14.8"/>
			<path class="st3" d="M203.6-210c2.8-1.5,4.9-4.2,5.9-7.2"/>
			<path class="st3" d="M135.4-252.6c2.8,2.4,4.8,5.7,5.6,9.3"/>
			<path class="st3" d="M142.9-250.3c1.6,1.5,2.7,3.5,3.2,5.6"/>
			<path class="st3" d="M101.3-211.1c1.8,2.8,4.7,4.9,8,5.5"/>
			<path class="st3" d="M102.3-202.7c1.3,0.8,2.5,1.5,3.8,2.3"/>
			<path class="st3" d="M202.6-89c-1,6.6-0.2,13.4,2.3,19.6"/>
			<path class="st3" d="M197.8-83c0.1,3.3,0.4,6.5,1,9.8"/>
			<path class="st3" d="M278.5-101.7c3.9,2.7,9.1,3.3,13.5,1.4"/>
			<path class="st3" d="M280.3-95c2.4,1.4,5.2,2.1,8,1.7"/>
			<path class="st3" d="M205.9-109.8c1.6-3.6,4.3-6.7,7.6-8.8"/>
			<path class="st3" d="M205.1-117.9c0.5-1.2,1.4-2.2,2.5-2.7"/>
			<path class="st3" d="M115-74c4.6-1.9,8.5-5.2,11.3-9.4"/>
			<path class="st3" d="M119.6-68.5c3.8-0.1,7.5-2.3,9.3-5.7"/>
			<path class="st3" d="M213-44.8c-0.6-4.1,0.2-8.4,2.1-12.1"/>
			<path class="st3" d="M271.2-236.5c4-2.7,7.1-6.6,9-11"/>
			<path class="st3" d="M275.3-231c2.5-1.2,4.8-3,6.4-5.3"/>
			<path class="st3" d="M283.1-185.1c2.6,1.3,5.6,1.7,8.4,1"/>
			<path class="st3" d="M279.5-179.5c2.2,1.7,5.1,2.5,7.9,2"/>
			<path class="st3" d="M290.9-75.5c0.7,6.5,4.1,12.6,9.3,16.5"/>
			<path class="st3" d="M286.3-67.6c1,3.9,3.1,7.5,6.1,10.3"/>
			<path class="st3" d="M31.9-113.4c6.7-1.5,14.1,1.1,18.4,6.5"/>
			<path class="st3" d="M35.7-122.8c4-0.6,8.2,0.1,11.7,2.1"/>
			<path class="st3" d="M85.1-65.3c1.8-1.9,4.4-3.1,7-3.2"/>
			<path class="st3" d="M83.1-72.3c1.4-1.7,4.1-2.3,6.1-1.3"/>
			<path class="st3" d="M50.2-223.2c1.3-2.7,1.6-5.9,0.9-8.9"/>
			<path class="st3" d="M56.2-225.6c0.9-2,1.2-4.3,0.9-6.5"/>
			<path class="st3" d="M219.4-242.7c-0.9-3-0.2-6.5,1.8-8.9"/>
			<path class="st3" d="M40.5-138.4c1.3-2.4,1.7-5.3,1.2-8"/>
			<path class="st3" d="M47-137c1.6-2.6,2.2-5.9,1.7-8.9"/>
		</g>
		<g>
			<g>
				<path class="st1" d="M9.1-233.5c14.1-19.8,32.1-12.5,33.4,4.4c1,13.8-11.6,43.2-29.3,39.7C-7.1-193.3,1.2-222.4,9.1-233.5z"/>
				<path class="st3" d="M27.4-199.1c4.6-5,7.7-11.4,8.8-18.1"/>
				<path class="st3" d="M38-221.5c0.3-1.7,0.4-3.4,0.3-5.2"/>
				<path class="st3" d="M33-233.7c1.4,0.9,2.4,2.4,2.8,4"/>
				<path class="st3" d="M34.4-236c1.1,0.6,2,1.6,2.4,2.8"/>
				<path class="st3" d="M35.3-238.7c1.1,0.3,1.9,1.3,2,2.4"/>
			</g>
		</g>
		<g>
			<g>
				<path class="st1" d="M357.4-264.2c4.3,14.9-6.1,28.2-22.4,24.5c-20.2-4.7-56.6-46.4-29.7-55.8
					C324.9-302.4,352.1-282.4,357.4-264.2z"/>
				<path class="st2" d="M337.2-262.3c-6.6-1-7.8-0.7-10.7-9.9c-2.9-9.3-8.1-6.4-10-6.8c-5.1-0.9-1.9-8.7-17.4-8.2
					c5.8,2.1,4.5,7,8,9.4c3.7,2.4,9.3,0,12.6,2.8c3,2.5,2.2,7.5,4.3,10.8c4,6.1,15.2,2.9,19.3,8.9c2,3,1.5,8.4,5.4,10
					C355.3-242.5,349.2-260.5,337.2-262.3z"/>
			</g>
		</g>
		<g>
			<g>
				<path class="st1" d="M77.4-264.2c4.3,14.9-6.1,28.2-22.4,24.5c-20.2-4.7-56.6-46.4-29.7-55.8C44.9-302.4,72.1-282.4,77.4-264.2z
					"/>
				<path class="st2" d="M57.2-262.3c-6.6-1-7.8-0.7-10.7-9.9c-2.9-9.3-8.1-6.4-10-6.8c-5.1-0.9-1.9-8.7-17.4-8.2
					c5.8,2.1,4.5,7,8,9.4c3.7,2.4,9.3,0,12.6,2.8c3,2.5,2.2,7.5,4.3,10.8c4,6.1,15.2,2.9,19.3,8.9c2,3,1.5,8.4,5.4,10
					C75.3-242.5,69.2-260.5,57.2-262.3z"/>
				<path class="st3" d="M55.5-244.6c-7.3-2-13.9-6.4-18.6-12.5"/>
				<path class="st3" d="M55.9-254.2c0.5,1.9,0.1,3.9-1,5.5"/>
			</g>
			<g>
				<path class="st1" d="M213.7-270.1c-23.2-37.6,29.5-72.3,60.7-13.3C291.8-250.6,248.6-213.8,213.7-270.1z"/>
				<path class="st2" d="M226-302.9c-0.6,11.8,8.4,9.4,12,12.1c4.8,3.7,1.5,11.7,5.2,16.2c2.2,2.7,6.4,3.3,8.3,6.3
					c1.4,2.2,1,5.1,1.3,7.7c0.8,6.2,6.8,11.4,13.1,11.3c-13-10.1-1.5-17.2-13-24.9c-5.6-3.8-6.9-2.5-8.2-12.2
					c-1.9-14.2-11.7-3.3-15.5-15.2c-0.3-1-0.5-5.6-1.1-5.9C226.1-308.6,226-303.7,226-302.9z"/>
				<path class="st3" d="M233.7-255.5c6,5.8,8,6.9,16.3,9.4"/>
				<path class="st3" d="M255.9-245.4c0.9,0.1,1.8,0,2.6-0.3"/>
			</g>
			<path class="st3" d="M213-239.8c-0.6-4.1,0.2-8.4,2.1-12.1"/>
		</g>
	</g>
</pattern>
<pattern  id="SVGID_1_" xlink:href="#New_Pattern_8" patternTransform="matrix(1 0 0 1 -326 -191)">
</pattern>
<rect class="st4" width="500" height="500"/>
</svg>
