<svg id="Слой_1" data-name="Слой 1" xmlns="http://www.w3.org/2000/svg" viewBox="0 0 96.66 93.9"><defs><style>.cls-1{fill:#049d99;}</style></defs><path class="cls-1" d="M94,6.52a1.65,1.65,0,0,0-1.65-1.28,46.37,46.37,0,0,0-21.45,6.35,42.9,42.9,0,0,0-25-8A43.37,43.37,0,1,0,78.2,18.09,44.44,44.44,0,0,1,93,8.35,1.59,1.59,0,0,0,94,6.52ZM82.82,47A36.89,36.89,0,1,1,65.21,15.49C53.06,25,46,38.86,41.81,47.19l-8.1-14.55a1.58,1.58,0,0,0-1.92-.74L18.13,36.59a1.58,1.58,0,0,0-1,1.13,1.62,1.62,0,0,0,.38,1.48c13.37,14.17,16,28.74,16,28.88a1.55,1.55,0,0,0,.66,1,1.52,1.52,0,0,0,.91.29,1.55,1.55,0,0,0,.31,0l16.39-3.13A1.59,1.59,0,0,0,53,64.92c2-13.49,10.14-30.16,20.71-42.2A36.64,36.64,0,0,1,82.82,47Z"/></svg>