<?xml version="1.0" encoding="utf-8"?>
<!-- Generator: Adobe Illustrator 26.0.1, SVG Export Plug-In . SVG Version: 6.00 Build 0)  -->
<svg version="1.1" id="Слой_1" xmlns="http://www.w3.org/2000/svg" xmlns:xlink="http://www.w3.org/1999/xlink" x="0px" y="0px"
	 viewBox="0 0 161 159" style="enable-background:new 0 0 161 159;" xml:space="preserve">
<style type="text/css">
	.st0{fill:#FA5801;}
	.st1{fill:#EC6925;}
	.st2{fill:#F7A91C;}
	.st3{fill:#FFF5DD;}
</style>
<path class="st0" d="M151.5,89.4c-33.1-11.6-53.4-44.7-49.8-78c0.3-2.7-0.5-3.8-3.1-4.5C55.4-4.4,10.1,27.8,6.4,72.5
	c-3.6,42.5,26.8,78.1,70.3,81.8c4.6,0.1,9.9,0,15.2-0.8c30.2-4.1,56.3-28.7,62-58.5C154.5,92.6,155.1,90.6,151.5,89.4z"/>
<g>
	<path class="st1" d="M132.6,89.9c0,0.1,0.1,0.1,0.2,0c0.2,0,0.3-0.1,0.3-0.3c0-0.2-0.1-0.2-0.3-0.3c-0.1,0-0.2,0-0.2,0.1
		c0,0.1-0.1,0.1,0,0.2C132.5,89.8,132.6,89.9,132.6,89.9z"/>
	<path class="st2" d="M123,115.5c0,0.1,0.1,0.1,0.2,0c0.2,0,0.3-0.2,0.3-0.3c0-0.1-0.1-0.2-0.3-0.3c-0.1,0-0.2,0-0.2,0.1
		c0,0.1-0.1,0.1,0,0.2C122.9,115.4,122.9,115.4,123,115.5z"/>
	<g>
		<path class="st3" d="M35,77.3c-0.7-0.2-1.4-0.5-2-0.7c-0.6-0.3-1.3-0.6-1.9-0.9c-0.5-0.3-1-0.7-1.4-1.1c-0.5-0.4-0.9-0.8-1.2-1.3
			c-0.6-0.7-1-1.6-1.4-2.5c-0.4-0.9-0.6-1.8-0.6-2.8c-0.1-1.2,0-2.5,0.4-3.7c0.3-1.2,0.8-2.4,1.3-3.5c0.6-1.2,1.2-2.3,2-3.3
			c0.8-1,1.7-2,2.7-2.8c0.7-0.6,1.5-1.1,2.4-1.5c0.9-0.4,1.8-0.7,2.7-0.9c1.3-0.2,2.7-0.1,4,0.3c0.9,0.3,1.8,0.7,2.6,1.2
			c0.8,0.5,1.5,1.1,2.2,1.9c0.7,0.8,1.2,1.8,1.6,2.9c0.2,0.8,0.3,1.7,0.3,2.6c0,0.9-0.2,1.7-0.5,2.6c-0.1,0.3-0.3,0.6-0.5,1
			c-0.2,0.3-0.5,0.5-0.8,0.4c-0.1,0-0.3-0.1-0.6-0.2c-0.3-0.1-0.6-0.2-1-0.3s-0.7-0.2-1-0.3c-0.3-0.1-0.5-0.1-0.6-0.2
			c-0.1,0-0.3-0.1-0.5-0.1c-0.2,0-0.5-0.1-0.7-0.1c-0.3,0-0.5-0.1-0.7-0.2c-0.2-0.1-0.4-0.1-0.4-0.2c-0.1-0.1-0.2-0.3-0.3-0.5
			c-0.1-0.2-0.1-0.4-0.1-0.6c0-0.4,0-0.7,0-1.1c0-0.4,0-0.7-0.2-1c-0.1-0.2-0.2-0.3-0.4-0.4C40,60.1,39.8,60,39.6,60
			c-0.8-0.1-1.6,0-2.3,0.2c-0.7,0.3-1.3,0.7-1.8,1.3c-0.5,0.6-0.9,1.2-1.1,2c-0.2,0.8-0.3,1.6-0.2,2.4c0.1,0.4,0.2,0.7,0.3,1
			c0.1,0.3,0.3,0.6,0.6,0.8c0.3,0.3,0.7,0.5,1.2,0.7c0.5,0.2,1,0.3,1.5,0.4c0.5,0.1,1,0.1,1.5,0c0.5-0.1,0.9-0.2,1.3-0.4
			c0.1-0.1,0.2-0.1,0.4-0.2c0.2-0.1,0.3-0.1,0.4-0.1c0.1,0.1,0.2,0.2,0.2,0.3c0,0.1,0.1,0.3,0.1,0.4c0.2,0.9,0.4,1.8,0.6,2.7
			c0.2,0.9,0.5,1.8,0.8,2.6c0,0.1,0.1,0.4,0.3,0.7c0.2,0.3,0.2,0.6,0.2,0.7c0,0.2-0.1,0.3-0.4,0.5c-0.2,0.2-0.4,0.3-0.5,0.3
			c-1.2,0.6-2.4,1-3.9,1.2C37.7,77.8,36.3,77.7,35,77.3z M45.9,59.4c-0.1,0.1-0.1,0.2-0.1,0.4c0,0.1,0.1,0.2,0.3,0.2
			c0.2,0,0.3,0,0.5-0.1c0.1-0.1,0.2-0.2,0.2-0.4c0-0.1-0.1-0.2-0.1-0.4c-0.1-0.2-0.1-0.4-0.2-0.4c-0.1-0.3-0.2-0.6-0.3-0.8
			c-0.1-0.3-0.2-0.6-0.4-0.8c-0.1-0.1-0.2-0.3-0.4-0.5c-0.2-0.2-0.4-0.4-0.7-0.6c-0.2-0.2-0.5-0.4-0.7-0.6c-0.2-0.2-0.4-0.3-0.5-0.3
			c-0.2-0.1-0.5-0.2-0.7-0.2c-0.3,0-0.5-0.1-0.8-0.1c-0.1,0-0.1,0-0.2,0c-0.1,0-0.2,0-0.3,0c-0.2,0-0.2,0.1-0.2,0.3
			c0.1,0.1,0.2,0.2,0.4,0.2c0.2,0,0.3,0,0.4,0.1c0.2,0,0.3,0,0.5,0.1c0.1,0.1,0.3,0.1,0.5,0.2c0,0,0.1,0.1,0.2,0.2
			c0.1,0.1,0.2,0.2,0.2,0.2c0.1,0,0.2,0.1,0.3,0.3c0.1,0.1,0.3,0.3,0.5,0.4c0.2,0.1,0.3,0.3,0.5,0.4c0.1,0.1,0.2,0.2,0.3,0.3
			c0.1,0.1,0.1,0.2,0.2,0.4c0.1,0.2,0.2,0.4,0.2,0.6c0.1,0.2,0.1,0.4,0.2,0.6C45.8,59.2,45.8,59.3,45.9,59.4z M46.1,61.5
			c0.1,0.1,0.2,0.1,0.3,0c0.1-0.1,0.2-0.2,0.2-0.4c0-0.2,0-0.4-0.3-0.3l-0.1,0c-0.1,0-0.2,0.1-0.3,0.3
			C45.9,61.3,45.9,61.4,46.1,61.5z"/>
		<g>
			<path class="st3" d="M46.4,72.5c0.1-0.4,0.2-0.8,0.4-1.1L46.4,72.5L46.4,72.5C46.4,72.5,46.4,72.5,46.4,72.5z"/>
			<path class="st3" d="M46.3,72.5L46.3,72.5l-0.3,0.6l0.1,0C46.2,73,46.3,72.8,46.3,72.5z"/>
			<path class="st3" d="M64.6,73.9c0,0.1-0.1,0.2-0.1,0.2c-0.1,0.1-0.2,0.1-0.3,0.1c-0.1,0-0.2,0-0.2-0.1c-0.1,0-0.1-0.1-0.1-0.2
				c0-0.1,0-0.2,0.1-0.3c0.1-0.2,0.2-0.4,0.4-0.8c0.1-0.3,0.2-0.6,0.3-0.9l-4.2-1.6c-0.3,0.4-0.5,0.7-0.9,1c-0.4,0.3-0.7,0.7-1.1,1
				c-0.5,0.4-1.1,0.8-1.6,1.2c-0.6,0.4-1.2,0.7-1.8,1c-0.5,0.2-0.9,0.5-1.4,0.8l9.7,3.7c0.3-0.5,0.7-1,1-1.6
				c0.7-1.2,1.3-2.5,1.7-3.9c0.1-0.3,0.1-0.7,0.2-1l-1-0.4C65.1,72.7,64.9,73.3,64.6,73.9z M64.2,75.3c0,0.1-0.1,0.2-0.2,0.3
				c-0.1,0.1-0.2,0.1-0.3,0.1s-0.2-0.1-0.2-0.3c-0.1-0.1-0.1-0.2-0.1-0.3c0-0.1,0-0.2,0.1-0.2c0.1-0.1,0.1-0.1,0.2-0.1
				c0.1,0,0.2,0,0.3,0.1C64.2,75.1,64.2,75.2,64.2,75.3z"/>
			<path class="st3" d="M46.3,72.5l4.8,1.8c0.8-0.5,1.6-1,2.5-1.3c1.1-0.4,2.1-0.9,3.1-1.4c0.9-0.5,1.7-1.1,2.4-1.8l-9.4-3.6
				c-0.5,0.6-1,1.2-1.4,1.9c-0.7,1-1.2,2.1-1.6,3.2C46.6,71.7,46.5,72.1,46.3,72.5C46.4,72.5,46.4,72.5,46.3,72.5z"/>
			<path class="st3" d="M61.1,67.5c0.5-0.8,0.8-1.6,1.1-2.4c-0.1,0.9-0.3,1.8-0.6,2.7c-0.1,0.5-0.3,0.9-0.5,1.3l3.8,1.4
				c0,0,0-0.1,0-0.1c0.1-0.4,0.1-0.7,0.2-0.9c0-0.2,0-0.4,0-0.8c0-0.4,0-0.7,0-1.1c0-0.4,0-0.8-0.1-1.1c0-0.4-0.1-0.6-0.1-0.8
				c0-0.1-0.1-0.2-0.2-0.4c0-0.1,0-0.2,0-0.2c0-0.1,0.1-0.1,0.1-0.2c0.1,0,0.2-0.1,0.2-0.1c0.1,0,0.2,0,0.2,0.1
				c0.1,0.1,0.1,0.2,0.2,0.3c0.1,0.1,0.1,0.3,0.1,0.4c0.1,0.7,0.2,1.4,0.2,2.2c0,0.7,0,1.5-0.1,2.2c0,0.2-0.1,0.5-0.1,0.7l0.9,0.3
				c0.1-0.5,0.1-1,0.2-1.5c0.1-1.4-0.1-2.7-0.4-4c-0.2-0.7-0.5-1.4-1-2.1c-0.5-0.6-1-1.2-1.6-1.6c-0.5-0.3-1.1-0.5-1.7-0.7
				c-0.6-0.2-1.2-0.2-1.8-0.3c-0.8,0-1.6,0.1-2.4,0.2c-0.8,0.2-1.5,0.4-2.3,0.8c-0.8,0.3-1.5,0.7-2.2,1.1c-0.7,0.4-1.3,0.9-1.9,1.5
				c-0.2,0.2-0.4,0.4-0.6,0.6l9.4,3.6C60.5,68.3,60.8,67.9,61.1,67.5z"/>
			<path class="st3" d="M59.1,69.9c0.1-0.1,0.2-0.2,0.3-0.3c0.3-0.3,0.5-0.6,0.8-0.9l-9.4-3.6c-0.4,0.4-0.7,0.7-1.1,1.2L59.1,69.9z"
				/>
			<path class="st3" d="M60.4,70.3l4.2,1.6c0-0.1,0.1-0.2,0.1-0.3c0.1-0.4,0.2-0.8,0.3-1.1L61.1,69c-0.2,0.4-0.4,0.8-0.7,1.1
				C60.4,70.2,60.4,70.3,60.4,70.3z"/>
			<path class="st3" d="M65.3,72c0,0.1,0,0.1-0.1,0.2l1,0.4c0.1-0.5,0.2-1,0.3-1.5l-0.9-0.3C65.5,71.2,65.4,71.6,65.3,72z"/>
			<path class="st3" d="M51.5,76.9c-0.5,0.6-0.9,1.2-1.2,2c-0.3,0.7-0.5,1.5-0.6,2.2c0,0.2-0.1,0.5-0.1,0.8c0,0.3,0,0.5,0.1,0.8
				c0.1,0.2,0.1,0.5,0.3,0.7c0.1,0.2,0.3,0.3,0.5,0.4c0.7,0.2,1.4,0.4,2.2,0.5c0.8,0.1,1.5,0.2,2.3,0.1c1-0.1,2-0.3,3-0.8
				c1-0.4,1.8-0.9,2.6-1.6c0.8-0.6,1.5-1.3,2.1-2.1c0.1-0.1,0.2-0.2,0.2-0.3l-10-3.8C52.3,76.1,51.9,76.5,51.5,76.9z"/>
			<path class="st3" d="M45.7,76.8c0,1.5,0.3,3,0.8,4.3c0.1,0.1,0.2,0.3,0.3,0.3c0.1,0.1,0.3,0.1,0.4,0.1c0.1,0,0.2-0.1,0.3-0.2
				c0.1-0.1,0.1-0.2,0.1-0.4c-0.1-0.7-0.1-1.5,0.2-2.3c0.2-0.8,0.5-1.5,1-2.1c0.5-0.7,1.1-1.3,1.8-1.8l-4.3-1.6
				C45.9,74.4,45.7,75.6,45.7,76.8z"/>
			<path class="st3" d="M51.2,74.4l-4.8-1.8c-0.1,0.2-0.1,0.5-0.2,0.7l4.3,1.6c0.1-0.1,0.3-0.2,0.4-0.3C51,74.5,51.1,74.4,51.2,74.4
				z"/>
			<path class="st3" d="M53.1,75.6c-0.1,0.1-0.2,0.1-0.3,0.2l10,3.8c0.1-0.2,0.3-0.4,0.4-0.6l-9.7-3.7
				C53.4,75.4,53.3,75.5,53.1,75.6z"/>
		</g>
		<path class="st3" d="M63.9,88.4c-0.2-0.1-0.4-0.2-0.6-0.3c-0.2-0.1-0.3-0.3-0.4-0.5c0-0.1-0.1-0.3,0-0.4c0-0.1,0.1-0.3,0.1-0.4
			c0.1-0.1,0.2-0.4,0.4-0.9c0.2-0.5,0.4-0.9,0.6-1.5c0.2-0.5,0.4-1,0.6-1.5c0.2-0.5,0.3-0.7,0.4-0.9c0-0.1,0.2-0.4,0.3-0.7
			c0.2-0.4,0.4-0.7,0.5-1.2c0.2-0.4,0.4-0.8,0.5-1.1c0.2-0.3,0.3-0.6,0.3-0.7c0.1-0.2,0.2-0.6,0.4-1.1c0.2-0.5,0.4-1.2,0.7-1.9
			c0.3-0.7,0.5-1.5,0.8-2.3c0.3-0.8,0.6-1.6,0.8-2.3c0.3-0.7,0.5-1.4,0.7-1.9c0.2-0.5,0.4-0.9,0.5-1.1c0.1-0.3,0.2-0.5,0.3-0.8
			c0.1-0.3,0.3-0.5,0.5-0.7c0.1-0.2,0.3-0.3,0.5-0.4s0.4-0.2,0.6-0.2c0.3,0,0.5,0,0.8,0.1c0.2,0.1,0.5,0.2,0.7,0.3
			c0.1,0,0.3,0.1,0.6,0.3c0.3,0.1,0.6,0.3,1,0.4s0.7,0.3,1,0.4c0.3,0.1,0.5,0.2,0.6,0.3c1.2,0.5,2.3,0.9,3.5,1.3
			c1.2,0.4,2.3,0.8,3.5,1.4c0.1,0,0.2,0.1,0.4,0.2c0.2,0.1,0.4,0.2,0.6,0.3c0.2,0.1,0.4,0.2,0.5,0.3c0.2,0.1,0.3,0.2,0.3,0.2
			c0.1,0.2,0.2,0.3,0.1,0.5c0,0.1,0,0.1-0.1,0.2c0,0.1-0.1,0.1-0.1,0.2c0,0.4-0.1,0.8-0.3,1.2c-0.2,0.4-0.3,0.7-0.5,1.1
			c-0.1,0.2-0.2,0.4-0.3,0.7c-0.1,0.3-0.3,0.6-0.4,0.9c-0.2,0.3-0.3,0.6-0.5,0.8c-0.2,0.2-0.4,0.4-0.6,0.4c-0.2,0.1-0.4,0-0.7-0.1
			c-0.3-0.1-0.6-0.2-0.9-0.3c-0.3-0.1-0.6-0.3-0.9-0.4c-0.3-0.2-0.5-0.3-0.7-0.4c-0.8-0.4-1.6-0.8-2.5-1.1c-0.8-0.3-1.7-0.6-2.5-1
			c0,0.1-0.1,0.3-0.2,0.6c-0.1,0.3-0.2,0.6-0.3,0.9c-0.1,0.3-0.2,0.6-0.3,0.9c-0.1,0.3-0.2,0.4-0.2,0.5c0.8,0.3,1.6,0.5,2.4,0.8
			c0.8,0.3,1.6,0.6,2.4,1c0.1,0,0.2,0.1,0.4,0.2c0.2,0.1,0.4,0.2,0.5,0.3s0.3,0.2,0.5,0.4c0.1,0.1,0.2,0.3,0.2,0.4
			c0.1,0.3,0.1,0.5,0,0.8c-0.1,0.3-0.2,0.5-0.4,0.8c0,0.1-0.1,0.2-0.2,0.5c-0.1,0.2-0.2,0.5-0.4,0.8c-0.1,0.3-0.3,0.6-0.4,0.8
			c-0.1,0.3-0.2,0.4-0.2,0.5c-0.1,0.1-0.1,0.2-0.1,0.2c0,0.1-0.1,0.2-0.2,0.2c-0.3,0.2-0.5,0.3-0.9,0.2c-0.2,0-0.5-0.1-0.6-0.2
			c-0.9-0.4-1.7-0.7-2.6-1.1c-0.9-0.4-1.7-0.7-2.7-0.9c0,0.1-0.1,0.3-0.1,0.5c-0.1,0.2-0.2,0.5-0.3,0.8c-0.1,0.3-0.2,0.5-0.3,0.8
			c-0.1,0.2-0.1,0.4-0.2,0.5c0,0.1-0.1,0.3-0.2,0.6c-0.1,0.3-0.2,0.6-0.3,1c-0.1,0.3-0.2,0.7-0.3,1C70,87.8,70,88,69.9,88.1
			c-0.1,0.2-0.2,0.5-0.3,0.7c-0.1,0.2-0.3,0.5-0.5,0.6c-0.2,0.1-0.4,0.2-0.6,0.2s-0.5,0-0.7-0.1c0,0-0.1-0.1-0.3-0.1
			c-0.1-0.1-0.3-0.1-0.5-0.2c-0.2-0.1-0.3-0.1-0.5-0.2c-0.2,0-0.2-0.1-0.3-0.1c-0.4-0.1-0.8-0.2-1.2-0.3
			C64.7,88.6,64.3,88.5,63.9,88.4z M64.2,87.5c0.1,0.1,0.2,0.1,0.4,0.2c0.2,0.1,0.4,0.1,0.5,0.1c0.1,0,0.2,0,0.2-0.2
			c0-0.1,0-0.2-0.1-0.2c-0.1,0-0.3-0.1-0.5-0.2c-0.2-0.1-0.3-0.2-0.4-0.3c0-0.1,0.1-0.3,0.2-0.6c0.1-0.3,0.2-0.5,0.3-0.6
			c0.1-0.1,0.1-0.3,0.1-0.4s0-0.3,0.1-0.5c0,0,0.1-0.1,0.1-0.3c0.1-0.1,0.1-0.3,0.2-0.5c0.1-0.2,0.1-0.3,0.2-0.5
			c0.1-0.1,0.1-0.3,0.1-0.3c0-0.1-0.1-0.2-0.2-0.2c-0.1,0-0.2,0-0.3,0.2c0,0.1-0.1,0.2-0.1,0.3c-0.1,0.1-0.1,0.3-0.2,0.4
			c-0.1,0.1-0.1,0.3-0.2,0.4c-0.1,0.1-0.1,0.2-0.1,0.3c0,0.1-0.1,0.2-0.3,0.4c-0.1,0.2-0.2,0.3-0.2,0.4c-0.1,0.3-0.1,0.6-0.2,1.1
			C63.8,87,63.9,87.3,64.2,87.5z M65.7,82.2c0,0.2,0,0.3,0.2,0.3c0.2,0,0.2-0.1,0.2-0.3c0-0.1-0.1-0.2-0.2-0.1
			C65.8,82.1,65.7,82.1,65.7,82.2z M80.1,70.5c0.2,0.1,0.3,0.2,0.5,0.2c0.2,0,0.4,0,0.5,0.1c0.1,0,0.2,0,0.4,0.1
			c0.2,0.1,0.4,0.1,0.6,0.2c0.2,0.1,0.4,0.1,0.6,0.2c0.2,0.1,0.3,0.1,0.4,0.1c0.1,0.1,0.1,0.2,0.2,0.1c0.1,0,0.2-0.1,0.2-0.2
			c0-0.1-0.1-0.2-0.1-0.2c-0.1-0.1-0.2-0.1-0.2-0.1c-0.3-0.1-0.5-0.2-0.8-0.3c-0.3-0.1-0.5-0.3-0.8-0.4c-0.1,0-0.1-0.1-0.2-0.1
			c-0.1,0-0.1-0.1-0.2-0.1c0,0-0.1,0-0.2-0.1c-0.1,0-0.2-0.1-0.2-0.1c-0.2-0.1-0.3-0.2-0.5-0.2c-0.2,0-0.3-0.1-0.5-0.1
			c-0.1,0-0.2,0-0.3,0.1c-0.1,0.1-0.1,0.2,0,0.3c0.1,0,0.1,0.1,0.2,0.1c0.1,0,0.1,0.1,0.1,0.1c0.1,0.1,0.2,0.2,0.2,0.3
			C79.9,70.4,80,70.5,80.1,70.5z M83.9,71.9c0,0.2,0.1,0.2,0.3,0.2c0.1,0,0.3-0.1,0.4-0.2c0.1-0.1,0.1-0.2,0-0.3
			c-0.1-0.1-0.2-0.2-0.3-0.1c-0.1,0-0.1,0-0.2,0c-0.1,0-0.1,0-0.2,0c-0.1,0-0.1,0.1-0.1,0.2C83.8,71.8,83.8,71.9,83.9,71.9z"/>
		<path class="st3" d="M80.7,94.7c-0.2-0.1-0.4-0.2-0.6-0.3c-0.2-0.1-0.3-0.3-0.4-0.5c0-0.1-0.1-0.3,0-0.4c0-0.1,0.1-0.3,0.1-0.4
			c0.1-0.1,0.2-0.4,0.4-0.9c0.2-0.5,0.4-0.9,0.6-1.5c0.2-0.5,0.4-1,0.6-1.5c0.2-0.5,0.3-0.7,0.4-0.9c0-0.1,0.2-0.4,0.3-0.7
			c0.2-0.4,0.4-0.7,0.5-1.2s0.4-0.8,0.5-1.1c0.2-0.3,0.3-0.6,0.3-0.7c0.1-0.2,0.2-0.6,0.4-1.1c0.2-0.5,0.4-1.2,0.7-1.9
			c0.3-0.7,0.5-1.5,0.8-2.3c0.3-0.8,0.6-1.6,0.8-2.3c0.3-0.7,0.5-1.4,0.7-1.9c0.2-0.5,0.4-0.9,0.5-1.1c0.1-0.3,0.2-0.5,0.3-0.8
			c0.1-0.3,0.3-0.5,0.5-0.7c0.1-0.2,0.3-0.3,0.5-0.4s0.4-0.2,0.6-0.2c0.3,0,0.5,0,0.8,0.1c0.2,0.1,0.5,0.2,0.7,0.3
			c0.1,0,0.3,0.1,0.6,0.3s0.6,0.3,1,0.4s0.7,0.3,1,0.4c0.3,0.1,0.5,0.2,0.6,0.3c1.2,0.5,2.3,0.9,3.5,1.3c1.2,0.4,2.3,0.8,3.5,1.4
			c0.1,0,0.2,0.1,0.4,0.2c0.2,0.1,0.4,0.2,0.6,0.3c0.2,0.1,0.4,0.2,0.5,0.3c0.2,0.1,0.3,0.2,0.3,0.2c0.1,0.2,0.2,0.3,0.1,0.5
			c0,0.1,0,0.1-0.1,0.2c0,0.1-0.1,0.1-0.1,0.2c0,0.4-0.1,0.8-0.3,1.2c-0.2,0.4-0.3,0.7-0.5,1.1c-0.1,0.2-0.2,0.4-0.3,0.7
			c-0.1,0.3-0.3,0.6-0.4,0.9c-0.2,0.3-0.3,0.6-0.5,0.8c-0.2,0.2-0.4,0.4-0.6,0.4c-0.2,0.1-0.4,0-0.7-0.1c-0.3-0.1-0.6-0.2-0.9-0.3
			c-0.3-0.1-0.6-0.3-0.9-0.4c-0.3-0.2-0.5-0.3-0.7-0.4c-0.8-0.4-1.6-0.8-2.5-1.1c-0.8-0.3-1.7-0.6-2.5-1c0,0.1-0.1,0.3-0.2,0.6
			c-0.1,0.3-0.2,0.6-0.3,0.9c-0.1,0.3-0.2,0.6-0.3,0.9c-0.1,0.3-0.2,0.4-0.2,0.5c0.8,0.3,1.6,0.5,2.4,0.8c0.8,0.3,1.6,0.6,2.4,1
			c0.1,0,0.2,0.1,0.4,0.2c0.2,0.1,0.4,0.2,0.5,0.3s0.3,0.2,0.5,0.4c0.1,0.1,0.2,0.3,0.2,0.4c0.1,0.3,0.1,0.5,0,0.8
			c-0.1,0.3-0.2,0.5-0.4,0.8c0,0.1-0.1,0.2-0.2,0.5c-0.1,0.2-0.2,0.5-0.4,0.8c-0.1,0.3-0.3,0.6-0.4,0.8c-0.1,0.3-0.2,0.4-0.2,0.5
			c-0.1,0.1-0.1,0.2-0.1,0.2c0,0.1-0.1,0.2-0.2,0.2C95,91,94.7,91.1,94.4,91c-0.2,0-0.5-0.1-0.6-0.2c-0.9-0.4-1.7-0.7-2.6-1.1
			c-0.9-0.4-1.7-0.7-2.7-0.9c0,0.1-0.1,0.3-0.1,0.5s-0.2,0.5-0.3,0.8c-0.1,0.3-0.2,0.5-0.3,0.8c-0.1,0.2-0.1,0.4-0.2,0.5
			c0,0.1-0.1,0.3-0.2,0.6c-0.1,0.3-0.2,0.6-0.3,1c-0.1,0.3-0.2,0.7-0.3,1c-0.1,0.3-0.2,0.5-0.2,0.6c-0.1,0.2-0.2,0.5-0.3,0.7
			c-0.1,0.2-0.3,0.5-0.5,0.6c-0.2,0.1-0.4,0.2-0.6,0.2c-0.3,0-0.5,0-0.7-0.1c0,0-0.1-0.1-0.3-0.1c-0.1-0.1-0.3-0.1-0.5-0.2
			c-0.2-0.1-0.3-0.1-0.5-0.2c-0.2,0-0.2-0.1-0.3-0.1c-0.4-0.1-0.8-0.2-1.2-0.3C81.5,94.9,81.1,94.8,80.7,94.7z M80.9,93.8
			c0.1,0.1,0.2,0.1,0.4,0.2c0.2,0.1,0.4,0.1,0.5,0.1c0.1,0,0.2,0,0.2-0.2c0-0.1,0-0.2-0.1-0.2c-0.1,0-0.3-0.1-0.5-0.2
			c-0.2-0.1-0.3-0.2-0.4-0.3c0-0.1,0.1-0.3,0.2-0.6c0.1-0.3,0.2-0.5,0.3-0.6c0.1-0.1,0.1-0.3,0.1-0.4c0-0.1,0-0.3,0.1-0.5
			c0,0,0.1-0.1,0.1-0.3s0.1-0.3,0.2-0.5c0.1-0.2,0.1-0.3,0.2-0.5c0.1-0.1,0.1-0.3,0.1-0.3c0-0.1-0.1-0.2-0.2-0.2
			c-0.1,0-0.2,0-0.3,0.2c0,0.1-0.1,0.2-0.1,0.3c-0.1,0.1-0.1,0.3-0.2,0.4c-0.1,0.1-0.1,0.3-0.2,0.4c-0.1,0.1-0.1,0.2-0.1,0.3
			c0,0.1-0.1,0.2-0.3,0.4c-0.1,0.2-0.2,0.3-0.2,0.4c-0.1,0.3-0.1,0.6-0.2,1.1C80.6,93.3,80.7,93.6,80.9,93.8z M82.5,88.6
			c0,0.2,0,0.3,0.2,0.3c0.2,0,0.2-0.1,0.2-0.3c0-0.1-0.1-0.2-0.2-0.1C82.6,88.4,82.5,88.5,82.5,88.6z M96.9,76.9
			c0.2,0.1,0.3,0.2,0.5,0.2c0.2,0,0.4,0,0.5,0.1c0.1,0,0.2,0,0.4,0.1c0.2,0.1,0.4,0.1,0.6,0.2c0.2,0.1,0.4,0.1,0.6,0.2
			c0.2,0.1,0.3,0.1,0.4,0.1c0.1,0.1,0.1,0.2,0.2,0.1c0.1,0,0.2-0.1,0.2-0.2c0-0.1-0.1-0.2-0.1-0.2c-0.1-0.1-0.2-0.1-0.2-0.1
			c-0.3-0.1-0.5-0.2-0.8-0.3c-0.3-0.1-0.5-0.3-0.8-0.4c-0.1,0-0.1-0.1-0.2-0.1c-0.1,0-0.1-0.1-0.2-0.1c0,0-0.1,0-0.2-0.1
			c-0.1,0-0.2-0.1-0.2-0.1c-0.2-0.1-0.3-0.2-0.5-0.2c-0.2,0-0.3-0.1-0.5-0.1c-0.1,0-0.2,0-0.3,0.1c-0.1,0.1-0.1,0.2,0,0.3
			c0.1,0,0.1,0.1,0.2,0.1c0.1,0,0.1,0.1,0.1,0.1c0.1,0.1,0.2,0.2,0.2,0.3C96.7,76.8,96.8,76.8,96.9,76.9z M100.7,78.3
			c0,0.2,0.1,0.2,0.3,0.2s0.3-0.1,0.4-0.2c0.1-0.1,0.1-0.2,0-0.3c-0.1-0.1-0.2-0.2-0.3-0.1c-0.1,0-0.1,0-0.2,0c-0.1,0-0.1,0-0.2,0
			c-0.1,0-0.1,0.1-0.1,0.2C100.5,78.1,100.6,78.2,100.7,78.3z"/>
		<path class="st3" d="M107.1,104.8c-1.3-0.5-2.5-1-3.8-1.5c-1.3-0.5-2.5-1-3.8-1.5c0,0-0.1-0.1-0.3-0.1c-0.2-0.1-0.3-0.1-0.5-0.2
			c-0.2-0.1-0.3-0.1-0.5-0.2c-0.2-0.1-0.3-0.1-0.3-0.1c-0.2-0.1-0.3-0.1-0.5-0.2c-0.2-0.1-0.3-0.2-0.4-0.4c-0.2-0.3-0.2-0.6-0.2-0.9
			c0-0.3,0.1-0.6,0.2-1c0.2-0.8,0.4-1.5,0.7-2.3c0.3-0.7,0.6-1.5,0.9-2.2c0,0,0-0.1,0-0.2c0-0.1,0-0.2,0-0.2c0.1-0.5,0.3-1,0.5-1.4
			c0.2-0.4,0.4-0.9,0.6-1.4c0.4-0.9,0.8-1.8,1.1-2.8c0.3-0.9,0.6-1.9,1-2.8c0.1-0.1,0.2-0.4,0.4-0.8s0.4-0.8,0.6-1.3
			c0.2-0.5,0.4-0.9,0.6-1.3c0.2-0.4,0.3-0.7,0.4-0.8c0.2-0.5,0.4-0.9,0.7-1.4c0.2-0.5,0.5-0.9,0.8-1.3c0.1-0.2,0.3-0.3,0.5-0.4
			c0.2-0.1,0.4-0.2,0.6-0.3c0.2,0,0.4,0,0.6,0c0.2,0.1,0.4,0.1,0.5,0.2c0.1,0,0.4,0.2,0.7,0.3c0.4,0.2,0.8,0.3,1.2,0.6
			c0.4,0.2,0.8,0.4,1.2,0.6c0.4,0.2,0.6,0.3,0.7,0.4c0.7,0.4,1.5,0.7,2.3,1c0.8,0.3,1.6,0.6,2.4,0.8c0.1,0,0.2,0.1,0.5,0.2
			c0.2,0.1,0.5,0.2,0.7,0.3c0.2,0.1,0.5,0.2,0.7,0.3c0.2,0.1,0.4,0.2,0.5,0.3c0.1,0.1,0.2,0.2,0.3,0.3c0.1,0.1,0.1,0.3,0.1,0.4
			c0,0.1,0,0.2-0.1,0.4c-0.1,0.2-0.1,0.3-0.2,0.5s-0.2,0.4-0.3,0.5c-0.1,0.2-0.2,0.3-0.2,0.4c-0.2,0.4-0.3,0.7-0.5,1.1
			c-0.1,0.4-0.3,0.8-0.4,1.1c-0.1,0.2-0.1,0.4-0.2,0.6c-0.1,0.2-0.2,0.3-0.3,0.5c-0.1,0.2-0.3,0.3-0.5,0.3c-0.2,0-0.5,0-0.8-0.1
			c-0.3-0.1-0.7-0.2-1.1-0.4c-0.4-0.2-0.7-0.3-1.1-0.5c-0.3-0.2-0.6-0.3-0.8-0.4c-0.4-0.2-0.8-0.4-1.2-0.6c-0.4-0.2-0.9-0.4-1.3-0.5
			c-0.2-0.1-0.5-0.2-0.7-0.2s-0.5-0.1-0.7-0.2c0,0.1-0.1,0.3-0.2,0.5c-0.1,0.3-0.2,0.5-0.3,0.8c-0.1,0.3-0.2,0.6-0.3,0.8
			c-0.1,0.3-0.2,0.4-0.2,0.5c0.3,0.1,0.5,0.2,0.8,0.4c0.3,0.1,0.5,0.2,0.8,0.3c0.1,0,0.2,0.1,0.5,0.2c0.2,0.1,0.4,0.2,0.7,0.3
			c0.2,0.1,0.4,0.2,0.6,0.3c0.2,0.1,0.3,0.2,0.4,0.2c0.1,0.1,0.2,0.2,0.2,0.4c0.1,0.2,0.1,0.3,0,0.4c0,0.1-0.1,0.4-0.2,0.7
			c-0.1,0.3-0.2,0.7-0.3,1c-0.1,0.4-0.2,0.7-0.3,1s-0.2,0.5-0.2,0.6c-0.1,0.2-0.2,0.3-0.3,0.4c-0.1,0.1-0.3,0.2-0.4,0.3
			c-0.2,0-0.4,0.1-0.6,0c-0.2,0-0.4-0.1-0.6-0.1c-0.1,0-0.3-0.1-0.6-0.2s-0.6-0.2-1-0.4c-0.3-0.1-0.7-0.3-1-0.4
			c-0.3-0.1-0.5-0.2-0.6-0.2c0,0.1-0.1,0.2-0.1,0.4c-0.1,0.2-0.2,0.4-0.3,0.7c-0.1,0.2-0.2,0.5-0.3,0.7c-0.1,0.2-0.1,0.3-0.2,0.4
			c0.5,0.3,0.9,0.5,1.4,0.7s0.9,0.4,1.4,0.6c0.6,0.2,1.1,0.4,1.7,0.7s1.2,0.4,1.7,0.6c0.2,0.1,0.4,0.2,0.6,0.3
			c0.2,0.1,0.3,0.3,0.4,0.5c0,0.1,0,0.3-0.1,0.5c-0.1,0.2-0.1,0.5-0.2,0.7c-0.1,0.3-0.2,0.5-0.3,0.7c-0.1,0.2-0.2,0.4-0.2,0.5
			c-0.2,0.5-0.4,1-0.5,1.5c-0.1,0.5-0.3,1-0.4,1.5c0,0.1-0.1,0.2-0.1,0.2c0,0.1-0.1,0.2-0.1,0.2c-0.1,0.1-0.2,0.2-0.4,0.2
			c-0.2,0-0.3,0-0.4,0c-0.3-0.1-0.7-0.2-1-0.3C107.8,105,107.5,104.9,107.1,104.8z M107.9,90.2c0.1,0,0.2,0.1,0.3,0.2
			c0.2,0.1,0.3,0.2,0.5,0.3c0.2,0.1,0.3,0.2,0.5,0.2c0.2,0.1,0.3,0.1,0.3,0.1c0.1,0,0.2,0,0.3-0.2c0.1-0.1,0.1-0.2,0-0.3
			c-0.1,0-0.1-0.1-0.3-0.1c-0.1,0-0.3-0.1-0.4-0.1c-0.2,0-0.3-0.1-0.5-0.1c-0.1,0-0.2-0.1-0.3-0.1c0,0-0.1,0-0.2-0.1
			c-0.1-0.1-0.1-0.1-0.2-0.1c-0.1,0-0.1,0-0.2-0.1c-0.1,0-0.1,0-0.2-0.1c-0.1-0.1-0.2-0.1-0.3,0.1c-0.1,0.1-0.1,0.2,0,0.2
			c0,0,0.1,0.1,0.2,0.1C107.8,90.1,107.9,90.2,107.9,90.2z M115.4,83.4c0,0.1,0.1,0.1,0.3,0.1c0.2,0,0.3-0.1,0.3-0.2
			c0-0.2,0-0.3-0.1-0.4c-0.1-0.1-0.3-0.2-0.4-0.2c-0.1,0-0.3-0.1-0.4-0.1c-0.1,0-0.2-0.1-0.3-0.1c-0.2-0.1-0.3-0.1-0.5-0.2
			c-0.2-0.1-0.3-0.2-0.5-0.2c-0.2-0.1-0.3-0.1-0.3-0.2c-0.1-0.1-0.2-0.1-0.3-0.2c-0.1,0-0.2-0.1-0.3-0.1c-0.1,0-0.3-0.1-0.5-0.2
			c-0.2-0.1-0.4-0.1-0.5-0.1c-0.1,0.1-0.2,0.1-0.2,0.2c0,0.1,0.1,0.2,0.2,0.3c0.2,0.1,0.4,0.2,0.6,0.3c0.2,0,0.5,0.1,0.7,0.2
			c0.1,0,0.3,0.1,0.6,0.2s0.5,0.2,0.7,0.3c0.3,0.1,0.5,0.2,0.7,0.3C115.2,83.2,115.4,83.3,115.4,83.4z M110.4,91
			c-0.2,0.2-0.2,0.3-0.1,0.5c0.1,0.1,0.3,0.1,0.4-0.2c0.1-0.1,0-0.2-0.1-0.3C110.6,90.9,110.5,90.9,110.4,91z M116.8,83.4
			c-0.1,0-0.2,0-0.2,0.1c0,0.1-0.1,0.1,0,0.2c0,0.1,0,0.1,0.1,0.2c0,0.1,0.1,0.1,0.2,0c0.2,0,0.3-0.1,0.3-0.3
			C117.1,83.5,117,83.4,116.8,83.4z"/>
		<path class="st3" d="M123.1,110.8c-1.3-0.5-2.5-1-3.8-1.5c-1.3-0.5-2.5-1-3.8-1.5c0,0-0.1-0.1-0.3-0.1c-0.2-0.1-0.3-0.1-0.5-0.2
			c-0.2-0.1-0.3-0.1-0.5-0.2c-0.2-0.1-0.3-0.1-0.3-0.1c-0.2-0.1-0.3-0.1-0.5-0.2c-0.2-0.1-0.3-0.2-0.4-0.4c-0.2-0.3-0.2-0.6-0.2-0.9
			c0-0.3,0.1-0.6,0.2-1c0.2-0.8,0.4-1.5,0.7-2.3s0.6-1.5,0.9-2.2c0,0,0-0.1,0-0.2c0-0.1,0-0.2,0-0.2c0.1-0.5,0.3-1,0.5-1.4
			c0.2-0.4,0.4-0.9,0.6-1.4c0.4-0.9,0.8-1.8,1.1-2.8s0.6-1.9,1-2.8c0.1-0.1,0.2-0.4,0.4-0.8c0.2-0.4,0.4-0.8,0.6-1.3
			c0.2-0.5,0.4-0.9,0.6-1.3c0.2-0.4,0.3-0.7,0.4-0.8c0.2-0.5,0.4-0.9,0.7-1.4c0.2-0.5,0.5-0.9,0.8-1.3c0.1-0.2,0.3-0.3,0.5-0.4
			c0.2-0.1,0.4-0.2,0.6-0.3c0.2,0,0.4,0,0.6,0c0.2,0.1,0.4,0.1,0.5,0.2c0.1,0,0.4,0.2,0.7,0.3c0.4,0.2,0.8,0.3,1.2,0.6
			c0.4,0.2,0.8,0.4,1.2,0.6c0.4,0.2,0.6,0.3,0.7,0.4c0.7,0.4,1.5,0.7,2.3,1c0.8,0.3,1.6,0.6,2.4,0.8c0.1,0,0.2,0.1,0.5,0.2
			c0.2,0.1,0.5,0.2,0.7,0.3c0.2,0.1,0.5,0.2,0.7,0.3c0.2,0.1,0.4,0.2,0.5,0.3c0.1,0.1,0.2,0.2,0.3,0.3c0.1,0.1,0.1,0.3,0.1,0.4
			c0,0.1,0,0.2-0.1,0.4c-0.1,0.2-0.1,0.3-0.2,0.5s-0.2,0.4-0.3,0.5c-0.1,0.2-0.2,0.3-0.2,0.4c-0.2,0.4-0.3,0.7-0.5,1.1
			c-0.1,0.4-0.3,0.8-0.4,1.1c-0.1,0.2-0.1,0.4-0.2,0.6c-0.1,0.2-0.2,0.3-0.3,0.5c-0.1,0.2-0.3,0.3-0.5,0.3c-0.2,0-0.5,0-0.8-0.1
			c-0.3-0.1-0.7-0.2-1.1-0.4c-0.4-0.2-0.7-0.3-1.1-0.5c-0.3-0.2-0.6-0.3-0.8-0.4c-0.4-0.2-0.8-0.4-1.2-0.6c-0.4-0.2-0.9-0.4-1.3-0.5
			c-0.2-0.1-0.5-0.2-0.7-0.2s-0.5-0.1-0.7-0.2c0,0.1-0.1,0.3-0.2,0.5c-0.1,0.3-0.2,0.5-0.3,0.8c-0.1,0.3-0.2,0.6-0.3,0.8
			c-0.1,0.3-0.2,0.4-0.2,0.5c0.3,0.1,0.5,0.2,0.8,0.4c0.3,0.1,0.5,0.2,0.8,0.3c0.1,0,0.2,0.1,0.5,0.2s0.4,0.2,0.7,0.3
			c0.2,0.1,0.4,0.2,0.6,0.3c0.2,0.1,0.3,0.2,0.4,0.2c0.1,0.1,0.2,0.2,0.2,0.4c0.1,0.2,0.1,0.3,0,0.4c0,0.1-0.1,0.4-0.2,0.7
			c-0.1,0.3-0.2,0.7-0.3,1c-0.1,0.4-0.2,0.7-0.3,1c-0.1,0.3-0.2,0.5-0.2,0.6c-0.1,0.2-0.2,0.3-0.3,0.4c-0.1,0.1-0.3,0.2-0.4,0.3
			c-0.2,0-0.4,0.1-0.6,0c-0.2,0-0.4-0.1-0.6-0.1c-0.1,0-0.3-0.1-0.6-0.2s-0.6-0.2-1-0.4c-0.3-0.1-0.7-0.3-1-0.4
			c-0.3-0.1-0.5-0.2-0.6-0.2c0,0.1-0.1,0.2-0.1,0.4c-0.1,0.2-0.2,0.4-0.3,0.7c-0.1,0.2-0.2,0.5-0.3,0.7c-0.1,0.2-0.1,0.3-0.2,0.4
			c0.5,0.3,0.9,0.5,1.4,0.7c0.5,0.2,0.9,0.4,1.4,0.6c0.6,0.2,1.1,0.4,1.7,0.7c0.6,0.2,1.2,0.4,1.7,0.6c0.2,0.1,0.4,0.2,0.6,0.3
			c0.2,0.1,0.3,0.3,0.4,0.5c0,0.1,0,0.3-0.1,0.5c-0.1,0.2-0.1,0.5-0.2,0.7c-0.1,0.3-0.2,0.5-0.3,0.7c-0.1,0.2-0.2,0.4-0.2,0.5
			c-0.2,0.5-0.4,1-0.5,1.5c-0.1,0.5-0.3,1-0.4,1.5c0,0.1-0.1,0.2-0.1,0.2s-0.1,0.2-0.1,0.2c-0.1,0.1-0.2,0.2-0.4,0.2
			c-0.2,0-0.3,0-0.4,0c-0.3-0.1-0.7-0.2-1-0.3C123.7,111.1,123.4,110.9,123.1,110.8z M123.9,96.2c0.1,0,0.2,0.1,0.3,0.2
			c0.2,0.1,0.3,0.2,0.5,0.3c0.2,0.1,0.3,0.2,0.5,0.2c0.2,0.1,0.3,0.1,0.3,0.1c0.1,0,0.2,0,0.3-0.2c0.1-0.1,0.1-0.2,0-0.3
			c-0.1,0-0.1-0.1-0.3-0.1c-0.1,0-0.3-0.1-0.4-0.1s-0.3-0.1-0.5-0.1c-0.1,0-0.2-0.1-0.3-0.1c0,0-0.1,0-0.2-0.1s-0.1-0.1-0.2-0.1
			c-0.1,0-0.1,0-0.2-0.1c-0.1,0-0.1,0-0.2-0.1c-0.1-0.1-0.2-0.1-0.3,0.1c-0.1,0.1-0.1,0.2,0,0.2c0,0,0.1,0.1,0.2,0.1
			C123.8,96.2,123.9,96.2,123.9,96.2z M131.4,89.4c0,0.1,0.1,0.1,0.3,0.1c0.2,0,0.3-0.1,0.3-0.2c0-0.2,0-0.3-0.1-0.4
			c-0.1-0.1-0.3-0.2-0.4-0.2c-0.1,0-0.3-0.1-0.4-0.1c-0.1,0-0.2-0.1-0.3-0.1c-0.2-0.1-0.3-0.1-0.5-0.2c-0.2-0.1-0.3-0.2-0.5-0.2
			c-0.2-0.1-0.3-0.1-0.3-0.2c-0.1-0.1-0.2-0.1-0.3-0.2c-0.1,0-0.2-0.1-0.3-0.1c-0.1,0-0.3-0.1-0.5-0.2c-0.2-0.1-0.4-0.1-0.5-0.1
			c-0.1,0.1-0.2,0.1-0.2,0.2c0,0.1,0.1,0.2,0.2,0.3c0.2,0.1,0.4,0.2,0.6,0.3c0.2,0,0.5,0.1,0.7,0.2c0.1,0,0.3,0.1,0.6,0.2
			c0.2,0.1,0.5,0.2,0.7,0.3c0.3,0.1,0.5,0.2,0.7,0.3C131.2,89.2,131.3,89.3,131.4,89.4z M126.4,97c-0.2,0.2-0.2,0.3-0.1,0.5
			c0.1,0.1,0.3,0.1,0.4-0.2c0.1-0.1,0-0.2-0.1-0.3C126.6,96.9,126.5,96.9,126.4,97z M132.8,89.4c-0.1,0-0.2,0-0.2,0.1
			c0,0.1-0.1,0.1,0,0.2c0,0.1,0,0.1,0.1,0.2c0,0.1,0.1,0.1,0.2,0c0.2,0,0.3-0.1,0.3-0.3C133.1,89.5,133,89.4,132.8,89.4z"/>
		<path class="st3" d="M18.2,100c-0.1-0.1-0.4-0.1-0.7-0.2c-0.3-0.1-0.7-0.2-1-0.3c-0.4-0.1-0.7-0.2-1-0.4c-0.3-0.1-0.5-0.2-0.6-0.3
			c-0.1-0.1-0.2-0.2-0.2-0.4c0-0.2,0-0.4,0-0.5c0.2-0.6,0.4-1.1,0.6-1.7c0.2-0.5,0.4-1.1,0.6-1.7c0.2-0.6,0.4-1.1,0.6-1.6
			c0.2-0.5,0.5-1.1,0.7-1.6c0.1-0.3,0.3-0.8,0.6-1.5c0.3-0.8,0.6-1.6,0.9-2.5c0.3-0.9,0.6-1.7,0.9-2.5c0.3-0.8,0.5-1.3,0.5-1.5
			c0.1-0.3,0.3-0.8,0.5-1.5c0.2-0.7,0.5-1.4,0.7-2.2c0.3-0.8,0.5-1.5,0.8-2.1c0.3-0.7,0.6-1.1,0.8-1.4c0.1-0.1,0.3-0.3,0.5-0.3
			c0.2-0.1,0.4-0.1,0.6-0.2c0.2,0,0.4,0.1,0.8,0.1c0.4,0.1,0.7,0.2,1.1,0.3c0.4,0.1,0.8,0.3,1.1,0.4c0.3,0.1,0.6,0.2,0.7,0.3
			c0.2,0.1,0.6,0.2,1.1,0.5s1.1,0.5,1.7,0.7s1.2,0.5,1.7,0.8c0.5,0.2,0.9,0.4,1.1,0.5c0.6,0.4,1.2,0.8,1.8,1.4
			c0.5,0.5,1,1.1,1.3,1.8c0.4,0.8,0.6,1.6,0.6,2.4c0,0.9,0,1.7-0.1,2.6c-0.1,0.9-0.3,1.8-0.5,2.7c-0.2,0.9-0.6,1.8-1.1,2.6
			c-0.4,0.6-0.9,1.2-1.4,1.8c-0.5,0.6-1.1,1.1-1.8,1.5c-0.3,0.2-0.6,0.4-0.9,0.6c-0.3,0.2-0.7,0.3-1,0.4c-0.5,0.2-1.1,0.3-1.7,0.3
			c-0.6,0-1.2,0-1.7,0c-0.7-0.1-1.3-0.2-2-0.5c-0.7-0.3-1.3-0.6-1.9-0.9c-0.2,0.7-0.4,1.3-0.6,2c-0.2,0.7-0.4,1.3-0.5,2
			c0,0.2-0.1,0.4-0.1,0.5c0,0.2-0.1,0.3-0.3,0.5c-0.2,0.2-0.4,0.3-0.6,0.3c-0.3,0-0.5,0-0.8-0.1c-0.3-0.1-0.6-0.3-1-0.5
			S18.5,100.2,18.2,100z M16.6,98.5c0.1,0,0.3,0.1,0.6,0.3c0.3,0.2,0.5,0.3,0.6,0.3c0.2,0.1,0.3,0,0.3-0.1c0-0.2,0-0.3-0.2-0.5
			c-0.1-0.1-0.2-0.2-0.5-0.2c-0.3-0.1-0.5-0.1-0.6-0.2c0,0-0.1,0-0.1-0.1c0,0-0.1-0.1-0.1-0.1c-0.1-0.1-0.1-0.2,0-0.4
			c0.1-0.2,0.2-0.4,0.2-0.5c0-0.3,0-0.5,0.1-0.7c0.1-0.2,0.1-0.5,0.2-0.7c0.1-0.1,0.1-0.2,0-0.3c-0.1-0.1-0.2-0.1-0.3,0
			c-0.1,0.1-0.1,0.3-0.2,0.5c-0.1,0.3-0.1,0.4-0.2,0.5c0,0.2-0.1,0.4-0.3,0.6c-0.1,0.2-0.2,0.4-0.3,0.6c0,0.2,0.1,0.4,0.2,0.6
			C16.2,98.3,16.4,98.4,16.6,98.5z M25.1,90.5c0.4,0.2,0.9,0.3,1.4,0.4c0.5,0,1-0.1,1.4-0.3c0.7-0.4,1.3-1,1.8-1.8
			c0.4-0.8,0.6-1.6,0.6-2.5c0-0.4-0.1-0.9-0.2-1.3s-0.3-0.8-0.6-1.2c-0.2-0.2-0.4-0.4-0.7-0.6c-0.3-0.1-0.6-0.3-0.9-0.4
			c0,0.1-0.1,0.2-0.1,0.4s-0.1,0.4-0.2,0.6c-0.1,0.2-0.2,0.4-0.2,0.6S27.1,85,27.1,85c-0.1,0.2-0.2,0.6-0.4,1.1
			c-0.2,0.5-0.4,1.1-0.6,1.7c-0.2,0.6-0.4,1.2-0.6,1.7C25.3,90,25.1,90.4,25.1,90.5z M35.4,84.3c0,0.1,0.1,0.2,0.2,0.2
			c0.1,0,0.2,0,0.2-0.1c0.1-0.1,0-0.4,0-0.6c-0.1-0.3-0.2-0.5-0.2-0.6c0,0-0.1-0.1-0.1-0.2c-0.1-0.1-0.1-0.2-0.2-0.3
			c-0.1-0.1-0.1-0.2-0.2-0.3c-0.1-0.1-0.1-0.2-0.1-0.2c0-0.1-0.2-0.2-0.3-0.4s-0.3-0.3-0.3-0.3c-0.1-0.1-0.2-0.2-0.3-0.2
			c-0.1-0.1-0.2-0.2-0.3-0.3c-0.1-0.2-0.3-0.4-0.5-0.5c-0.2-0.1-0.5-0.2-0.7-0.3c-0.1,0-0.2-0.1-0.4-0.2c-0.2-0.1-0.3-0.2-0.4-0.2
			c-0.1,0-0.2-0.1-0.4-0.1c-0.2,0-0.3,0-0.4,0c-0.1,0.1-0.1,0.1-0.1,0.2c0,0.1,0.1,0.2,0.2,0.2c0.3,0,0.6,0.2,0.8,0.4
			c0.2,0.2,0.5,0.4,0.8,0.6c0,0,0.1,0.1,0.3,0.1c0.2,0.1,0.2,0.1,0.3,0.2c0,0,0.1,0.1,0.2,0.2c0.1,0.1,0.2,0.1,0.2,0.1
			c0,0,0.1,0,0.2,0.1s0.2,0.1,0.2,0.1c0.1,0.1,0.3,0.2,0.4,0.4c0.2,0.2,0.3,0.4,0.5,0.6c0.1,0.2,0.3,0.5,0.4,0.7
			c0.1,0.2,0.2,0.4,0.2,0.6C35.4,84.2,35.4,84.3,35.4,84.3z M35.4,85.3c-0.1,0.1-0.1,0.2-0.1,0.3c0,0.1,0.1,0.2,0.2,0.2
			c0.1,0,0.2,0.1,0.3,0c0.1,0,0.1-0.1,0.2-0.2l0-0.1c0-0.2,0-0.3-0.1-0.4C35.6,85.1,35.5,85.1,35.4,85.3z"/>
		<path class="st3" d="M43.2,109.5c-1-0.2-2-0.5-3-1c-1-0.5-1.8-1.1-2.6-1.8c-0.4-0.4-0.8-0.9-1.2-1.4c-0.4-0.5-0.6-1-0.8-1.6
			c-0.3-0.8-0.4-1.6-0.4-2.5c0-0.8,0.1-1.7,0.2-2.5c0.2-1.2,0.5-2.3,0.8-3.5c0.4-1.1,0.8-2.3,1.2-3.4c0.4-1,0.9-2,1.3-3
			c0.4-1,0.9-2,1.4-2.9c0.1-0.1,0.2-0.3,0.3-0.5c0.1-0.2,0.2-0.5,0.4-0.7c0.1-0.3,0.3-0.5,0.4-0.7c0.1-0.2,0.3-0.3,0.4-0.4
			c0.1-0.1,0.3-0.1,0.5-0.1c0.2,0,0.4,0.1,0.6,0.1c0.2,0.1,0.4,0.1,0.6,0.2c0.2,0.1,0.4,0.1,0.5,0.2c0.5,0.2,1,0.3,1.5,0.4
			c0.5,0.1,0.9,0.4,1.3,0.7c0.1,0.1,0.3,0.2,0.5,0.3c0.2,0,0.3,0.1,0.5,0.2c0.2,0.1,0.3,0.2,0.3,0.3c0,0.1,0,0.3-0.1,0.5
			c-0.1,0.2-0.2,0.4-0.3,0.6c-0.1,0.2-0.2,0.4-0.3,0.6c-0.4,0.7-0.8,1.5-1.1,2.2c-0.3,0.8-0.6,1.5-0.9,2.3c-0.3,0.7-0.6,1.4-0.8,2.1
			c-0.3,0.7-0.5,1.4-0.7,2.1c-0.1,0.5-0.3,0.9-0.4,1.4c-0.1,0.5-0.2,0.9-0.2,1.4c0,0.3,0.1,0.7,0.3,1c0.2,0.3,0.4,0.6,0.7,0.8
			c0.3,0.2,0.6,0.4,0.9,0.5c0.3,0.1,0.7,0.1,1,0.1c0.4-0.1,0.7-0.2,1-0.5c0.3-0.3,0.6-0.5,0.8-0.8c0.4-0.5,0.7-1,1-1.6
			c0.3-0.6,0.5-1.2,0.8-1.7c0.6-1.4,1.1-2.8,1.6-4.2c0.5-1.4,0.8-2.8,0.9-4.3c0-0.4,0.2-0.6,0.6-0.7c0.4-0.1,0.8,0,1.2,0.1
			c0.4,0.1,0.9,0.2,1.3,0.3c0.4,0.1,0.8,0.2,1.3,0.4c0.3,0.1,0.5,0.2,0.8,0.4c0.3,0.1,0.5,0.3,0.7,0.4c0.1,0.1,0.2,0.2,0.3,0.2
			c0.1,0.1,0.1,0.2,0.1,0.3c-0.2,2.1-0.6,4.1-1.2,6.1c-0.6,2-1.3,3.9-2.2,5.8c-0.5,0.9-1,1.7-1.5,2.5c-0.6,0.8-1.1,1.6-1.8,2.3
			c-0.5,0.6-1,1.1-1.7,1.6c-0.6,0.5-1.3,0.8-2,1.1c-0.7,0.3-1.5,0.4-2.3,0.5C44.7,109.7,43.9,109.6,43.2,109.5z M56.4,92.9
			c0,0.1,0.1,0.2,0.2,0.2c0.1,0,0.2,0,0.2-0.1c0-0.1,0.1-0.2,0.1-0.3c0-0.2,0.1-0.3,0.1-0.5c0-0.2,0.1-0.3,0.1-0.5
			c0-0.1,0-0.3,0.1-0.3c0-0.2,0-0.4,0-0.8c0-0.3,0-0.6-0.1-0.7c-0.1-0.2-0.4-0.4-0.8-0.6c-0.4-0.2-0.7-0.3-0.9-0.4
			c-0.1,0-0.1,0-0.2,0s-0.1,0-0.2,0c-0.1,0-0.3-0.1-0.5-0.1c-0.2-0.1-0.4-0.1-0.4,0c-0.1,0-0.1,0.1-0.1,0.2c0,0.1,0.1,0.1,0.1,0.2
			c0.2,0.2,0.5,0.3,0.8,0.3c0.3,0.1,0.5,0.1,0.8,0.2c0.1,0,0.3,0.1,0.6,0.2c0.2,0.1,0.4,0.2,0.5,0.3c0,0.1,0.1,0.2,0.1,0.3
			c0,0.2,0,0.3,0,0.5c0,0.2,0,0.3-0.1,0.5c0,0.2,0,0.3,0,0.4c0,0.2,0,0.3,0,0.5c0,0.1,0,0.3-0.1,0.4c0,0.1-0.1,0.1-0.1,0.2
			C56.4,92.8,56.4,92.8,56.4,92.9z"/>
		<path class="st3" d="M54.8,113.9c-0.1,0-0.3-0.1-0.5-0.1c-0.2,0-0.4-0.1-0.6-0.2c-0.2-0.1-0.4-0.1-0.6-0.2
			c-0.2-0.1-0.3-0.2-0.3-0.3c-0.1-0.1-0.1-0.3-0.1-0.5c0-0.2,0.1-0.5,0.2-0.7c0.1-0.2,0.2-0.5,0.3-0.7c0.1-0.2,0.2-0.4,0.2-0.6
			c0.2-0.5,0.4-1,0.6-1.6c0.2-0.5,0.4-1.1,0.5-1.6c0-0.1,0.1-0.2,0.1-0.4c0-0.2,0.1-0.4,0.2-0.6c0.1-0.2,0.1-0.4,0.2-0.6
			c0.1-0.2,0.1-0.3,0.2-0.4c0.1-0.2,0.3-0.3,0.6-0.5c0.3-0.2,0.6-0.4,1-0.5c0.3-0.2,0.7-0.3,1-0.5c0.3-0.1,0.6-0.3,0.7-0.3
			c0.2-0.1,0.5-0.2,0.9-0.4s0.9-0.4,1.5-0.6c0.6-0.2,1.2-0.5,1.8-0.8c0.6-0.3,1.2-0.5,1.8-0.8c0.6-0.2,1-0.4,1.5-0.6
			c0.4-0.2,0.7-0.3,0.9-0.4c-0.6-0.1-1.2-0.3-1.8-0.4c-0.6-0.2-1.2-0.3-1.7-0.6c-0.1,0-0.3-0.1-0.5-0.2c-0.3-0.1-0.5-0.2-0.8-0.3
			c-0.3-0.1-0.6-0.2-0.9-0.3c-0.3-0.1-0.5-0.2-0.5-0.2c-0.2,0-0.4-0.1-0.6-0.1c-0.2,0-0.4-0.1-0.6-0.1c-0.2,0-0.3-0.1-0.4-0.2
			c-0.1-0.1-0.1-0.2-0.1-0.4c0-0.1,0.1-0.3,0.3-0.7c0.1-0.4,0.3-0.8,0.4-1.2c0.2-0.4,0.3-0.8,0.5-1.2c0.2-0.4,0.2-0.6,0.3-0.7
			c0-0.1,0.1-0.2,0.1-0.4s0.1-0.4,0.2-0.7c0.1-0.2,0.1-0.5,0.2-0.7c0.1-0.2,0.1-0.4,0.1-0.4c0.1-0.1,0.2-0.2,0.3-0.3
			c0.1-0.1,0.2-0.2,0.4-0.2c0.1-0.1,0.3-0.1,0.4-0.1c0.1,0,0.3,0.1,0.5,0.1c0.6,0.2,1.1,0.4,1.7,0.6c0.5,0.2,1.1,0.5,1.6,0.7
			c0.5,0.2,1.1,0.5,1.7,0.7c0.6,0.2,1.1,0.4,1.7,0.5c1.1,0.2,2.1,0.5,3.2,0.8c1,0.3,2.1,0.7,3.2,1c0.2,0.1,0.5,0.2,0.7,0.3
			c0.2,0.1,0.4,0.3,0.5,0.5c0,0.1,0,0.3,0,0.5c-0.1,0.2-0.1,0.4-0.2,0.7c-0.1,0.2-0.2,0.5-0.3,0.7c-0.1,0.2-0.2,0.4-0.3,0.5
			c-0.2,0.4-0.4,0.8-0.6,1.2c-0.2,0.4-0.3,0.8-0.4,1.3c0,0.1-0.1,0.3-0.2,0.7c-0.1,0.4-0.2,0.6-0.2,0.7c0,0.1-0.2,0.2-0.3,0.3
			c-0.2,0.1-0.4,0.2-0.6,0.3s-0.4,0.2-0.7,0.2c-0.2,0.1-0.4,0.1-0.5,0.1c-1.9,0.6-3.8,1.3-5.7,2c-1.9,0.7-3.6,1.7-5.2,2.9
			c1.2,0.5,2.5,1,3.7,1.5c1.2,0.5,2.4,1,3.7,1.4c0.1,0,0.2,0.1,0.5,0.2c0.3,0.1,0.5,0.1,0.5,0.1c0.2,0.1,0.4,0.2,0.5,0.4
			c0.1,0.2,0.1,0.4,0,0.6c-0.4,0.8-0.7,1.6-1,2.4c-0.3,0.8-0.6,1.6-0.8,2.4c0,0.2-0.1,0.4-0.2,0.6c-0.1,0.2-0.2,0.4-0.3,0.5
			c-0.1,0.2-0.3,0.3-0.5,0.3c-0.1,0-0.3,0.1-0.4,0c-0.1,0-0.3-0.1-0.4-0.1c-0.3-0.1-0.7-0.3-1.4-0.5c-0.6-0.3-1.4-0.5-2.2-0.9
			c-0.8-0.3-1.7-0.7-2.6-1c-0.9-0.4-1.8-0.7-2.6-1c-0.8-0.3-1.6-0.6-2.2-0.8C55.6,114.1,55.1,114,54.8,113.9z M63.1,110.7
			c0.1,0,0.2,0.1,0.3,0.1c0.1,0.1,0.3,0.1,0.4,0.2c0.1,0.1,0.3,0.1,0.4,0.2c0.1,0,0.2,0.1,0.3,0.1c0.1,0,0.2,0.1,0.5,0.2
			c0.3,0.1,0.4,0.2,0.5,0.2c0.1,0,0.2,0,0.4,0.1c0.1,0,0.2,0.1,0.3,0.1c0,0,0.2,0.1,0.4,0.2c0.2,0.1,0.3,0.2,0.4,0.2
			c0.1,0.1,0.3,0,0.4-0.1c0.2-0.1,0.2-0.2,0-0.4c-0.1-0.2-0.3-0.3-0.5-0.3c0,0-0.1,0-0.3-0.1c-0.1,0-0.3-0.1-0.4-0.1
			c-0.2,0-0.3-0.1-0.4-0.1c-0.1,0-0.2,0-0.2-0.1c-0.1,0-0.2-0.1-0.5-0.2s-0.5-0.2-0.7-0.3s-0.5-0.2-0.7-0.3s-0.4-0.1-0.4-0.1
			c-0.1,0-0.2,0-0.3,0.1C62.9,110.5,63,110.6,63.1,110.7z M68.1,112.7c0.2,0.1,0.4,0.1,0.6,0c0.2-0.1,0.2-0.2,0.1-0.4
			c-0.1-0.2-0.3-0.2-0.5-0.2c-0.2,0-0.2,0.1-0.3,0.2C67.9,112.5,68,112.6,68.1,112.7z"/>
		<path class="st3" d="M72.3,120.6c-0.1,0-0.3-0.1-0.5-0.1c-0.2,0-0.4-0.1-0.6-0.2s-0.4-0.1-0.6-0.2c-0.2-0.1-0.3-0.2-0.3-0.3
			c-0.1-0.1-0.1-0.3-0.1-0.5c0-0.2,0.1-0.5,0.2-0.7c0.1-0.2,0.2-0.5,0.3-0.7c0.1-0.2,0.2-0.4,0.2-0.6c0.2-0.5,0.4-1,0.6-1.6
			c0.2-0.5,0.4-1.1,0.5-1.6c0-0.1,0.1-0.2,0.1-0.4c0-0.2,0.1-0.4,0.2-0.6c0.1-0.2,0.1-0.4,0.2-0.6c0.1-0.2,0.1-0.3,0.2-0.4
			c0.1-0.2,0.3-0.3,0.6-0.5c0.3-0.2,0.6-0.4,1-0.5c0.3-0.2,0.7-0.3,1-0.5c0.3-0.1,0.6-0.3,0.7-0.3c0.2-0.1,0.5-0.2,0.9-0.4
			c0.4-0.2,0.9-0.4,1.5-0.6c0.6-0.2,1.2-0.5,1.8-0.8c0.6-0.3,1.2-0.5,1.8-0.8c0.6-0.2,1-0.4,1.5-0.6c0.4-0.2,0.7-0.3,0.9-0.4
			c-0.6-0.1-1.2-0.3-1.8-0.4c-0.6-0.2-1.2-0.3-1.7-0.6c-0.1,0-0.3-0.1-0.5-0.2c-0.3-0.1-0.5-0.2-0.8-0.3c-0.3-0.1-0.6-0.2-0.9-0.3
			c-0.3-0.1-0.5-0.2-0.5-0.2c-0.2,0-0.4-0.1-0.6-0.1c-0.2,0-0.4-0.1-0.6-0.1c-0.2,0-0.3-0.1-0.4-0.2c-0.1-0.1-0.1-0.2-0.1-0.4
			c0-0.1,0.1-0.3,0.3-0.7c0.1-0.4,0.3-0.8,0.4-1.2c0.2-0.4,0.3-0.8,0.5-1.2c0.2-0.4,0.2-0.6,0.3-0.7c0-0.1,0.1-0.2,0.1-0.4
			c0.1-0.2,0.1-0.4,0.2-0.7c0.1-0.2,0.1-0.5,0.2-0.7c0.1-0.2,0.1-0.4,0.1-0.4c0.1-0.1,0.2-0.2,0.3-0.3c0.1-0.1,0.2-0.2,0.4-0.2
			c0.1-0.1,0.3-0.1,0.4-0.1c0.1,0,0.3,0.1,0.5,0.1c0.6,0.2,1.1,0.4,1.7,0.6c0.5,0.2,1.1,0.5,1.6,0.7c0.5,0.2,1.1,0.5,1.7,0.7
			c0.6,0.2,1.1,0.4,1.7,0.5c1.1,0.2,2.1,0.5,3.2,0.8c1,0.3,2.1,0.7,3.2,1c0.2,0.1,0.5,0.2,0.7,0.3s0.4,0.3,0.5,0.5
			c0,0.1,0,0.3,0,0.5c-0.1,0.2-0.1,0.4-0.2,0.7c-0.1,0.2-0.2,0.5-0.3,0.7c-0.1,0.2-0.2,0.4-0.3,0.5c-0.2,0.4-0.4,0.8-0.6,1.2
			c-0.2,0.4-0.3,0.8-0.4,1.3c0,0.1-0.1,0.3-0.2,0.7c-0.1,0.4-0.2,0.6-0.2,0.7c0,0.1-0.2,0.2-0.3,0.3c-0.2,0.1-0.4,0.2-0.6,0.3
			s-0.4,0.2-0.7,0.2c-0.2,0.1-0.4,0.1-0.5,0.1c-1.9,0.6-3.8,1.3-5.7,2c-1.9,0.7-3.6,1.7-5.2,2.9c1.2,0.5,2.5,1,3.7,1.5
			c1.2,0.5,2.4,1,3.7,1.4c0.1,0,0.2,0.1,0.5,0.2c0.3,0.1,0.5,0.1,0.5,0.1c0.2,0.1,0.4,0.2,0.5,0.4c0.1,0.2,0.1,0.4,0,0.6
			c-0.4,0.8-0.7,1.6-1,2.4c-0.3,0.8-0.6,1.6-0.8,2.4c0,0.2-0.1,0.4-0.2,0.6c-0.1,0.2-0.2,0.4-0.3,0.5c-0.1,0.2-0.3,0.3-0.5,0.3
			c-0.1,0-0.3,0.1-0.4,0c-0.1,0-0.3-0.1-0.4-0.1c-0.3-0.1-0.7-0.3-1.4-0.5c-0.6-0.3-1.4-0.5-2.2-0.9c-0.8-0.3-1.7-0.7-2.6-1
			c-0.9-0.4-1.8-0.7-2.6-1c-0.8-0.3-1.6-0.6-2.2-0.8C73.1,120.8,72.6,120.6,72.3,120.6z M80.6,117.3c0.1,0,0.2,0.1,0.3,0.1
			c0.1,0.1,0.3,0.1,0.4,0.2c0.1,0.1,0.3,0.1,0.4,0.2c0.1,0,0.2,0.1,0.3,0.1c0.1,0,0.2,0.1,0.5,0.2c0.3,0.1,0.4,0.2,0.5,0.2
			c0.1,0,0.2,0,0.4,0.1c0.1,0,0.2,0.1,0.3,0.1c0,0,0.2,0.1,0.4,0.2c0.2,0.1,0.3,0.2,0.4,0.2c0.1,0.1,0.3,0,0.4-0.1
			c0.2-0.1,0.2-0.2,0-0.4c-0.1-0.2-0.3-0.3-0.5-0.3c0,0-0.1,0-0.3-0.1c-0.1,0-0.3-0.1-0.4-0.1c-0.2,0-0.3-0.1-0.4-0.1
			c-0.1,0-0.2,0-0.2-0.1c-0.1,0-0.2-0.1-0.5-0.2c-0.2-0.1-0.5-0.2-0.7-0.3c-0.2-0.1-0.5-0.2-0.7-0.3c-0.2-0.1-0.4-0.1-0.4-0.1
			c-0.1,0-0.2,0-0.3,0.1C80.5,117.1,80.5,117.2,80.6,117.3z M85.6,119.3c0.2,0.1,0.4,0.1,0.6,0c0.2-0.1,0.2-0.2,0.1-0.4
			c-0.1-0.2-0.3-0.2-0.5-0.2c-0.2,0-0.2,0.1-0.3,0.2C85.4,119.1,85.5,119.2,85.6,119.3z"/>
		<path class="st3" d="M96.2,129.9c-0.9-0.3-1.8-0.6-2.7-0.8c-0.9-0.2-1.8-0.6-2.6-1c-0.4-0.2-0.8-0.4-1.2-0.7s-0.7-0.6-0.9-1
			c-0.2-0.3-0.2-0.6-0.3-1c0-0.4,0-0.7,0.1-1.1c0-0.2,0.1-0.5,0.2-0.9c0.1-0.4,0.3-0.8,0.5-1.3s0.3-0.9,0.5-1.3
			c0.2-0.4,0.3-0.7,0.3-0.8c0.4-1.1,0.9-2.2,1.3-3.2c0.4-1.1,0.9-2.1,1.3-3.2c0.5-1.2,1-2.5,1.5-3.7c0.5-1.2,1.1-2.4,1.7-3.6
			c0.1-0.3,0.3-0.6,0.4-0.9c0.1-0.3,0.2-0.6,0.3-0.9c0.1-0.1,0.2-0.3,0.3-0.5c0.1-0.1,0.2-0.2,0.3-0.2c0.1,0,0.3,0,0.5,0.1
			c0.2,0.1,0.3,0.1,0.5,0.2c0.2,0.1,0.3,0.1,0.4,0.2c0.1,0,0.4,0.2,0.8,0.3c0.4,0.2,0.8,0.3,1.3,0.5c0.5,0.2,0.9,0.3,1.3,0.5
			c0.4,0.1,0.7,0.2,0.8,0.3c0.1,0,0.2,0.1,0.3,0.2c0.1,0.1,0.2,0.2,0.2,0.3c0,0.1,0,0.4-0.1,0.7c-0.1,0.3-0.2,0.6-0.2,0.7
			c0,0.1-0.1,0.2-0.2,0.5c-0.1,0.2-0.3,0.5-0.4,0.8c-0.1,0.3-0.3,0.5-0.4,0.8c-0.1,0.2-0.2,0.4-0.2,0.5c-0.9,1.8-1.7,3.6-2.6,5.3
			c-0.8,1.8-1.6,3.6-2.3,5.4c-0.1,0.1-0.1,0.3-0.3,0.6c-0.1,0.3-0.2,0.6-0.1,0.7c0.1,0.1,0.2,0.1,0.5,0.2c0.2,0.1,0.5,0.2,0.8,0.3
			c0.3,0.1,0.5,0.2,0.8,0.3c0.3,0.1,0.4,0.2,0.5,0.2c0.5,0.2,0.9,0.4,1.4,0.6c0.5,0.2,1,0.3,1.4,0.4c0.2,0.1,0.4,0.1,0.6,0.2
			c0.2,0.1,0.4,0.2,0.5,0.3c0.1,0.1,0.1,0.2,0,0.4c0,0.1-0.1,0.3-0.1,0.4c-0.2,0.5-0.4,1.1-0.6,1.6c-0.2,0.5-0.4,1.1-0.5,1.6
			c0,0.1-0.1,0.3-0.1,0.5c0,0.2-0.1,0.4-0.2,0.6s-0.1,0.4-0.2,0.6c-0.1,0.2-0.1,0.3-0.2,0.4c-0.1,0.1-0.2,0.1-0.3,0.2
			c-0.1,0-0.3,0-0.4,0c-0.2,0-0.4-0.1-0.9-0.3c-0.4-0.1-0.9-0.3-1.3-0.5c-0.5-0.2-0.9-0.3-1.3-0.5C96.6,130,96.3,129.9,96.2,129.9z
			 M100.2,110.5c-0.1,0.1,0,0.2,0,0.3s0.2,0.1,0.3,0c0,0,0.1-0.1,0.1-0.1c0.1-0.1,0.1-0.1,0.1-0.1c0,0,0,0,0.1-0.1
			c0-0.1,0-0.1,0.1-0.1c0.2,0,0.3-0.2,0.5-0.6c0.1-0.3,0.2-0.6,0.2-0.8c0-0.2,0.1-0.4,0.3-0.6c0.2-0.2,0.3-0.4,0.3-0.6
			c0-0.1,0-0.3-0.1-0.5c-0.1-0.2-0.1-0.4-0.1-0.5c-0.1-0.1-0.2-0.3-0.3-0.3c-0.2-0.1-0.3-0.1-0.5-0.2c-0.3-0.1-0.6-0.2-0.9-0.3
			c-0.3-0.1-0.6-0.2-0.9-0.2c-0.1-0.1-0.2-0.1-0.2-0.1c-0.1,0-0.1,0.1-0.1,0.1c0,0.1,0,0.1,0,0.2c0,0.1,0.1,0.1,0.2,0.1
			c0.3,0,0.6,0.2,1,0.3c0.3,0.2,0.6,0.3,0.9,0.4c0.1,0,0.1,0,0.2,0.1c0.1,0,0.1,0.1,0.2,0.2c0,0.1,0.1,0.2,0.1,0.3
			c0,0.2,0.1,0.3,0,0.3c0,0.1-0.1,0.2-0.2,0.4c-0.1,0.2-0.2,0.3-0.2,0.4c0,0.1-0.1,0.3-0.2,0.6c-0.1,0.3-0.2,0.5-0.2,0.6
			c0,0-0.1,0.1-0.1,0.3c-0.1,0.2-0.1,0.3-0.1,0.3c0,0.1,0,0.2-0.1,0.2C100.3,110.4,100.2,110.4,100.2,110.5z M99.4,112.3
			c0,0.1,0,0.2,0.1,0.3c0.1,0,0.2,0,0.2,0c0,0,0.1-0.1,0.2-0.2c0.1-0.1,0.1-0.1,0.1-0.2c0.1-0.1,0.1-0.2-0.1-0.3
			c-0.1-0.1-0.2-0.1-0.3,0c0,0-0.1,0.1-0.1,0.2C99.4,112.2,99.4,112.2,99.4,112.3z"/>
		<path class="st3" d="M113.4,136.4c-1.3-0.5-2.5-1-3.8-1.5c-1.2-0.5-2.5-1-3.8-1.5c0,0-0.1-0.1-0.3-0.1c-0.2-0.1-0.3-0.1-0.5-0.2
			c-0.2-0.1-0.3-0.1-0.5-0.2c-0.2-0.1-0.3-0.1-0.3-0.1c-0.2-0.1-0.3-0.1-0.5-0.2c-0.2-0.1-0.3-0.2-0.4-0.4c-0.2-0.3-0.2-0.6-0.2-0.9
			c0-0.3,0.1-0.6,0.2-1c0.2-0.8,0.4-1.5,0.7-2.3c0.3-0.7,0.6-1.5,0.9-2.2c0,0,0-0.1,0-0.2c0-0.1,0-0.2,0-0.2c0.1-0.5,0.3-1,0.5-1.4
			c0.2-0.4,0.4-0.9,0.6-1.4c0.4-0.9,0.8-1.8,1.1-2.8s0.6-1.9,1-2.8c0.1-0.1,0.2-0.4,0.4-0.8c0.2-0.4,0.4-0.8,0.6-1.3
			c0.2-0.5,0.4-0.9,0.6-1.3s0.3-0.7,0.4-0.8c0.2-0.5,0.4-0.9,0.7-1.4c0.2-0.5,0.5-0.9,0.8-1.3c0.1-0.2,0.3-0.3,0.5-0.4
			c0.2-0.1,0.4-0.2,0.6-0.3c0.2,0,0.4,0,0.6,0c0.2,0.1,0.4,0.1,0.5,0.2c0.1,0,0.4,0.2,0.7,0.3c0.4,0.2,0.8,0.3,1.2,0.6
			c0.4,0.2,0.8,0.4,1.2,0.6c0.4,0.2,0.6,0.3,0.7,0.4c0.7,0.4,1.5,0.7,2.3,1c0.8,0.3,1.6,0.6,2.4,0.8c0.1,0,0.2,0.1,0.5,0.2
			c0.2,0.1,0.5,0.2,0.7,0.3c0.2,0.1,0.5,0.2,0.7,0.3c0.2,0.1,0.4,0.2,0.5,0.3c0.1,0.1,0.2,0.2,0.3,0.3c0.1,0.1,0.1,0.3,0.1,0.4
			c0,0.1,0,0.2-0.1,0.4c-0.1,0.2-0.1,0.3-0.2,0.5c-0.1,0.2-0.2,0.4-0.3,0.5c-0.1,0.2-0.2,0.3-0.2,0.4c-0.2,0.4-0.3,0.7-0.5,1.1
			c-0.1,0.4-0.3,0.8-0.4,1.1c-0.1,0.2-0.1,0.4-0.2,0.6c-0.1,0.2-0.2,0.3-0.3,0.5c-0.1,0.2-0.3,0.3-0.5,0.3c-0.2,0-0.5,0-0.8-0.1
			c-0.3-0.1-0.7-0.2-1.1-0.4c-0.4-0.2-0.7-0.3-1.1-0.5c-0.3-0.2-0.6-0.3-0.8-0.4c-0.4-0.2-0.8-0.4-1.2-0.6c-0.4-0.2-0.9-0.4-1.3-0.5
			c-0.2-0.1-0.5-0.2-0.7-0.2c-0.2,0-0.5-0.1-0.7-0.2c0,0.1-0.1,0.3-0.2,0.5c-0.1,0.3-0.2,0.5-0.3,0.8c-0.1,0.3-0.2,0.6-0.3,0.8
			c-0.1,0.3-0.2,0.4-0.2,0.5c0.3,0.1,0.5,0.2,0.8,0.4c0.3,0.1,0.5,0.2,0.8,0.3c0.1,0,0.2,0.1,0.5,0.2s0.4,0.2,0.7,0.3
			c0.2,0.1,0.4,0.2,0.6,0.3c0.2,0.1,0.3,0.2,0.4,0.2c0.1,0.1,0.2,0.2,0.2,0.4c0.1,0.2,0.1,0.3,0,0.4c0,0.1-0.1,0.4-0.2,0.7
			c-0.1,0.3-0.2,0.7-0.3,1c-0.1,0.4-0.2,0.7-0.3,1c-0.1,0.3-0.2,0.5-0.2,0.6c-0.1,0.2-0.2,0.3-0.3,0.4c-0.1,0.1-0.3,0.2-0.4,0.3
			c-0.2,0.1-0.4,0.1-0.6,0c-0.2,0-0.4-0.1-0.6-0.1c-0.1,0-0.3-0.1-0.6-0.2c-0.3-0.1-0.6-0.2-1-0.4s-0.7-0.3-1-0.4
			c-0.3-0.1-0.5-0.2-0.6-0.2c0,0.1-0.1,0.2-0.2,0.4c-0.1,0.2-0.2,0.4-0.3,0.7c-0.1,0.2-0.2,0.5-0.3,0.7c-0.1,0.2-0.1,0.3-0.2,0.4
			c0.5,0.3,0.9,0.5,1.4,0.7c0.5,0.2,0.9,0.4,1.4,0.6c0.6,0.2,1.1,0.4,1.7,0.7c0.6,0.2,1.2,0.4,1.7,0.6c0.2,0.1,0.4,0.2,0.6,0.3
			c0.2,0.1,0.3,0.3,0.4,0.5c0,0.1,0,0.3-0.1,0.5c-0.1,0.2-0.1,0.5-0.2,0.7c-0.1,0.3-0.2,0.5-0.3,0.7c-0.1,0.2-0.2,0.4-0.2,0.5
			c-0.2,0.5-0.3,1-0.5,1.5s-0.3,1-0.4,1.5c0,0.1-0.1,0.2-0.1,0.2c0,0.1-0.1,0.2-0.1,0.2c-0.1,0.1-0.2,0.2-0.4,0.2
			c-0.2,0-0.3,0-0.4,0c-0.3-0.1-0.7-0.2-1-0.3C114.1,136.6,113.8,136.5,113.4,136.4z M114.2,121.8c0.1,0,0.2,0.1,0.3,0.2
			c0.2,0.1,0.3,0.2,0.5,0.3c0.2,0.1,0.3,0.2,0.5,0.2c0.2,0.1,0.3,0.1,0.3,0.1c0.1,0,0.2,0,0.3-0.2c0.1-0.1,0.1-0.2,0-0.3
			c-0.1,0-0.1-0.1-0.3-0.1c-0.1,0-0.3-0.1-0.4-0.1s-0.3-0.1-0.5-0.1c-0.1,0-0.2-0.1-0.3-0.1c0,0-0.1,0-0.2-0.1
			c-0.1-0.1-0.1-0.1-0.2-0.1c-0.1,0-0.1,0-0.2-0.1c-0.1,0-0.1,0-0.2-0.1c-0.1-0.1-0.2-0.1-0.3,0.1c-0.1,0.1-0.1,0.2,0,0.2
			c0,0,0.1,0.1,0.2,0.1C114.1,121.7,114.2,121.8,114.2,121.8z M121.7,115c0,0.1,0.1,0.1,0.3,0.1c0.2,0,0.3-0.1,0.3-0.2
			c0-0.2,0-0.3-0.1-0.4c-0.1-0.1-0.3-0.2-0.4-0.2c-0.1,0-0.3-0.1-0.4-0.1c-0.1,0-0.2-0.1-0.3-0.1c-0.2-0.1-0.3-0.1-0.5-0.2
			c-0.2-0.1-0.3-0.2-0.5-0.2c-0.2-0.1-0.3-0.1-0.3-0.2c-0.1-0.1-0.2-0.1-0.3-0.2c-0.1,0-0.2-0.1-0.3-0.1c-0.1,0-0.3-0.1-0.5-0.2
			c-0.2-0.1-0.4-0.1-0.5-0.1c-0.1,0.1-0.2,0.1-0.2,0.2c0,0.1,0.1,0.2,0.1,0.3c0.2,0.1,0.4,0.2,0.6,0.3c0.2,0,0.5,0.1,0.7,0.2
			c0.1,0,0.3,0.1,0.6,0.2c0.2,0.1,0.5,0.2,0.7,0.3c0.3,0.1,0.5,0.2,0.7,0.3C121.5,114.7,121.7,114.9,121.7,115z M116.7,122.6
			c-0.2,0.2-0.2,0.3-0.1,0.5c0.1,0.1,0.3,0.1,0.4-0.2c0.1-0.1,0-0.2-0.1-0.3C116.9,122.5,116.8,122.5,116.7,122.6z M123.1,115
			c-0.1,0-0.2,0-0.2,0.1c0,0.1-0.1,0.1,0,0.2c0,0.1,0,0.1,0.1,0.2c0,0.1,0.1,0.1,0.2,0c0.2,0,0.3-0.2,0.3-0.3
			C123.4,115.1,123.3,115,123.1,115z"/>
		<path class="st3" d="M92.3,130.6c-0.7-0.2-1.5-0.4-2.2-0.7c-0.7-0.3-1.4-0.7-2-1.1c-0.1-0.1-0.3-0.3-0.3-0.5
			c-0.1-0.1-0.1-0.3-0.2-0.5c-0.1-0.2-0.1-0.4-0.1-0.5c0-0.1,0-0.2,0-0.3c0-0.1,0-0.2,0-0.3c0.1-0.1,0.2-0.2,0.3-0.2
			c0.1,0,0.2,0,0.3,0.2c0,0.1,0,0.1,0,0.1c0,0,0,0.1,0.1,0.1l0,0.1c0,0,0,0.1,0.1,0.1c0.1,0.3,0.3,0.5,0.5,0.7
			c0.1,0.1,0.2,0.2,0.4,0.3c0.2,0.1,0.4,0.2,0.6,0.3c0.2,0.1,0.4,0.2,0.6,0.3c0.2,0.1,0.3,0.1,0.4,0.2c0.3,0.1,0.6,0.2,0.9,0.3
			c0.3,0.1,0.6,0.2,0.9,0.2c0.1,0,0.2,0.1,0.3,0.1c0.1,0.1,0.2,0.1,0.3,0.2c0.2,0.1,0.4,0.1,0.6,0.2c0.2,0.1,0.4,0.1,0.6,0.2
			c0.1,0,0.2,0.1,0.2,0.3c0,0.2,0,0.3-0.2,0.3c-0.1,0.1-0.4,0-0.7-0.1c-0.3-0.1-0.6-0.2-0.7-0.2c-0.1,0-0.2,0-0.3,0
			C92.5,130.6,92.4,130.6,92.3,130.6z"/>
		<path class="st3" d="M105.3,134.6c-0.3-0.1-0.6-0.2-0.9-0.2c-0.3-0.1-0.6-0.2-0.9-0.3c-0.3-0.1-0.5-0.3-0.7-0.6
			c-0.1-0.2-0.1-0.4,0-0.6c0.1-0.2,0.3-0.2,0.5-0.1c0.1,0.1,0.4,0.2,0.7,0.4c0.4,0.2,0.7,0.3,1.2,0.5c0.4,0.2,0.8,0.3,1.2,0.5
			c0.4,0.2,0.6,0.3,0.8,0.3c0.2,0.1,0.3,0.2,0.2,0.4c-0.1,0.2-0.2,0.2-0.4,0.2c-0.2-0.1-0.5-0.2-0.8-0.3
			C105.8,134.7,105.6,134.7,105.3,134.6z"/>
		<path class="st3" d="M41.3,110.7c-0.1,0-0.2,0-0.4-0.1c-0.2-0.1-0.3-0.2-0.4-0.2c-0.4-0.2-0.7-0.3-1-0.4c-0.3-0.1-0.7-0.3-1-0.5
			c-0.1,0-0.2-0.1-0.4-0.2c-0.2-0.1-0.4-0.2-0.7-0.4c-0.2-0.1-0.5-0.3-0.7-0.4c-0.2-0.1-0.3-0.2-0.4-0.3c-0.3-0.2-0.5-0.5-0.7-0.9
			c-0.1-0.2-0.1-0.3-0.2-0.5c0-0.2-0.1-0.4-0.1-0.5c-0.1-0.2,0-0.3,0.1-0.5c0.2-0.1,0.3-0.1,0.5,0c0.3,0.3,0.6,0.6,0.9,1
			c0.3,0.4,0.6,0.7,0.9,1c0.4,0.5,1,0.9,1.6,1.2s1.3,0.6,1.9,0.9c0,0,0.1,0.1,0.2,0.1c0.1,0.1,0.2,0.1,0.2,0.2
			c0.1,0.1,0.1,0.2,0,0.4C41.5,110.7,41.4,110.7,41.3,110.7z"/>
		<path class="st3" d="M37.9,83c-0.1,0.2-0.3,0.3-0.5,0.3c-0.2-0.1-0.3-0.2-0.2-0.5c0,0,0-0.1,0-0.1c0-0.1,0-0.1,0-0.1
			c-0.1-0.3-0.2-0.6-0.2-0.9s-0.2-0.6-0.4-0.8c-0.5-0.9-1.3-1.5-2.2-1.7c-0.2-0.1-0.5-0.2-0.9-0.4c-0.3-0.2-0.6-0.4-0.6-0.6
			c-0.1-0.2,0-0.4,0.1-0.6c0.1-0.2,0.3-0.2,0.5-0.2c0.1,0,0.3,0.1,0.5,0.2c0.2,0.1,0.4,0.2,0.5,0.3c0.3,0.2,0.6,0.4,0.9,0.7
			c0.3,0.3,0.6,0.5,0.9,0.8c0.1,0.1,0.2,0.2,0.3,0.4c0.1,0.2,0.3,0.4,0.4,0.6c0.1,0.2,0.3,0.4,0.4,0.6c0.1,0.2,0.2,0.3,0.3,0.4
			c0.1,0.3,0.2,0.5,0.3,0.8C38.1,82.4,38.1,82.7,37.9,83z"/>
		<path class="st3" d="M38.3,79c-0.9,0-1.9,0-2.8,0c-0.9-0.1-1.8-0.3-2.7-0.7c-0.1,0-0.2-0.1-0.4-0.2c-0.2-0.1-0.4-0.2-0.4-0.3
			c-0.1-0.1-0.2-0.3-0.1-0.5c0.1-0.2,0.2-0.3,0.4-0.3c0.1,0,0.2,0,0.3,0.1c0.1,0,0.2,0.1,0.3,0.1c0.4,0.1,0.9,0.3,1.3,0.5
			c0.4,0.2,0.9,0.3,1.3,0.5c0.4,0.1,0.8,0.2,1.3,0.2c0.4,0,0.9,0,1.3,0.1c0,0,0.1,0,0.2,0c0.1,0,0.2,0,0.2,0
			c0.2,0.1,0.2,0.2,0.2,0.4C38.7,78.9,38.5,79,38.3,79z"/>
		<path class="st3" d="M64.3,90.9c-0.3-0.1-0.6-0.3-0.9-0.4c-0.2-0.1-0.3-0.2-0.5-0.4c-0.1-0.1-0.2-0.3-0.3-0.5c0-0.2,0-0.3,0.1-0.4
			c0.1-0.1,0.3-0.1,0.4-0.1c0.1,0,0.2,0.1,0.3,0.2c0.1,0.1,0.2,0.1,0.4,0.2c0,0,0.2,0.1,0.4,0.1c0.2,0.1,0.3,0.1,0.4,0.1
			c0.2,0.1,0.3,0.2,0.4,0.2c0.4,0.3,0.9,0.5,1.3,0.7c0.5,0.2,0.9,0.4,1.4,0.6c0.2,0.1,0.3,0.2,0.4,0.5c0,0.2,0,0.3-0.2,0.4
			c-0.2,0.1-0.3,0-0.4-0.2c-0.4-0.2-0.8-0.3-1.2-0.4c-0.4-0.1-0.8-0.3-1.2-0.4c0,0-0.2-0.1-0.4-0.1C64.5,91,64.4,91,64.3,90.9z"/>
		<path class="st3" d="M81.8,97.6c-0.3-0.1-0.6-0.3-0.9-0.4c-0.2-0.1-0.3-0.2-0.5-0.4c-0.1-0.1-0.2-0.3-0.3-0.5c0-0.2,0-0.3,0.1-0.4
			c0.1-0.1,0.3-0.1,0.4-0.1c0.1,0,0.2,0.1,0.3,0.2c0.1,0.1,0.2,0.1,0.4,0.2c0,0,0.2,0.1,0.4,0.1c0.2,0.1,0.3,0.1,0.4,0.1
			c0.2,0.1,0.3,0.2,0.4,0.2c0.4,0.3,0.9,0.5,1.3,0.7c0.5,0.2,0.9,0.4,1.4,0.6c0.2,0.1,0.3,0.2,0.4,0.5c0,0.2,0,0.3-0.2,0.4
			c-0.2,0.1-0.3,0-0.4-0.2c-0.4-0.2-0.8-0.3-1.2-0.4c-0.4-0.1-0.8-0.3-1.2-0.4c0,0-0.2-0.1-0.4-0.1C82,97.6,81.9,97.6,81.8,97.6z"/>
		<path class="st3" d="M99,103c-0.3-0.1-0.6-0.2-0.9-0.2c-0.3-0.1-0.6-0.2-0.9-0.3c-0.3-0.1-0.5-0.3-0.7-0.6c-0.1-0.2-0.1-0.4,0-0.6
			c0.1-0.2,0.3-0.2,0.5-0.1c0.1,0.1,0.4,0.2,0.7,0.4c0.4,0.2,0.7,0.3,1.2,0.5c0.4,0.2,0.8,0.3,1.2,0.5c0.4,0.2,0.6,0.3,0.8,0.3
			c0.2,0.1,0.3,0.2,0.2,0.4c-0.1,0.2-0.2,0.2-0.4,0.2c-0.2-0.1-0.5-0.2-0.8-0.3C99.5,103.1,99.3,103.1,99,103z"/>
		<path class="st3" d="M114.9,109.1c-0.3-0.1-0.6-0.2-0.9-0.2c-0.3-0.1-0.6-0.2-0.9-0.3c-0.3-0.1-0.5-0.3-0.7-0.6
			c-0.1-0.2-0.1-0.4,0-0.6c0.1-0.2,0.3-0.2,0.5-0.1c0.1,0.1,0.4,0.2,0.7,0.4c0.4,0.2,0.7,0.3,1.2,0.5c0.4,0.2,0.8,0.3,1.2,0.5
			c0.4,0.2,0.6,0.3,0.8,0.3c0.2,0.1,0.3,0.2,0.2,0.4s-0.2,0.2-0.4,0.2c-0.2-0.1-0.5-0.2-0.8-0.3
			C115.5,109.2,115.2,109.1,114.9,109.1z"/>
		<path class="st3" d="M81.7,67.9c0,0.1,0,0.2-0.1,0.3c-0.1,0.1-0.2,0.1-0.3,0.1c-0.1,0-0.1-0.1-0.2-0.1c0-0.1-0.1-0.1-0.1-0.1
			c-0.4-0.3-0.9-0.5-1.4-0.6c-0.5-0.2-0.9-0.3-1.4-0.4c-0.1,0-0.2-0.1-0.3-0.1c-0.1,0-0.2,0-0.3-0.1c-0.2-0.1-0.3-0.2-0.5-0.2
			c-0.1-0.1-0.3-0.1-0.5-0.1c-0.4-0.1-0.7-0.2-1-0.5c-0.1-0.1-0.2-0.1-0.3-0.3c-0.1-0.1-0.2-0.2-0.2-0.3c0-0.2,0-0.4,0.2-0.4
			c0.1-0.1,0.3-0.1,0.6,0c0.2,0,0.4,0.1,0.7,0.3c0.2,0.1,0.4,0.3,0.6,0.5c0.1,0.1,0.2,0.2,0.4,0.3c0.2,0.1,0.4,0.2,0.6,0.3
			c0.2,0.1,0.4,0.2,0.7,0.3c0.2,0.1,0.4,0.1,0.5,0.2c0.3,0.1,0.6,0.3,0.9,0.4c0.3,0.1,0.6,0.3,0.9,0.4c0.1,0,0.1,0.1,0.2,0.2
			C81.6,67.8,81.7,67.8,81.7,67.9z"/>
		<path class="st3" d="M98.4,74.3c0,0.1,0,0.2-0.1,0.3c-0.1,0.1-0.2,0.1-0.3,0.1c-0.1,0-0.1-0.1-0.2-0.1c0-0.1-0.1-0.1-0.1-0.1
			c-0.4-0.3-0.9-0.5-1.4-0.6c-0.5-0.2-0.9-0.3-1.4-0.4c-0.1,0-0.2-0.1-0.3-0.1c-0.1,0-0.2,0-0.3-0.1c-0.2-0.1-0.3-0.2-0.5-0.2
			c-0.1-0.1-0.3-0.1-0.5-0.1c-0.4-0.1-0.7-0.2-1-0.5c-0.1-0.1-0.2-0.1-0.3-0.3c-0.1-0.1-0.2-0.2-0.2-0.3c0-0.2,0-0.4,0.2-0.4
			c0.1-0.1,0.3-0.1,0.6,0c0.2,0,0.4,0.1,0.7,0.3c0.2,0.1,0.4,0.3,0.6,0.5c0.1,0.1,0.2,0.2,0.4,0.3c0.2,0.1,0.4,0.2,0.6,0.3
			c0.2,0.1,0.4,0.2,0.7,0.3c0.2,0.1,0.4,0.1,0.5,0.2c0.3,0.1,0.6,0.3,0.9,0.4c0.3,0.1,0.6,0.3,0.9,0.4c0.1,0,0.1,0.1,0.2,0.2
			C98.4,74.1,98.4,74.2,98.4,74.3z"/>
		<path class="st3" d="M32,54.8c-0.1,0.1-0.3,0.2-0.5,0.1c-0.2-0.1-0.2-0.3-0.2-0.4c0.1-0.2,0.2-0.3,0.3-0.5
			c0.1-0.1,0.2-0.3,0.4-0.4c0-0.1,0.1-0.1,0.1-0.2c0-0.1,0-0.1,0.1-0.2c0.1-0.2,0.2-0.3,0.4-0.3c0.2-0.1,0.3-0.1,0.5-0.2
			c0.2-0.1,0.5-0.3,0.8-0.5c0.1-0.1,0.3-0.2,0.6-0.3c0.3-0.1,0.6-0.2,1-0.3c0.3-0.1,0.7-0.2,1-0.3c0.3-0.1,0.5-0.1,0.7-0.2
			c0.1,0,0.2,0,0.4-0.1c0.2,0,0.4-0.1,0.6-0.1c0.2,0,0.4,0,0.6,0c0.2,0,0.3,0,0.4,0c0.1,0,0.2,0,0.3,0.1c0.1,0,0.2,0.1,0.2,0.2
			c0.1,0.1,0.1,0.3,0,0.4c-0.1,0.1-0.2,0.2-0.4,0.2c-0.6,0-1.2,0-1.8,0.1c-0.6,0.1-1.2,0.2-1.7,0.5c-0.1,0-0.2,0.1-0.4,0.2
			c-0.2,0.1-0.4,0.2-0.7,0.3c-0.2,0.1-0.5,0.3-0.7,0.4c-0.2,0.1-0.4,0.2-0.5,0.2c-0.1,0-0.2,0.1-0.4,0.3C33,53.9,32.9,54,32.8,54
			c-0.1,0-0.2,0.2-0.4,0.3C32.2,54.5,32.1,54.7,32,54.8z"/>
		<path class="st0" d="M63.7,74.8c-0.1,0-0.2,0-0.2,0.1c-0.1,0.1-0.1,0.1-0.1,0.2c0,0.1,0,0.2,0.1,0.3c0.1,0.2,0.1,0.3,0.2,0.3
			s0.2,0,0.3-0.1c0.1-0.1,0.1-0.2,0.2-0.3c0-0.1,0-0.2-0.2-0.4C63.9,74.9,63.9,74.8,63.7,74.8z"/>
		<path class="st0" d="M64.3,72.8c-0.1,0.4-0.2,0.6-0.4,0.8c-0.1,0.1-0.1,0.2-0.1,0.3c0,0.1,0.1,0.2,0.1,0.2c0.1,0,0.1,0.1,0.2,0.1
			c0.1,0,0.2,0,0.3-0.1c0-0.1,0.1-0.1,0.1-0.2c0.2-0.6,0.4-1.1,0.6-1.7l-0.7-0.2C64.5,72.2,64.4,72.6,64.3,72.8z"/>
		<path class="st0" d="M65.7,70c0.1-0.7,0.1-1.5,0.1-2.2c0-0.7-0.1-1.4-0.2-2.2c0-0.1-0.1-0.3-0.1-0.4c-0.1-0.1-0.1-0.2-0.2-0.3
			c-0.1-0.1-0.1-0.1-0.2-0.1c-0.1,0-0.2,0-0.2,0.1c-0.1,0-0.1,0.1-0.1,0.2c0,0.1,0,0.2,0,0.2c0.1,0.2,0.2,0.3,0.2,0.4
			c0,0.1,0.1,0.4,0.1,0.8c0,0.4,0.1,0.7,0.1,1.1c0,0.4,0,0.8,0,1.1c0,0.4,0,0.6,0,0.8c0,0.2-0.1,0.5-0.2,0.9c0,0,0,0.1,0,0.1
			l0.7,0.3C65.6,70.5,65.7,70.3,65.7,70z"/>
		<path class="st0" d="M64.6,71.9l0.7,0.2c0-0.1,0-0.1,0.1-0.2c0.1-0.4,0.2-0.8,0.3-1.2l-0.7-0.3c-0.1,0.4-0.2,0.7-0.3,1.1
			C64.6,71.7,64.6,71.8,64.6,71.9z"/>
	</g>
</g>
</svg>
