<svg id="Слой_1" data-name="Слой 1" xmlns="http://www.w3.org/2000/svg" viewBox="0 0 400 400"><defs><style>.cls-1{fill:#fff5df;}.cls-2{fill:#f2ca19;}.cls-3{fill:#f8ab21;}.cls-4{fill:#ed6928;}.cls-5{fill:#feca1c;}</style></defs><path class="cls-1" d="M127.33,287.25c-.32,0-.32.32-.65.32v.65c0,.32.33.32.65.64s.65.65,1,.33a1,1,0,0,1,.65-.33c0-.32.32-.64,0-1a.69.69,0,0,0-.65-.64C128,287.25,127.65,286.92,127.33,287.25Z"/><path class="cls-1" d="M127,281.42v3.24c0,.32.32.32.64.32h.65c.33,0,.33-.32.65-.64v-5.5h-2.27C126.68,279.81,127,280.78,127,281.42Z"/><path class="cls-1" d="M128,273,126,267.19a26,26,0,0,0-2.59-5.17c-.32-.33-.32-.65-.65-1s-.64-.65-1-.65c-.32-.32-.32-.32-.64-.32s-.33.32-.65.32a1,1,0,0,0-.32.65c0,.32,0,.32.32.64l1,1a5.39,5.39,0,0,1,1,1.95c.32,1,1,1.94,1.29,2.91s1,1.94,1.3,2.91a12.57,12.57,0,0,1,.64,1.94,15,15,0,0,0,.65,2.59v.32h1.94A6.37,6.37,0,0,1,128,273Z"/><path class="cls-1" d="M126.68,278.84h1.95v-.65c0-1.29-.33-2.26-.33-3.56h-1.94c0,1,.32,1.94.32,3.24Z"/><path class="cls-2" d="M80.75,298.24h0v1.94h.33A4,4,0,0,1,80.75,298.24Z"/><path class="cls-3" d="M128.63,284v.65c0,.32-.33.32-.65.65h-.65c-.32,0-.32-.33-.65-.33,0-.32-.32-.32,0-.64a6.61,6.61,0,0,0,0-2.59,7.21,7.21,0,0,0-.32-2.59H114.07a9.9,9.9,0,0,1-1.29,3.24,37.63,37.63,0,0,1-1.94,3.55c-1,1.62-2,3.24-2.92,4.53a22.5,22.5,0,0,1-3.55,4.21c-1,1-1.94,2.26-2.91,3.23h28.46l1-4.85a47,47,0,0,0,.65-11.65c0-1-.33-1.94-.33-2.58H128.3A9.22,9.22,0,0,1,128.63,284Zm.32,3.88v1c0,.33-.32.33-.65.33a1.17,1.17,0,0,1-1-.33.7.7,0,0,1-.65-.64v-.65c0-.32.33-.32.65-.32h1A.69.69,0,0,1,129,287.89Z"/><path class="cls-3" d="M80.75,298.24H95a30.18,30.18,0,0,1,5.17-5.82,42.77,42.77,0,0,0,6.47-6.79,80.93,80.93,0,0,0,4.53-6.79H83.67A42.18,42.18,0,0,0,82.05,285a49.2,49.2,0,0,0-1,9.71,4.57,4.57,0,0,0-.33,3.55Z"/><path class="cls-4" d="M113.42,271.07a28.52,28.52,0,0,0,.33-7.43,27.8,27.8,0,0,1,1,7.43V275H126v-.33c-.33-1-.33-1.94-.65-2.59a12.22,12.22,0,0,0-.65-1.94,11.24,11.24,0,0,0-1.29-2.91,3.63,3.63,0,0,0-1-2.58,5.39,5.39,0,0,0-1-1.95l-1-1c-.32,0-.32-.32-.32-.64s0-.33.32-.65.32-.32.65-.32.32,0,.64.32.65.32,1,.65.65.64.65,1a39.61,39.61,0,0,1,2.59,5.17L128,273c0,.64.32,1.29.32,1.94h2.59l-1-3.89a45.33,45.33,0,0,0-4.85-9.7,20.27,20.27,0,0,0-4.53-4.53,22.82,22.82,0,0,0-5.82-2.58,24,24,0,0,0-4.85-.33l-4.86,1a24.74,24.74,0,0,0-5.82,2.91A32.54,32.54,0,0,0,94,262a34.39,34.39,0,0,0-4.53,5.17,31.81,31.81,0,0,0-3.56,5.5c-.32.65-.65,1.62-1,2.27h27.49A16.79,16.79,0,0,0,113.42,271.07Z"/><path class="cls-4" d="M110.84,278.84c.32-.33.32-.65.64-1,.33-1,1-1.94,1.3-2.91H85.28a19.69,19.69,0,0,0-1.61,3.88Z"/><path class="cls-4" d="M114.39,278.84h12.29v-1c0-1-.32-2.27-.32-3.24H115a13.43,13.43,0,0,1-.65,3.56Z"/><path class="cls-4" d="M128.63,278.51v.65h2.91c-.33-1.29-.33-2.59-.65-3.88H128.3C128.3,276.25,128.63,277.22,128.63,278.51Z"/><path class="cls-2" d="M98.22,304.39a20.74,20.74,0,0,0-1.29,6.15,19.08,19.08,0,0,0,.64,6.14,4.65,4.65,0,0,0,.65,1.94l1,1.94a2.54,2.54,0,0,0,1.3,1.3c.64.32,1,.64,1.61.64a40.1,40.1,0,0,0,6.15-.64,20.76,20.76,0,0,0,5.82-1.94,26,26,0,0,0,6.79-4.86,32.57,32.57,0,0,0,5.18-6.47,30.37,30.37,0,0,0,3.23-7.43c0-.33.33-.65.33-1H100.16A16.59,16.59,0,0,0,98.22,304.39Z"/><path class="cls-2" d="M83.34,309.89a36.58,36.58,0,0,0,6.15,10.35c.32.32.64.65,1,.65h1a.71.71,0,0,0,.65-.65,1.17,1.17,0,0,0-.33-1,13.18,13.18,0,0,1-1.62-5.82,19.06,19.06,0,0,1,.33-6.15,39,39,0,0,1,2.59-6.47H80.43C81.4,303.42,82.05,306.65,83.34,309.89Z"/><path class="cls-2" d="M94.66,298.24H80.43a4.12,4.12,0,0,0,.32,1.94H93.37c.32-.32.32-1,.65-1.29S94.66,298.57,94.66,298.24Z"/><path class="cls-2" d="M100.81,299.21c-.32.33-.32.65-.65.65h29.76c.32-.65.32-1.29.65-1.94H102.1Z"/><path class="cls-1" d="M159.32,315.49c-.2,0-.2.19-.39.19v.38c0,.19.19.19.39.39s.38.38.57.19a.62.62,0,0,1,.39-.19c0-.2.19-.39,0-.58a.41.41,0,0,0-.39-.38C159.7,315.49,159.51,315.29,159.32,315.49Z"/><path class="cls-1" d="M159.12,312V314c0,.19.2.19.39.19h.38c.2,0,.2-.19.39-.38v-3.27h-1.35C158.93,311.06,159.12,311.64,159.12,312Z"/><path class="cls-1" d="M159.7,307l-1.15-3.46a15.28,15.28,0,0,0-1.54-3.08c-.19-.19-.19-.38-.38-.58s-.39-.38-.58-.38c-.19-.19-.19-.19-.39-.19s-.19.19-.38.19a.59.59,0,0,0-.19.38c0,.2,0,.2.19.39l.58.58a3.07,3.07,0,0,1,.57,1.15c.2.58.58,1.15.77,1.73s.58,1.15.77,1.73a8.37,8.37,0,0,1,.39,1.15,8.65,8.65,0,0,0,.38,1.54v.19h1.15A3.76,3.76,0,0,1,159.7,307Z"/><path class="cls-1" d="M158.93,310.49h1.16v-.39c0-.77-.2-1.34-.2-2.11h-1.15c0,.57.19,1.15.19,1.92Z"/><path class="cls-2" d="M131.63,322h0v1.15h.2A2.32,2.32,0,0,1,131.63,322Z"/><path class="cls-3" d="M160.09,313.56V314c0,.19-.2.19-.39.38h-.38c-.2,0-.2-.19-.39-.19,0-.19-.19-.19,0-.38a4.06,4.06,0,0,0,0-1.54,4.29,4.29,0,0,0-.19-1.54h-7.31a5.72,5.72,0,0,1-.76,1.92,21.3,21.3,0,0,1-1.16,2.12,30.65,30.65,0,0,1-1.73,2.69,13,13,0,0,1-2.11,2.5c-.58.57-1.16,1.34-1.73,1.92h16.91l.58-2.88a27.79,27.79,0,0,0,.39-6.92c0-.58-.2-1.16-.2-1.54h-1.73A5.44,5.44,0,0,1,160.09,313.56Zm.19,2.31v.58c0,.19-.19.19-.39.19a.7.7,0,0,1-.57-.19.42.42,0,0,1-.39-.39v-.38c0-.19.19-.19.39-.19h.57A.41.41,0,0,1,160.28,315.87Z"/><path class="cls-3" d="M131.63,322h8.46a17.86,17.86,0,0,1,3.08-3.46,25.55,25.55,0,0,0,3.84-4,47.06,47.06,0,0,0,2.69-4H133.36a27.31,27.31,0,0,0-1,3.65,29.63,29.63,0,0,0-.57,5.77,2.7,2.7,0,0,0-.2,2.11Z"/><path class="cls-4" d="M151.05,305.87a17.24,17.24,0,0,0,.19-4.42,16.22,16.22,0,0,1,.58,4.42v2.31h6.73V308a14.2,14.2,0,0,0-.39-1.54,7.46,7.46,0,0,0-.38-1.15,6.76,6.76,0,0,0-.77-1.73,2.15,2.15,0,0,0-.58-1.54,3.07,3.07,0,0,0-.57-1.15l-.58-.58c-.19,0-.19-.19-.19-.39s0-.19.19-.38.19-.19.38-.19.2,0,.39.19.38.19.58.38.38.39.38.58a23.28,23.28,0,0,1,1.54,3.08L159.7,307c0,.38.19.77.19,1.15h1.54l-.58-2.31a26.74,26.74,0,0,0-2.88-5.76,12.07,12.07,0,0,0-2.69-2.7,13.78,13.78,0,0,0-3.46-1.53,14,14,0,0,0-2.88-.2l-2.89.58a14.92,14.92,0,0,0-3.46,1.73,19.6,19.6,0,0,0-3.07,2.5,27.48,27.48,0,0,0-4.81,6.34c-.19.39-.38,1-.58,1.35h16.34A9.78,9.78,0,0,0,151.05,305.87Z"/><path class="cls-4" d="M149.51,310.49c.19-.2.19-.39.39-.58.19-.58.57-1.15.77-1.73H134.33a12,12,0,0,0-1,2.31Z"/><path class="cls-4" d="M151.63,310.49h7.3v-.58c0-.58-.19-1.35-.19-1.92H152a8.23,8.23,0,0,1-.38,2.11Z"/><path class="cls-4" d="M160.09,310.29v.39h1.73c-.2-.77-.2-1.54-.39-2.31h-1.54C159.89,309,160.09,309.53,160.09,310.29Z"/><path class="cls-2" d="M142,325.67a12.59,12.59,0,0,0-.76,3.66,11.35,11.35,0,0,0,.38,3.65,2.74,2.74,0,0,0,.38,1.15l.58,1.16a1.5,1.5,0,0,0,.77.76c.39.2.58.39,1,.39a22.5,22.5,0,0,0,3.65-.39,11.94,11.94,0,0,0,3.46-1.15,15.41,15.41,0,0,0,4-2.88,19.22,19.22,0,0,0,3.08-3.85,17.78,17.78,0,0,0,1.92-4.42c0-.19.19-.38.19-.58H143.17A10.08,10.08,0,0,0,142,325.67Z"/><path class="cls-2" d="M133.17,328.94a21.82,21.82,0,0,0,3.65,6.15c.2.2.39.39.58.39H138a.41.41,0,0,0,.38-.39.7.7,0,0,0-.19-.57,7.82,7.82,0,0,1-1-3.46,11.56,11.56,0,0,1,.19-3.66,23.13,23.13,0,0,1,1.54-3.84h-7.5C132,325.1,132.4,327,133.17,328.94Z"/><path class="cls-2" d="M139.9,322h-8.46a2.43,2.43,0,0,0,.19,1.15h7.5c.19-.19.19-.57.39-.76S139.9,322.21,139.9,322Z"/><path class="cls-2" d="M143.55,322.6c-.19.19-.19.38-.38.38h17.68c.2-.38.2-.77.39-1.15H144.32Z"/><path class="cls-1" d="M223.46,301.3c-.33,0-.33.32-.65.32v.65c0,.32.32.32.65.65s.64.64,1,.32a1,1,0,0,1,.64-.32c0-.33.33-.65,0-1a.69.69,0,0,0-.64-.65C224.1,301.3,223.78,301,223.46,301.3Z"/><path class="cls-1" d="M223.13,295.48v3.23c0,.32.33.32.65.32h.65c.32,0,.32-.32.64-.64v-5.5h-2.26C222.81,293.86,223.13,294.83,223.13,295.48Z"/><path class="cls-1" d="M224.1,287.07l-1.94-5.82a25.3,25.3,0,0,0-2.58-5.18c-.33-.32-.33-.65-.65-1s-.65-.65-1-.65c-.33-.32-.33-.32-.65-.32s-.32.32-.65.32a1,1,0,0,0-.32.65c0,.32,0,.32.32.65l1,1a5.22,5.22,0,0,1,1,1.94c.32,1,1,1.94,1.29,2.91s1,1.94,1.29,2.91a12.22,12.22,0,0,1,.65,1.94,14.13,14.13,0,0,0,.65,2.59v.32h1.94A6.2,6.2,0,0,1,224.1,287.07Z"/><path class="cls-1" d="M222.81,292.89h1.94v-.65c0-1.29-.32-2.26-.32-3.56h-1.94c0,1,.32,1.95.32,3.24Z"/><path class="cls-2" d="M176.88,312.3h0v1.94h.32A4.16,4.16,0,0,1,176.88,312.3Z"/><path class="cls-3" d="M224.75,298.06v.65c0,.32-.32.32-.65.65h-.64c-.33,0-.33-.33-.65-.33,0-.32-.32-.32,0-.64a6.81,6.81,0,0,0,0-2.59,7.21,7.21,0,0,0-.32-2.59H210.2a9.74,9.74,0,0,1-1.3,3.24A36.87,36.87,0,0,1,207,300c-1,1.61-1.94,3.23-2.91,4.52a22.18,22.18,0,0,1-3.56,4.21c-1,1-1.94,2.26-2.91,3.23H226l1-4.85a46.48,46.48,0,0,0,.65-11.64c0-1-.32-1.94-.32-2.59h-2.91A9.32,9.32,0,0,1,224.75,298.06Zm.32,3.89v1c0,.32-.32.32-.64.32a1.19,1.19,0,0,1-1-.32.7.7,0,0,1-.65-.65v-.65c0-.32.32-.32.65-.32h1A.69.69,0,0,1,225.07,302Z"/><path class="cls-3" d="M176.88,312.3h14.23a30.32,30.32,0,0,1,5.18-5.83,43.23,43.23,0,0,0,6.47-6.79c1.61-2.26,3.23-4.53,4.52-6.79H179.79a43.5,43.5,0,0,0-1.62,6.14,50,50,0,0,0-1,9.71,4.63,4.63,0,0,0-.32,3.56Z"/><path class="cls-4" d="M209.55,285.13a28.61,28.61,0,0,0,.32-7.44,27.42,27.42,0,0,1,1,7.44V289h11.32v-.33c-.32-1-.32-1.94-.64-2.58a13,13,0,0,0-.65-1.94,11.59,11.59,0,0,0-1.29-2.91,3.68,3.68,0,0,0-1-2.59,5.22,5.22,0,0,0-1-1.94l-1-1c-.32,0-.32-.33-.32-.65s0-.32.32-.65.33-.32.65-.32.32,0,.65.32.65.33,1,.65.65.65.65,1a37.83,37.83,0,0,1,2.58,5.18l1.94,5.82c0,.64.33,1.29.33,1.94H227l-1-3.88a45.18,45.18,0,0,0-4.85-9.71,20.06,20.06,0,0,0-4.53-4.53,22.82,22.82,0,0,0-5.82-2.58A23.94,23.94,0,0,0,206,268l-4.85,1a24.41,24.41,0,0,0-5.82,2.92,32.46,32.46,0,0,0-5.18,4.2,34.54,34.54,0,0,0-4.53,5.18,31.89,31.89,0,0,0-3.55,5.49c-.33.65-.65,1.62-1,2.27h27.49A17.36,17.36,0,0,0,209.55,285.13Z"/><path class="cls-4" d="M207,292.89c.32-.32.32-.65.65-1,.32-1,1-1.94,1.29-2.91H181.41a19.4,19.4,0,0,0-1.62,3.88Z"/><path class="cls-4" d="M210.52,292.89h12.29v-1c0-1-.32-2.27-.32-3.24H211.17a13.85,13.85,0,0,1-.65,3.56Z"/><path class="cls-4" d="M224.75,292.57v.64h2.91c-.32-1.29-.32-2.58-.65-3.88h-2.58C224.43,290.3,224.75,291.27,224.75,292.57Z"/><path class="cls-2" d="M194.35,318.44a20.82,20.82,0,0,0-1.3,6.15,18.8,18.8,0,0,0,.65,6.14,4.47,4.47,0,0,0,.65,1.94l1,1.94a2.52,2.52,0,0,0,1.29,1.3c.65.32,1,.64,1.62.64a40,40,0,0,0,6.14-.64A20.93,20.93,0,0,0,210.2,334a26.16,26.16,0,0,0,6.79-4.85,32.73,32.73,0,0,0,5.17-6.47,30.63,30.63,0,0,0,3.24-7.44c0-.33.32-.65.32-1H196.29A16.36,16.36,0,0,0,194.35,318.44Z"/><path class="cls-2" d="M179.47,323.94a36.79,36.79,0,0,0,6.14,10.35c.33.32.65.65,1,.65h1a.7.7,0,0,0,.65-.65,1.2,1.2,0,0,0-.32-1,13.18,13.18,0,0,1-1.62-5.82,19.36,19.36,0,0,1,.32-6.15,39,39,0,0,1,2.59-6.47H176.56C177.53,317.47,178.17,320.71,179.47,323.94Z"/><path class="cls-2" d="M190.79,312.3H176.56a4.16,4.16,0,0,0,.32,1.94h12.61c.33-.33.33-1,.65-1.3S190.79,312.62,190.79,312.3Z"/><path class="cls-2" d="M196.93,313.27c-.32.32-.32.64-.64.64H226c.33-.64.33-1.29.65-1.94H198.23Z"/><path class="cls-1" d="M255.44,329.54c-.19,0-.19.19-.38.19v.38c0,.2.19.2.38.39s.39.38.58.19a.59.59,0,0,1,.38-.19c0-.19.2-.39,0-.58a.41.41,0,0,0-.38-.38C255.83,329.54,255.63,329.35,255.44,329.54Z"/><path class="cls-1" d="M255.25,326.08V328c0,.19.19.19.38.19H256c.19,0,.19-.19.38-.38v-3.27h-1.34C255.06,325.12,255.25,325.69,255.25,326.08Z"/><path class="cls-1" d="M255.83,321.08l-1.16-3.46a15.52,15.52,0,0,0-1.53-3.08c-.2-.19-.2-.38-.39-.57s-.38-.39-.58-.39c-.19-.19-.19-.19-.38-.19s-.19.19-.39.19a.6.6,0,0,0-.19.39c0,.19,0,.19.19.38l.58.58a3.05,3.05,0,0,1,.58,1.15c.19.58.58,1.15.77,1.73s.57,1.15.77,1.73a7.84,7.84,0,0,1,.38,1.15,8.06,8.06,0,0,0,.39,1.54v.19H256A3.76,3.76,0,0,1,255.83,321.08Z"/><path class="cls-1" d="M255.06,324.54h1.15v-.39c0-.76-.19-1.34-.19-2.11h-1.15c0,.58.19,1.15.19,1.92Z"/><path class="cls-2" d="M227.76,336.07h0v1.16H228A2.49,2.49,0,0,1,227.76,336.07Z"/><path class="cls-3" d="M256.21,327.61V328c0,.19-.19.19-.38.38h-.39c-.19,0-.19-.19-.38-.19,0-.19-.19-.19,0-.38a4.06,4.06,0,0,0,0-1.54,4.29,4.29,0,0,0-.19-1.54h-7.31a5.52,5.52,0,0,1-.77,1.92,21.36,21.36,0,0,1-1.15,2.12c-.58,1-1.16,1.92-1.73,2.69a13.42,13.42,0,0,1-2.12,2.5c-.57.58-1.15,1.34-1.73,1.92H257l.58-2.88a28.26,28.26,0,0,0,.38-6.92c0-.58-.19-1.16-.19-1.54H256A5.53,5.53,0,0,1,256.21,327.61Zm.19,2.31v.58c0,.19-.19.19-.38.19a.72.72,0,0,1-.58-.19.41.41,0,0,1-.38-.39v-.38c0-.19.19-.19.38-.19H256A.41.41,0,0,1,256.4,329.92Z"/><path class="cls-3" d="M227.76,336.07h8.46a18.15,18.15,0,0,1,3.07-3.46,25.5,25.5,0,0,0,3.85-4c1-1.35,1.92-2.7,2.69-4H229.49a25.87,25.87,0,0,0-1,3.65A29,29,0,0,0,228,334a2.74,2.74,0,0,0-.19,2.11Z"/><path class="cls-4" d="M247.18,319.93a17.33,17.33,0,0,0,.19-4.43,16.64,16.64,0,0,1,.57,4.43v2.3h6.73V322c-.19-.58-.19-1.15-.38-1.54a7.13,7.13,0,0,0-.39-1.15,6.87,6.87,0,0,0-.76-1.73,2.21,2.21,0,0,0-.58-1.54,3.05,3.05,0,0,0-.58-1.15l-.58-.58c-.19,0-.19-.19-.19-.38s0-.2.19-.39.2-.19.39-.19.19,0,.38.19.39.19.58.39.39.38.39.57a23.19,23.19,0,0,1,1.53,3.08l1.16,3.46c0,.38.19.77.19,1.15h1.54l-.58-2.3a27,27,0,0,0-2.88-5.77,11.88,11.88,0,0,0-2.7-2.69,13.32,13.32,0,0,0-3.46-1.54,14.68,14.68,0,0,0-2.88-.19l-2.88.57a14.54,14.54,0,0,0-3.46,1.73,19.23,19.23,0,0,0-3.08,2.5,20.84,20.84,0,0,0-2.69,3.08,18.31,18.31,0,0,0-2.11,3.27c-.2.38-.39,1-.58,1.34H246.6A10.35,10.35,0,0,0,247.18,319.93Z"/><path class="cls-4" d="M245.64,324.54c.19-.19.19-.39.38-.58.19-.57.58-1.15.77-1.73H230.45a11.92,11.92,0,0,0-1,2.31Z"/><path class="cls-4" d="M247.75,324.54h7.31V324c0-.57-.19-1.34-.19-1.92h-6.73a8.17,8.17,0,0,1-.39,2.11Z"/><path class="cls-4" d="M256.21,324.35v.38h1.73c-.19-.77-.19-1.54-.38-2.31H256C256,323,256.21,323.58,256.21,324.35Z"/><path class="cls-2" d="M238.14,339.73a12.54,12.54,0,0,0-.77,3.65,11.08,11.08,0,0,0,.39,3.65,2.7,2.7,0,0,0,.38,1.15l.58,1.16a1.52,1.52,0,0,0,.77.77c.38.19.57.38,1,.38a23.79,23.79,0,0,0,3.65-.38,12.38,12.38,0,0,0,3.46-1.16,15.58,15.58,0,0,0,4-2.88,19.47,19.47,0,0,0,3.07-3.84,18.42,18.42,0,0,0,1.93-4.43c0-.19.19-.38.19-.57h-17.5A9.89,9.89,0,0,0,238.14,339.73Z"/><path class="cls-2" d="M229.3,343a21.65,21.65,0,0,0,3.65,6.16c.19.19.38.38.58.38h.57a.41.41,0,0,0,.39-.38.71.71,0,0,0-.19-.58,7.8,7.8,0,0,1-1-3.46,11.19,11.19,0,0,1,.2-3.65,22.88,22.88,0,0,1,1.53-3.85h-7.49C228.14,339.15,228.53,341.07,229.3,343Z"/><path class="cls-2" d="M236,336.07h-8.46a2.49,2.49,0,0,0,.19,1.16h7.5c.19-.2.19-.58.38-.77S236,336.27,236,336.07Z"/><path class="cls-2" d="M239.68,336.65c-.19.19-.19.38-.39.38H257c.19-.38.19-.76.38-1.15H240.45Z"/><path class="cls-1" d="M319.58,315.35c-.32,0-.32.32-.64.32v.65c0,.32.32.32.64.65s.65.65,1,.32a1,1,0,0,1,.65-.32c0-.33.32-.65,0-1a.69.69,0,0,0-.65-.65C320.23,315.35,319.91,315,319.58,315.35Z"/><path class="cls-1" d="M319.26,309.53v3.23c0,.33.32.33.65.33h.64c.33,0,.33-.33.65-.65v-5.5h-2.26C318.94,307.91,319.26,308.88,319.26,309.53Z"/><path class="cls-1" d="M320.23,301.12l-1.94-5.82a26.11,26.11,0,0,0-2.59-5.18c-.32-.32-.32-.64-.65-1s-.64-.65-1-.65c-.32-.32-.32-.32-.64-.32s-.33.32-.65.32a1,1,0,0,0-.32.65c0,.33,0,.33.32.65l1,1a5.24,5.24,0,0,1,1,1.94c.32,1,1,1.94,1.29,2.91s1,1.94,1.3,2.91a13.42,13.42,0,0,1,.65,1.94,14.55,14.55,0,0,0,.64,2.59v.32h1.94A6.35,6.35,0,0,1,320.23,301.12Z"/><path class="cls-1" d="M318.94,306.94h1.94v-.65c0-1.29-.33-2.26-.33-3.55h-1.94c0,1,.33,1.94.33,3.23Z"/><path class="cls-2" d="M273,326.35h0v1.94h.32A4.14,4.14,0,0,1,273,326.35Z"/><path class="cls-3" d="M320.88,312.12v.64c0,.33-.33.33-.65.65h-.65c-.32,0-.32-.32-.64-.32,0-.33-.33-.33,0-.65a6.8,6.8,0,0,0,0-2.59,7,7,0,0,0-.33-2.59H306.32A9.73,9.73,0,0,1,305,310.5a37.88,37.88,0,0,1-1.94,3.56c-1,1.61-1.94,3.23-2.91,4.53a22.49,22.49,0,0,1-3.56,4.2c-1,1-1.94,2.26-2.91,3.23h28.46l1-4.85a47,47,0,0,0,.65-11.64c0-1-.33-1.94-.33-2.59h-2.91A9.26,9.26,0,0,1,320.88,312.12Zm.32,3.88v1c0,.32-.32.32-.65.32a1.21,1.21,0,0,1-1-.32.7.7,0,0,1-.64-.65v-.65c0-.32.32-.32.64-.32h1A.69.69,0,0,1,321.2,316Z"/><path class="cls-3" d="M273,326.35h14.23a29.6,29.6,0,0,1,5.17-5.82,42.85,42.85,0,0,0,6.47-6.8,79.33,79.33,0,0,0,4.53-6.79H275.92a42.3,42.3,0,0,0-1.62,6.15,49.1,49.1,0,0,0-1,9.7,4.54,4.54,0,0,0-.32,3.56Z"/><path class="cls-4" d="M305.67,299.18a28.59,28.59,0,0,0,.33-7.44,27.82,27.82,0,0,1,1,7.44v3.88h11.32v-.32c-.32-1-.32-1.94-.65-2.59a12.22,12.22,0,0,0-.65-1.94,11.24,11.24,0,0,0-1.29-2.91,3.67,3.67,0,0,0-1-2.59,5.24,5.24,0,0,0-1-1.94l-1-1c-.32,0-.32-.32-.32-.65s0-.32.32-.65.32-.32.65-.32.32,0,.64.32.65.33,1,.65.65.65.65,1a39.1,39.1,0,0,1,2.59,5.18l1.94,5.82c0,.65.32,1.29.32,1.94h2.59l-1-3.88a45.1,45.1,0,0,0-4.85-9.7,20.06,20.06,0,0,0-4.53-4.53,22.87,22.87,0,0,0-5.82-2.59,24.77,24.77,0,0,0-4.85-.32l-4.86,1a24,24,0,0,0-5.82,2.91,32,32,0,0,0-5.17,4.2,34.47,34.47,0,0,0-4.53,5.18,32,32,0,0,0-3.56,5.5c-.32.64-.65,1.61-1,2.26H304.7A16.71,16.71,0,0,0,305.67,299.18Z"/><path class="cls-4" d="M303.09,306.94c.32-.32.32-.65.64-1,.33-1,1-1.94,1.3-2.91h-27.5a20,20,0,0,0-1.61,3.88Z"/><path class="cls-4" d="M306.64,306.94h12.3v-1c0-1-.33-2.26-.33-3.23H307.29a13.43,13.43,0,0,1-.65,3.55Z"/><path class="cls-4" d="M320.88,306.62v.64h2.91c-.33-1.29-.33-2.58-.65-3.88h-2.59C320.55,304.35,320.88,305.32,320.88,306.62Z"/><path class="cls-2" d="M290.47,332.49a21.13,21.13,0,0,0-1.29,6.15,18.8,18.8,0,0,0,.65,6.14,4.67,4.67,0,0,0,.64,2l1,1.94a2.56,2.56,0,0,0,1.3,1.29c.64.32,1,.65,1.61.65a40.12,40.12,0,0,0,6.15-.65,20.45,20.45,0,0,0,5.82-1.94,25.76,25.76,0,0,0,6.79-4.85,32.85,32.85,0,0,0,5.18-6.47,30.44,30.44,0,0,0,3.23-7.44c0-.32.33-.65.33-1H292.41A17.23,17.23,0,0,0,290.47,332.49Z"/><path class="cls-2" d="M275.59,338a36.58,36.58,0,0,0,6.15,10.35c.32.33.65.65,1,.65h1a.7.7,0,0,0,.65-.65,1.18,1.18,0,0,0-.33-1,13.16,13.16,0,0,1-1.61-5.82,19.11,19.11,0,0,1,.32-6.15,38.87,38.87,0,0,1,2.59-6.46H272.68C273.65,331.52,274.3,334.76,275.59,338Z"/><path class="cls-2" d="M286.91,326.35H272.68a4,4,0,0,0,.33,1.94h12.61c.32-.32.32-1,.65-1.29S286.91,326.67,286.91,326.35Z"/><path class="cls-2" d="M293.06,327.32c-.32.32-.32.65-.65.65h29.76c.32-.65.32-1.3.65-2H294.35Z"/><path class="cls-1" d="M351.57,343.59c-.19,0-.19.19-.39.19v.39c0,.19.2.19.39.38s.38.38.57.19a.62.62,0,0,1,.39-.19c0-.19.19-.38,0-.58a.41.41,0,0,0-.39-.38C352,343.59,351.76,343.4,351.57,343.59Z"/><path class="cls-1" d="M351.38,340.13v1.92c0,.19.19.19.38.19h.38c.2,0,.2-.19.39-.38v-3.27h-1.35C351.18,339.17,351.38,339.74,351.38,340.13Z"/><path class="cls-1" d="M352,335.13l-1.15-3.46a15.83,15.83,0,0,0-1.54-3.08c-.19-.19-.19-.38-.38-.57s-.39-.39-.58-.39c-.19-.19-.19-.19-.39-.19s-.19.19-.38.19a.62.62,0,0,0-.19.39c0,.19,0,.19.19.38l.58.58a3.16,3.16,0,0,1,.57,1.15c.2.58.58,1.16.77,1.73s.58,1.16.77,1.73a7.91,7.91,0,0,1,.39,1.16,8.6,8.6,0,0,0,.38,1.53v.2h1.15A3.81,3.81,0,0,1,352,335.13Z"/><path class="cls-1" d="M351.18,338.59h1.16v-.38c0-.77-.2-1.35-.2-2.12H351c0,.58.19,1.16.19,1.92Z"/><path class="cls-2" d="M323.89,350.13h0v1.15h.19A2.47,2.47,0,0,1,323.89,350.13Z"/><path class="cls-3" d="M352.34,341.67v.38c0,.19-.2.19-.39.39h-.38c-.19,0-.19-.2-.39-.2,0-.19-.19-.19,0-.38a3.86,3.86,0,0,0,0-1.54,4.29,4.29,0,0,0-.19-1.54h-7.3a6.09,6.09,0,0,1-.77,1.93,22.25,22.25,0,0,1-1.16,2.11,30.65,30.65,0,0,1-1.73,2.69,13,13,0,0,1-2.11,2.5c-.58.58-1.15,1.35-1.73,1.92h16.92l.57-2.88a27.76,27.76,0,0,0,.39-6.92c0-.58-.2-1.15-.2-1.54h-1.73A5.47,5.47,0,0,1,352.34,341.67Zm.19,2.3v.58c0,.19-.19.19-.39.19a.7.7,0,0,1-.57-.19.42.42,0,0,1-.39-.38v-.39c0-.19.2-.19.39-.19h.57A.41.41,0,0,1,352.53,344Z"/><path class="cls-3" d="M323.89,350.13h8.45a17.89,17.89,0,0,1,3.08-3.46,25.53,25.53,0,0,0,3.84-4,47.35,47.35,0,0,0,2.7-4H325.62a25.92,25.92,0,0,0-1,3.65,29.78,29.78,0,0,0-.57,5.77,2.68,2.68,0,0,0-.19,2.12Z"/><path class="cls-4" d="M343.3,334a16.84,16.84,0,0,0,.19-4.42,16.12,16.12,0,0,1,.58,4.42v2.3h6.73v-.19a15.52,15.52,0,0,0-.39-1.54,7.84,7.84,0,0,0-.38-1.15,6.57,6.57,0,0,0-.77-1.73,2.17,2.17,0,0,0-.58-1.54,3.16,3.16,0,0,0-.57-1.15l-.58-.58c-.19,0-.19-.19-.19-.38s0-.19.19-.39.19-.19.38-.19.2,0,.39.19.38.2.58.39.38.38.38.57a23.91,23.91,0,0,1,1.54,3.08l1.15,3.46c0,.39.19.77.19,1.15h1.54l-.57-2.3a26.61,26.61,0,0,0-2.89-5.77,12,12,0,0,0-2.69-2.69,13.82,13.82,0,0,0-3.46-1.54,14.68,14.68,0,0,0-2.88-.19l-2.89.58a14.53,14.53,0,0,0-3.46,1.73,19,19,0,0,0-3.07,2.49,20.77,20.77,0,0,0-2.69,3.08,19.31,19.31,0,0,0-2.12,3.27c-.19.38-.38,1-.58,1.34h16.34A9.59,9.59,0,0,0,343.3,334Z"/><path class="cls-4" d="M341.76,338.59c.2-.19.2-.38.39-.58.19-.57.57-1.15.77-1.73H326.58a11.32,11.32,0,0,0-1,2.31Z"/><path class="cls-4" d="M343.88,338.59h7.3V338c0-.57-.19-1.34-.19-1.92h-6.73a8.3,8.3,0,0,1-.38,2.12Z"/><path class="cls-4" d="M352.34,338.4v.38h1.73c-.2-.77-.2-1.53-.39-2.3h-1.54C352.14,337.05,352.34,337.63,352.34,338.4Z"/><path class="cls-2" d="M334.27,353.78a12.22,12.22,0,0,0-.77,3.65,11.32,11.32,0,0,0,.38,3.65,2.67,2.67,0,0,0,.39,1.16l.57,1.15a1.52,1.52,0,0,0,.77.77c.39.19.58.38,1,.38a23.92,23.92,0,0,0,3.66-.38,12.46,12.46,0,0,0,3.46-1.15,15.33,15.33,0,0,0,4-2.89,19.17,19.17,0,0,0,3.08-3.84,18.11,18.11,0,0,0,1.92-4.42c0-.2.19-.39.19-.58H335.42A9.71,9.71,0,0,0,334.27,353.78Z"/><path class="cls-2" d="M325.42,357.05a21.75,21.75,0,0,0,3.66,6.15c.19.19.38.38.57.38h.58a.41.41,0,0,0,.38-.38.72.72,0,0,0-.19-.58,7.79,7.79,0,0,1-1-3.46,11.48,11.48,0,0,1,.19-3.65,23.24,23.24,0,0,1,1.54-3.85h-7.5C324.27,353.2,324.65,355.12,325.42,357.05Z"/><path class="cls-2" d="M332.15,350.13h-8.46a2.36,2.36,0,0,0,.2,1.15h7.49c.19-.19.19-.58.39-.77S332.15,350.32,332.15,350.13Z"/><path class="cls-2" d="M335.8,350.7c-.19.19-.19.39-.38.39h17.69c.19-.39.19-.77.38-1.16H336.57Z"/><path class="cls-2" d="M368.19,314.4h0v1.94h.32A4.12,4.12,0,0,1,368.19,314.4Z"/><path class="cls-1" d="M407.58,292.06l-1.94-5.82a24.75,24.75,0,0,0-2.59-5.17c-.32-.33-.32-.65-.64-1s-.65-.65-1-.65c-.33-.33-.33-.33-.65-.33s-.32.33-.65.33a1,1,0,0,0-.32.65c0,.32,0,.32.32.64l1,1a5.17,5.17,0,0,1,1,1.94c.33,1,1,1.94,1.3,2.91s1,1.94,1.29,2.92a11.89,11.89,0,0,1,.65,1.94A14.08,14.08,0,0,0,406,294v.33h1.94A6.22,6.22,0,0,1,407.58,292.06Z"/><path class="cls-3" d="M408.23,303.06v.65c0,.32-.32.32-.65.64h-.64c-.33,0-.33-.32-.65-.32,0-.32-.32-.32,0-.65a6.75,6.75,0,0,0,0-2.58,7.21,7.21,0,0,0-.32-2.59h-12.3a9.55,9.55,0,0,1-1.29,3.23,34.63,34.63,0,0,1-1.94,3.56c-1,1.62-1.94,3.24-2.91,4.53a21.81,21.81,0,0,1-3.56,4.2c-1,1-1.94,2.27-2.91,3.24h28.46l1-4.85a47,47,0,0,0,.65-11.65c0-1-.32-1.94-.32-2.59h-2.91A9.35,9.35,0,0,1,408.23,303.06Zm.32,3.88v1c0,.33-.32.33-.64.33a1.16,1.16,0,0,1-1-.33.69.69,0,0,1-.65-.65v-.64c0-.33.32-.33.65-.33h1A.7.7,0,0,1,408.55,306.94Z"/><path class="cls-3" d="M360.36,317.29h14.23a30.55,30.55,0,0,1,5.18-5.82,44.14,44.14,0,0,0,6.47-6.79c1.61-2.27,3.23-4.53,4.52-6.8H363.27a44,44,0,0,0-1.62,6.15,49.86,49.86,0,0,0-1,9.7,4.64,4.64,0,0,0-.32,3.56Z"/><path class="cls-4" d="M393,290.12a29,29,0,0,0,.32-7.44,27.47,27.47,0,0,1,1,7.44V294h11.32v-.32c-.32-1-.32-1.94-.64-2.59a13.42,13.42,0,0,0-.65-1.94,11.28,11.28,0,0,0-1.3-2.91,3.67,3.67,0,0,0-1-2.59,5.17,5.17,0,0,0-1-1.94l-1-1c-.32,0-.32-.32-.32-.64s0-.33.32-.65.33-.33.65-.33.32,0,.65.33.64.32,1,.65.64.64.64,1a36.18,36.18,0,0,1,2.59,5.17l1.94,5.82c0,.65.33,1.3.33,1.94h2.58l-1-3.88a45.1,45.1,0,0,0-4.85-9.7,19.86,19.86,0,0,0-4.53-4.53,23.22,23.22,0,0,0-5.82-2.59,24.72,24.72,0,0,0-4.85-.32l-4.85,1a24.74,24.74,0,0,0-5.82,2.91,32.52,32.52,0,0,0-5.18,4.21,34.46,34.46,0,0,0-4.53,5.17,33,33,0,0,0-3.56,5.5c-.32.65-.64,1.62-1,2.26h27.5A17.1,17.1,0,0,0,393,290.12Z"/><path class="cls-4" d="M390.44,297.88c.32-.32.32-.64.65-1,.32-1,1-1.94,1.29-2.91H364.89a19.64,19.64,0,0,0-1.62,3.88Z"/><path class="cls-4" d="M394,297.88h12.29v-1c0-1-.32-2.26-.32-3.23H394.65a14,14,0,0,1-.65,3.56Z"/><path class="cls-2" d="M377.83,323.44a20.76,20.76,0,0,0-1.3,6.14,18.83,18.83,0,0,0,.65,6.15,4.51,4.51,0,0,0,.65,1.94l1,1.94a2.46,2.46,0,0,0,1.29,1.29c.65.33,1,.65,1.62.65a38.78,38.78,0,0,0,6.14-.65,20.45,20.45,0,0,0,5.82-1.94,25.81,25.81,0,0,0,6.8-4.85,32.16,32.16,0,0,0,5.17-6.47,30.3,30.3,0,0,0,3.24-7.44c0-.32.32-.64.32-1H379.77A16.59,16.59,0,0,0,377.83,323.44Z"/><path class="cls-2" d="M363,328.94a36.55,36.55,0,0,0,6.14,10.35c.33.32.65.64,1,.64h1a.69.69,0,0,0,.65-.64,1.19,1.19,0,0,0-.32-1,13.22,13.22,0,0,1-1.62-5.83,19.31,19.31,0,0,1,.32-6.14,38.64,38.64,0,0,1,2.59-6.47H360C361,322.47,361.65,325.7,363,328.94Z"/><path class="cls-2" d="M374.27,317.29H360a4.12,4.12,0,0,0,.32,1.94H373c.33-.32.33-1,.65-1.29S374.27,317.62,374.27,317.29Z"/><path class="cls-2" d="M380.41,318.26c-.32.33-.32.65-.64.65h29.75c.33-.65.33-1.29.65-1.94H381.71Z"/><path class="cls-1" d="M34.94,305.32c-.32,0-.32.33-.65.33v.64c0,.33.33.33.65.65s.65.65,1,.32a1,1,0,0,1,.65-.32c0-.32.32-.65,0-1a.71.71,0,0,0-.65-.65C35.59,305.32,35.26,305,34.94,305.32Z"/><path class="cls-1" d="M34.62,299.5v3.24c0,.32.32.32.64.32h.65c.32,0,.32-.32.65-.65v-5.5H34.29C34.29,297.88,34.62,298.86,34.62,299.5Z"/><path class="cls-1" d="M35.59,291.09l-1.94-5.82a25.76,25.76,0,0,0-2.59-5.17c-.32-.33-.32-.65-.65-1s-.64-.64-1-.64c-.32-.33-.32-.33-.64-.33s-.33.33-.65.33a1,1,0,0,0-.33.64c0,.33,0,.33.33.65l1,1a5.32,5.32,0,0,1,1,1.94c.32,1,1,1.94,1.29,2.91s1,1.94,1.3,2.91a12.92,12.92,0,0,1,.64,1.95A15,15,0,0,0,34,293v.33h1.94A6.4,6.4,0,0,1,35.59,291.09Z"/><path class="cls-1" d="M34.29,296.91h1.94v-.64c0-1.3-.32-2.27-.32-3.56H34c0,1,.32,1.94.32,3.23Z"/><path class="cls-3" d="M36.23,302.09v.65c0,.32-.32.32-.64.64h-.65c-.32,0-.32-.32-.65-.32,0-.32-.32-.32,0-.65a6.55,6.55,0,0,0,0-2.58,7.21,7.21,0,0,0-.32-2.59H21.68a9.76,9.76,0,0,1-1.29,3.23A34.57,34.57,0,0,1,18.44,304c-1,1.62-1.94,3.23-2.91,4.53a22.12,22.12,0,0,1-3.55,4.2c-1,1-1.94,2.27-2.92,3.24H37.53l1-4.85a47.07,47.07,0,0,0,.65-11.65c0-1-.33-1.94-.33-2.59H35.91A9.17,9.17,0,0,1,36.23,302.09Zm.33,3.88v1c0,.32-.33.32-.65.32a1.2,1.2,0,0,1-1-.32.7.7,0,0,1-.65-.65v-.64c0-.33.33-.33.65-.33h1A.71.71,0,0,1,36.56,306Z"/><path class="cls-3" d="M-11.64,316.32H2.6a30.18,30.18,0,0,1,5.17-5.82,43.21,43.21,0,0,0,6.47-6.79c1.62-2.27,3.23-4.53,4.53-6.8H-8.72a42.64,42.64,0,0,0-1.62,6.15,49.1,49.1,0,0,0-1,9.7,4.59,4.59,0,0,0-.33,3.56Z"/><path class="cls-4" d="M21,289.15a28.59,28.59,0,0,0,.33-7.44,27.87,27.87,0,0,1,1,7.44V293H33.65v-.32c-.33-1-.33-1.94-.65-2.59a12.22,12.22,0,0,0-.65-1.94,11.24,11.24,0,0,0-1.29-2.91,3.67,3.67,0,0,0-1-2.59,5.32,5.32,0,0,0-1-1.94l-1-1c-.33,0-.33-.32-.33-.65s0-.32.33-.64.32-.33.65-.33.32,0,.64.33.65.32,1,.64.65.65.65,1a38.4,38.4,0,0,1,2.59,5.17l1.94,5.82c0,.65.32,1.3.32,1.94H38.5l-1-3.88a45.56,45.56,0,0,0-4.85-9.7,20.06,20.06,0,0,0-4.53-4.53,23.22,23.22,0,0,0-5.82-2.59,24.82,24.82,0,0,0-4.86-.32l-4.85,1a24.74,24.74,0,0,0-5.82,2.91,32,32,0,0,0-5.17,4.21,33.91,33.91,0,0,0-4.53,5.17,31.81,31.81,0,0,0-3.56,5.5c-.32.65-.65,1.62-1,2.26H20.06A16.59,16.59,0,0,0,21,289.15Z"/><path class="cls-4" d="M18.44,296.91c.33-.32.33-.64.65-1,.33-1,1-1.94,1.3-2.91H-7.11a20.21,20.21,0,0,0-1.61,3.88Z"/><path class="cls-4" d="M22,296.91H34.29v-1c0-1-.32-2.26-.32-3.23H22.65a13.58,13.58,0,0,1-.65,3.56Z"/><path class="cls-4" d="M36.23,296.59v.65h2.92c-.33-1.3-.33-2.59-.65-3.88H35.91C35.91,294.33,36.23,295.3,36.23,296.59Z"/><path class="cls-2" d="M5.83,322.47a20.74,20.74,0,0,0-1.29,6.14,19.11,19.11,0,0,0,.64,6.15,4.7,4.7,0,0,0,.65,1.94l1,1.94a2.5,2.5,0,0,0,1.29,1.29c.65.33,1,.65,1.62.65a38.91,38.91,0,0,0,6.15-.65A20.45,20.45,0,0,0,21.68,338a25.76,25.76,0,0,0,6.79-4.85,32.57,32.57,0,0,0,5.18-6.47,30.66,30.66,0,0,0,3.23-7.44c0-.32.32-.64.32-1H7.77A16.59,16.59,0,0,0,5.83,322.47Z"/><path class="cls-2" d="M-9,328A36.72,36.72,0,0,0-2.9,338.32c.32.32.64.64,1,.64h1a.69.69,0,0,0,.64-.64,1.19,1.19,0,0,0-.32-1,13.26,13.26,0,0,1-1.62-5.83,19,19,0,0,1,.33-6.14,37,37,0,0,1,2.59-6.47H-12C-11,321.5-10.34,324.73-9,328Z"/><path class="cls-2" d="M2.27,316.32H-12a4.12,4.12,0,0,0,.32,1.94H1c.32-.32.32-1,.65-1.29S2.27,316.64,2.27,316.32Z"/><path class="cls-2" d="M8.42,317.29c-.33.33-.33.65-.65.65H37.53c.32-.65.32-1.3.65-1.94H9.71Z"/><path class="cls-2" d="M45.87,325.87h0V327h.19A2.45,2.45,0,0,1,45.87,325.87Z"/><path class="cls-1" d="M73.55,319.33c-.19,0-.19.19-.39.19v.39c0,.19.2.19.39.38s.38.39.57.19a.62.62,0,0,1,.39-.19c0-.19.19-.38,0-.58a.41.41,0,0,0-.39-.38C73.93,319.33,73.74,319.14,73.55,319.33Z"/><path class="cls-1" d="M73.36,315.87v1.92c0,.19.19.19.38.19h.38c.2,0,.2-.19.39-.38v-3.27H73.16C73.16,314.91,73.36,315.49,73.36,315.87Z"/><path class="cls-1" d="M73.93,310.87l-1.15-3.46a15.46,15.46,0,0,0-1.54-3.07c-.19-.2-.19-.39-.38-.58s-.39-.39-.58-.39c-.19-.19-.19-.19-.38-.19s-.2.19-.39.19a.62.62,0,0,0-.19.39c0,.19,0,.19.19.38l.58.58a3.16,3.16,0,0,1,.57,1.15c.2.58.58,1.16.77,1.73s.58,1.16.77,1.73a7.91,7.91,0,0,1,.39,1.16A8.86,8.86,0,0,0,73,312v.19h1.15A3.81,3.81,0,0,1,73.93,310.87Z"/><path class="cls-1" d="M73.16,314.33h1.16V314c0-.77-.2-1.35-.2-2.12H73c0,.58.19,1.16.19,1.93Z"/><path class="cls-3" d="M74.32,317.41v.38c0,.19-.2.19-.39.39h-.38c-.19,0-.19-.2-.39-.2,0-.19-.19-.19,0-.38a3.85,3.85,0,0,0,0-1.54,4.32,4.32,0,0,0-.19-1.54h-7.3a6.09,6.09,0,0,1-.77,1.93,21.07,21.07,0,0,1-1.16,2.11A30.65,30.65,0,0,1,62,321.25a13,13,0,0,1-2.11,2.5c-.58.58-1.15,1.35-1.73,1.92H75.09l.57-2.88a27.76,27.76,0,0,0,.39-6.92c0-.58-.2-1.15-.2-1.54H74.12A5.47,5.47,0,0,1,74.32,317.41Zm.19,2.3v.58c0,.19-.19.19-.39.19a.7.7,0,0,1-.57-.19.42.42,0,0,1-.39-.38v-.39c0-.19.2-.19.39-.19h.57A.41.41,0,0,1,74.51,319.71Z"/><path class="cls-3" d="M45.87,325.87h8.45a18.23,18.23,0,0,1,3.08-3.46,25.53,25.53,0,0,0,3.84-4,47.35,47.35,0,0,0,2.7-4H47.6a26.29,26.29,0,0,0-1,3.65,29.78,29.78,0,0,0-.57,5.77,2.68,2.68,0,0,0-.19,2.12Z"/><path class="cls-4" d="M65.28,309.72a16.84,16.84,0,0,0,.19-4.42,16.12,16.12,0,0,1,.58,4.42V312h6.73v-.2a15.52,15.52,0,0,0-.39-1.54,7.84,7.84,0,0,0-.38-1.15,6.57,6.57,0,0,0-.77-1.73,2.17,2.17,0,0,0-.58-1.54,3.16,3.16,0,0,0-.57-1.15l-.58-.58c-.19,0-.19-.19-.19-.38s0-.19.19-.39.19-.19.39-.19.19,0,.38.19.38.2.58.39.38.38.38.58a23.18,23.18,0,0,1,1.54,3.07l1.15,3.46c0,.39.19.77.19,1.16h1.54l-.57-2.31A26.61,26.61,0,0,0,72.2,304a12,12,0,0,0-2.69-2.69,13.82,13.82,0,0,0-3.46-1.54,14.68,14.68,0,0,0-2.88-.19l-2.89.58a14.53,14.53,0,0,0-3.46,1.73,19,19,0,0,0-3.07,2.5,20.76,20.76,0,0,0-2.69,3.07,19.31,19.31,0,0,0-2.12,3.27c-.19.38-.38,1-.58,1.35H64.71A10.26,10.26,0,0,0,65.28,309.72Z"/><path class="cls-4" d="M63.74,314.33c.2-.19.2-.38.39-.57.19-.58.58-1.16.77-1.73H48.56a11,11,0,0,0-1,2.3Z"/><path class="cls-4" d="M65.86,314.33h7.3v-.57c0-.58-.19-1.35-.19-1.93H66.24a8.3,8.3,0,0,1-.38,2.12Z"/><path class="cls-4" d="M74.32,314.14v.38h1.73c-.2-.76-.2-1.53-.39-2.3H74.12C74.12,312.79,74.32,313.37,74.32,314.14Z"/><path class="cls-2" d="M56.25,329.52a12.22,12.22,0,0,0-.77,3.65,11.32,11.32,0,0,0,.38,3.65,2.67,2.67,0,0,0,.39,1.16l.57,1.15a1.52,1.52,0,0,0,.77.77c.39.19.58.38,1,.38a23.92,23.92,0,0,0,3.66-.38,12.46,12.46,0,0,0,3.46-1.15,15.33,15.33,0,0,0,4-2.89A19.17,19.17,0,0,0,72.78,332a18.11,18.11,0,0,0,1.92-4.42c0-.2.19-.39.19-.58H57.4A10.06,10.06,0,0,0,56.25,329.52Z"/><path class="cls-2" d="M47.4,332.79a21.75,21.75,0,0,0,3.66,6.15c.19.19.38.38.57.38h.58a.41.41,0,0,0,.38-.38.72.72,0,0,0-.19-.58,7.92,7.92,0,0,1-1-3.46,11.5,11.5,0,0,1,.19-3.65,23.24,23.24,0,0,1,1.54-3.85h-7.5C46.25,328.94,46.63,330.86,47.4,332.79Z"/><path class="cls-2" d="M54.13,325.87H45.67a2.34,2.34,0,0,0,.2,1.15h7.49c.2-.19.2-.58.39-.77S54.13,326.06,54.13,325.87Z"/><path class="cls-2" d="M57.78,326.44c-.19.2-.19.39-.38.39H75.09c.19-.39.19-.77.38-1.16H58.55Z"/><path class="cls-1" d="M31.42,48.22c-.19,0-.19.2-.39.2v.38c0,.19.2.19.39.39s.38.38.57.19a.62.62,0,0,1,.39-.19c0-.2.19-.39,0-.58a.42.42,0,0,0-.39-.39C31.8,48.22,31.61,48,31.42,48.22Z"/><path class="cls-1" d="M31.23,44.76v1.93c0,.19.19.19.38.19H32c.2,0,.2-.19.39-.39V43.23H31C31,43.8,31.23,44.38,31.23,44.76Z"/><path class="cls-1" d="M31.8,39.77l-1.15-3.46a15.28,15.28,0,0,0-1.54-3.08c-.19-.19-.19-.38-.38-.58s-.39-.38-.58-.38c-.19-.19-.19-.19-.38-.19s-.2.19-.39.19a.59.59,0,0,0-.19.38c0,.2,0,.2.19.39l.58.57a3.23,3.23,0,0,1,.57,1.16c.2.57.58,1.15.77,1.73s.58,1.15.77,1.73a7.93,7.93,0,0,1,.39,1.15,8.65,8.65,0,0,0,.38,1.54v.19H32A3.79,3.79,0,0,1,31.8,39.77Z"/><path class="cls-1" d="M31,43.23h1.16v-.39c0-.77-.2-1.34-.2-2.11H30.84c0,.57.19,1.15.19,1.92Z"/><path class="cls-3" d="M32.19,46.3v.39c0,.19-.2.19-.39.38h-.38c-.19,0-.19-.19-.39-.19,0-.19-.19-.19,0-.39A3.8,3.8,0,0,0,31,45a4.29,4.29,0,0,0-.19-1.54h-7.3a6,6,0,0,1-.77,1.92,21.3,21.3,0,0,1-1.16,2.12,30.65,30.65,0,0,1-1.73,2.69,13,13,0,0,1-2.11,2.5c-.58.57-1.15,1.34-1.73,1.92H33l.57-2.89a27.73,27.73,0,0,0,.39-6.92c0-.57-.19-1.15-.19-1.53H32A5.44,5.44,0,0,1,32.19,46.3Zm.19,2.31v.58c0,.19-.19.19-.39.19a.7.7,0,0,1-.57-.19A.43.43,0,0,1,31,48.8v-.38c0-.2.2-.2.39-.2H32A.42.42,0,0,1,32.38,48.61Z"/><path class="cls-3" d="M3.74,54.76h8.45a18.23,18.23,0,0,1,3.08-3.46,25.1,25.1,0,0,0,3.84-4,47.22,47.22,0,0,0,2.7-4H5.47a25.92,25.92,0,0,0-1,3.65,29.63,29.63,0,0,0-.57,5.77,2.65,2.65,0,0,0-.19,2.11Z"/><path class="cls-4" d="M23.15,38.61a16.82,16.82,0,0,0,.19-4.42,16.17,16.17,0,0,1,.58,4.42v2.31h6.73v-.19a14.2,14.2,0,0,0-.39-1.54A7.46,7.46,0,0,0,29.88,38a6.43,6.43,0,0,0-.77-1.73,2.15,2.15,0,0,0-.58-1.54A3.23,3.23,0,0,0,28,33.61L27.38,33c-.19,0-.19-.19-.19-.39s0-.19.19-.38.19-.19.39-.19.19,0,.38.19.38.19.58.38.38.39.38.58a22.69,22.69,0,0,1,1.54,3.08l1.15,3.46c0,.38.19.76.19,1.15h1.54L33,38.61a26.76,26.76,0,0,0-2.89-5.76,11.87,11.87,0,0,0-2.69-2.7,13.78,13.78,0,0,0-3.46-1.53,14,14,0,0,0-2.88-.2L18.15,29a14.92,14.92,0,0,0-3.46,1.73,19.6,19.6,0,0,0-3.07,2.5,20.35,20.35,0,0,0-2.69,3.08,19.22,19.22,0,0,0-2.12,3.26c-.19.39-.38,1-.57,1.35H22.58A10.26,10.26,0,0,0,23.15,38.61Z"/><path class="cls-4" d="M21.61,43.23c.2-.2.2-.39.39-.58.19-.58.58-1.15.77-1.73H6.43a11.32,11.32,0,0,0-1,2.31Z"/><path class="cls-4" d="M23.73,43.23H31v-.58c0-.58-.19-1.35-.19-1.92H24.11a8.23,8.23,0,0,1-.38,2.11Z"/><path class="cls-4" d="M32.19,43v.39h1.73c-.19-.77-.19-1.54-.39-2.31H32C32,41.69,32.19,42.27,32.19,43Z"/><path class="cls-2" d="M14.12,58.41a12.29,12.29,0,0,0-.77,3.66,11.38,11.38,0,0,0,.38,3.65,2.63,2.63,0,0,0,.39,1.15L14.69,68a1.54,1.54,0,0,0,.77.76c.39.2.58.39,1,.39a22.74,22.74,0,0,0,3.66-.39,12.14,12.14,0,0,0,3.46-1.15,15.52,15.52,0,0,0,4-2.88,19.22,19.22,0,0,0,3.08-3.85,17.78,17.78,0,0,0,1.92-4.42c0-.19.19-.38.19-.58H15.27A10.06,10.06,0,0,0,14.12,58.41Z"/><path class="cls-2" d="M5.27,61.68a21.85,21.85,0,0,0,3.66,6.15c.19.2.38.39.57.39h.58a.41.41,0,0,0,.38-.39.7.7,0,0,0-.19-.57,8,8,0,0,1-1-3.46,11.56,11.56,0,0,1,.19-3.66A23.13,23.13,0,0,1,11,56.3H3.54C4.12,57.84,4.5,59.76,5.27,61.68Z"/><path class="cls-2" d="M12,54.76H3.54a2.32,2.32,0,0,0,.2,1.15h7.49c.2-.19.2-.57.39-.76S12,55,12,54.76Z"/><path class="cls-2" d="M15.65,55.34c-.19.19-.19.38-.38.38H33c.19-.38.19-.77.38-1.15H16.42Z"/><path class="cls-1" d="M382,51.2c-.19,0-.19.19-.39.19v.39c0,.19.2.19.39.38s.38.39.58.19a.59.59,0,0,1,.38-.19c0-.19.19-.38,0-.57a.41.41,0,0,0-.38-.39C382.34,51.2,382.15,51,382,51.2Z"/><path class="cls-1" d="M381.77,47.74v1.92c0,.2.19.2.38.2h.39c.19,0,.19-.2.38-.39V46.2h-1.35C381.57,46.78,381.77,47.36,381.77,47.74Z"/><path class="cls-1" d="M382.34,42.74l-1.15-3.46a14.94,14.94,0,0,0-1.54-3.07c-.19-.2-.19-.39-.38-.58s-.39-.38-.58-.38c-.19-.2-.19-.2-.38-.2s-.2.2-.39.2a.59.59,0,0,0-.19.38c0,.19,0,.19.19.38l.58.58a3.31,3.31,0,0,1,.58,1.15c.19.58.57,1.16.76,1.73s.58,1.16.77,1.73a7.12,7.12,0,0,1,.39,1.16,8.86,8.86,0,0,0,.38,1.54v.19h1.16A3.63,3.63,0,0,1,382.34,42.74Z"/><path class="cls-1" d="M381.57,46.2h1.16v-.38c0-.77-.19-1.35-.19-2.12h-1.16c0,.58.19,1.16.19,1.93Z"/><path class="cls-3" d="M382.73,49.28v.38c0,.2-.19.2-.39.39H382c-.19,0-.19-.19-.39-.19,0-.2-.19-.2,0-.39a3.85,3.85,0,0,0,0-1.54,4.24,4.24,0,0,0-.19-1.53h-7.3a6.13,6.13,0,0,1-.77,1.92,20,20,0,0,1-1.16,2.11,30.65,30.65,0,0,1-1.73,2.69,13,13,0,0,1-2.11,2.5c-.58.58-1.15,1.35-1.73,1.92H383.5l.57-2.88a27.76,27.76,0,0,0,.39-6.92c0-.58-.19-1.15-.19-1.54h-1.73A5.57,5.57,0,0,1,382.73,49.28Zm.19,2.31v.57c0,.19-.19.19-.38.19a.71.71,0,0,1-.58-.19.42.42,0,0,1-.39-.38v-.39c0-.19.2-.19.39-.19h.58A.41.41,0,0,1,382.92,51.59Z"/><path class="cls-3" d="M354.28,57.74h8.45a18.23,18.23,0,0,1,3.08-3.46,26,26,0,0,0,3.85-4c1-1.35,1.92-2.69,2.69-4H356a24.7,24.7,0,0,0-1,3.66,28.86,28.86,0,0,0-.58,5.76,2.68,2.68,0,0,0-.19,2.12Z"/><path class="cls-4" d="M373.69,41.59a16.82,16.82,0,0,0,.19-4.42,16.12,16.12,0,0,1,.58,4.42V43.9h6.73v-.2c-.19-.57-.19-1.15-.38-1.53a7.91,7.91,0,0,0-.39-1.16,6.72,6.72,0,0,0-.77-1.73,2.22,2.22,0,0,0-.57-1.54,3.31,3.31,0,0,0-.58-1.15l-.58-.58c-.19,0-.19-.19-.19-.38s0-.19.19-.38.19-.2.39-.2.19,0,.38.2.39.19.58.38.38.38.38.58a22,22,0,0,1,1.54,3.07l1.15,3.46c0,.39.2.77.2,1.16h1.53l-.57-2.31a26.61,26.61,0,0,0-2.89-5.77,11.83,11.83,0,0,0-2.69-2.69,13.82,13.82,0,0,0-3.46-1.54,14.68,14.68,0,0,0-2.88-.19l-2.89.58a14.53,14.53,0,0,0-3.46,1.73,19.6,19.6,0,0,0-3.07,2.5,20.76,20.76,0,0,0-2.69,3.07,19.31,19.31,0,0,0-2.12,3.27c-.19.38-.38,1-.57,1.35h16.34A10.26,10.26,0,0,0,373.69,41.59Z"/><path class="cls-4" d="M372.15,46.2c.2-.19.2-.38.39-.57.19-.58.58-1.16.77-1.73H357a11,11,0,0,0-1,2.3Z"/><path class="cls-4" d="M374.27,46.2h7.3v-.57c0-.58-.19-1.35-.19-1.93h-6.73a8.3,8.3,0,0,1-.38,2.12Z"/><path class="cls-4" d="M382.73,46v.39h1.73c-.19-.77-.19-1.54-.39-2.31h-1.53C382.54,44.66,382.73,45.24,382.73,46Z"/><path class="cls-2" d="M364.66,61.39a12.22,12.22,0,0,0-.77,3.65,11.32,11.32,0,0,0,.38,3.65,2.67,2.67,0,0,0,.39,1.16l.57,1.15a1.52,1.52,0,0,0,.77.77c.39.19.58.38,1,.38a23.92,23.92,0,0,0,3.66-.38,12.46,12.46,0,0,0,3.46-1.15,15.33,15.33,0,0,0,4-2.89,19.17,19.17,0,0,0,3.08-3.84,17.94,17.94,0,0,0,1.92-4.42c0-.19.19-.39.19-.58H365.81A10.06,10.06,0,0,0,364.66,61.39Z"/><path class="cls-2" d="M355.81,64.66a22,22,0,0,0,3.66,6.15c.19.19.38.38.57.38h.58a.41.41,0,0,0,.38-.38.72.72,0,0,0-.19-.58,7.88,7.88,0,0,1-1-3.46,11.5,11.5,0,0,1,.19-3.65,22.79,22.79,0,0,1,1.54-3.84h-7.5C354.66,60.81,355.05,62.74,355.81,64.66Z"/><path class="cls-2" d="M362.54,57.74h-8.46a2.34,2.34,0,0,0,.2,1.15h7.49c.2-.19.2-.58.39-.77S362.54,57.93,362.54,57.74Z"/><path class="cls-2" d="M366.2,58.31c-.2.2-.2.39-.39.39H383.5c.19-.39.19-.77.38-1.16H367Z"/><path class="cls-1" d="M146.44,43.37c-.33,0-.33.32-.65.32v.65c0,.32.32.32.65.65s.64.65,1,.32a1,1,0,0,1,.64-.32c0-.33.33-.65,0-1a.69.69,0,0,0-.64-.65C147.08,43.37,146.76,43.05,146.44,43.37Z"/><path class="cls-1" d="M146.11,37.55v3.23c0,.33.33.33.65.33h.65c.32,0,.32-.33.64-.65V35h-2.26C145.79,35.93,146.11,36.9,146.11,37.55Z"/><path class="cls-1" d="M147.08,29.14l-1.94-5.82a26.11,26.11,0,0,0-2.59-5.18c-.32-.32-.32-.64-.64-1s-.65-.65-1-.65c-.33-.32-.33-.32-.65-.32s-.32.32-.65.32a1,1,0,0,0-.32.65c0,.33,0,.33.32.65l1,1a5.09,5.09,0,0,1,1,1.94c.33,1,1,1.94,1.3,2.91s1,1.94,1.29,2.91a13.42,13.42,0,0,1,.65,1.94,13.94,13.94,0,0,0,.65,2.59v.32h1.94A6.17,6.17,0,0,1,147.08,29.14Z"/><path class="cls-1" d="M145.79,35h1.94v-.65c0-1.29-.32-2.26-.32-3.55h-1.94c0,1,.32,1.94.32,3.23Z"/><path class="cls-2" d="M99.86,54.37h0v1.94h.32A4.14,4.14,0,0,1,99.86,54.37Z"/><path class="cls-3" d="M147.73,40.14v.64c0,.33-.32.33-.65.65h-.64c-.33,0-.33-.32-.65-.32,0-.33-.32-.33,0-.65a6.8,6.8,0,0,0,0-2.59,7.23,7.23,0,0,0-.32-2.59h-12.3a9.52,9.52,0,0,1-1.29,3.24,35.71,35.71,0,0,1-1.94,3.56c-1,1.61-1.94,3.23-2.91,4.53a22.49,22.49,0,0,1-3.56,4.2c-1,1-1.94,2.26-2.91,3.23H149l1-4.85a47,47,0,0,0,.65-11.64c0-1-.32-1.94-.32-2.59h-2.91A9.35,9.35,0,0,1,147.73,40.14Zm.32,3.88v1c0,.32-.32.32-.64.32a1.19,1.19,0,0,1-1-.32.7.7,0,0,1-.65-.65v-.65c0-.32.32-.32.65-.32h1A.69.69,0,0,1,148.05,44Z"/><path class="cls-3" d="M99.86,54.37h14.23a30,30,0,0,1,5.18-5.82,43.25,43.25,0,0,0,6.46-6.8A79.33,79.33,0,0,0,130.26,35H102.77a43.62,43.62,0,0,0-1.62,6.15,49.86,49.86,0,0,0-1,9.7,4.63,4.63,0,0,0-.32,3.56Z"/><path class="cls-4" d="M132.53,27.2a29,29,0,0,0,.32-7.44,27.42,27.42,0,0,1,1,7.44v3.88h11.32v-.32c-.32-1-.32-1.94-.65-2.59a12.93,12.93,0,0,0-.64-1.94,11.63,11.63,0,0,0-1.3-2.91,3.67,3.67,0,0,0-1-2.59,5.09,5.09,0,0,0-1-1.94l-1-1c-.32,0-.32-.32-.32-.65s0-.32.32-.65.33-.32.65-.32.32,0,.65.32.64.33,1,.65.64.65.64,1a39.1,39.1,0,0,1,2.59,5.18l1.94,5.82c0,.65.33,1.29.33,1.94H150l-1-3.88a45.1,45.1,0,0,0-4.85-9.7A19.86,19.86,0,0,0,139.64,13a22.87,22.87,0,0,0-5.82-2.59,24.72,24.72,0,0,0-4.85-.32l-4.85,1a24,24,0,0,0-5.82,2.91,32,32,0,0,0-5.18,4.2,35,35,0,0,0-4.53,5.18,32,32,0,0,0-3.56,5.5c-.32.64-.64,1.61-1,2.26h27.5A17.23,17.23,0,0,0,132.53,27.2Z"/><path class="cls-4" d="M129.94,35c.32-.32.32-.65.65-1,.32-1,1-1.94,1.29-2.91H104.39A19.4,19.4,0,0,0,102.77,35Z"/><path class="cls-4" d="M133.5,35h12.29V34c0-1-.32-2.26-.32-3.23H134.14a13.83,13.83,0,0,1-.64,3.55Z"/><path class="cls-4" d="M147.73,34.64v.64h2.91c-.32-1.29-.32-2.58-.65-3.88h-2.58C147.41,32.37,147.73,33.34,147.73,34.64Z"/><path class="cls-2" d="M117.33,60.51a20.82,20.82,0,0,0-1.3,6.15,18.8,18.8,0,0,0,.65,6.14,4.55,4.55,0,0,0,.65,2l1,1.94A2.5,2.5,0,0,0,119.59,78c.65.32,1,.65,1.62.65a40,40,0,0,0,6.14-.65A20.45,20.45,0,0,0,133.17,76a25.81,25.81,0,0,0,6.8-4.85,32.44,32.44,0,0,0,5.17-6.47,30.47,30.47,0,0,0,3.24-7.44c0-.32.32-.65.32-1H119.27A16.52,16.52,0,0,0,117.33,60.51Z"/><path class="cls-2" d="M102.45,66a36.32,36.32,0,0,0,6.14,10.35c.33.33.65.65,1,.65h1a.69.69,0,0,0,.65-.65,1.21,1.21,0,0,0-.32-1,13.18,13.18,0,0,1-1.62-5.82,19.39,19.39,0,0,1,.32-6.15A38.87,38.87,0,0,1,112.15,57H99.54C100.51,59.54,101.15,62.78,102.45,66Z"/><path class="cls-2" d="M113.77,54.37H99.54a4.14,4.14,0,0,0,.32,1.94h12.61c.33-.32.33-1,.65-1.29S113.77,54.69,113.77,54.37Z"/><path class="cls-2" d="M119.91,55.34c-.32.32-.32.65-.64.65H149c.33-.65.33-1.3.65-2H121.21Z"/><path class="cls-1" d="M167.08,91.41c-.19,0-.19.19-.39.19V92c0,.19.2.19.39.38s.38.39.58.19a.59.59,0,0,1,.38-.19c0-.19.19-.38,0-.58a.41.41,0,0,0-.38-.38C167.46,91.41,167.27,91.22,167.08,91.41Z"/><path class="cls-1" d="M166.89,88v1.92c0,.19.19.19.38.19h.39c.19,0,.19-.19.38-.38V86.41h-1.35C166.69,87,166.89,87.57,166.89,88Z"/><path class="cls-1" d="M167.46,83l-1.15-3.46a15.46,15.46,0,0,0-1.54-3.07c-.19-.2-.19-.39-.38-.58s-.39-.39-.58-.39c-.19-.19-.19-.19-.38-.19s-.2.19-.39.19a.62.62,0,0,0-.19.39c0,.19,0,.19.19.38l.58.58a3.16,3.16,0,0,1,.57,1.15c.2.58.58,1.16.77,1.73s.58,1.16.77,1.73a7.91,7.91,0,0,1,.39,1.16,8.6,8.6,0,0,0,.38,1.53v.2h1.16A3.63,3.63,0,0,1,167.46,83Z"/><path class="cls-1" d="M166.69,86.41h1.16V86c0-.77-.19-1.35-.19-2.12H166.5c0,.58.19,1.16.19,1.93Z"/><path class="cls-2" d="M139.4,98h0V99.1h.19A2.47,2.47,0,0,1,139.4,98Z"/><path class="cls-3" d="M167.85,89.49v.38c0,.19-.19.19-.39.39h-.38c-.19,0-.19-.2-.39-.2,0-.19-.19-.19,0-.38a3.85,3.85,0,0,0,0-1.54,4.32,4.32,0,0,0-.19-1.54h-7.3a6.09,6.09,0,0,1-.77,1.93,21.07,21.07,0,0,1-1.16,2.11,30.65,30.65,0,0,1-1.73,2.69,13,13,0,0,1-2.11,2.5c-.58.58-1.15,1.35-1.73,1.92h16.92l.57-2.88a27.76,27.76,0,0,0,.39-6.92c0-.58-.19-1.15-.19-1.54h-1.73A5.56,5.56,0,0,1,167.85,89.49Zm.19,2.3v.58c0,.19-.19.19-.38.19a.71.71,0,0,1-.58-.19.42.42,0,0,1-.39-.38V91.6c0-.19.2-.19.39-.19h.58A.41.41,0,0,1,168,91.79Z"/><path class="cls-3" d="M139.4,98h8.45a18.23,18.23,0,0,1,3.08-3.46,26,26,0,0,0,3.85-4c1-1.35,1.92-2.69,2.69-4H141.13a24.91,24.91,0,0,0-1,3.65,29,29,0,0,0-.58,5.77A2.68,2.68,0,0,0,139.4,98Z"/><path class="cls-4" d="M158.81,81.8a16.84,16.84,0,0,0,.19-4.42,16.12,16.12,0,0,1,.58,4.42v2.3h6.73v-.19a15.52,15.52,0,0,0-.39-1.54,7.84,7.84,0,0,0-.38-1.15,6.57,6.57,0,0,0-.77-1.73,2.17,2.17,0,0,0-.58-1.54,3.16,3.16,0,0,0-.57-1.15l-.58-.58c-.19,0-.19-.19-.19-.38s0-.19.19-.39.19-.19.39-.19.19,0,.38.19.38.2.58.39.38.38.38.58a23.18,23.18,0,0,1,1.54,3.07L167.46,83c0,.39.2.77.2,1.15h1.53l-.57-2.3A26.61,26.61,0,0,0,165.73,76,12,12,0,0,0,163,73.34a13.82,13.82,0,0,0-3.46-1.54,14.68,14.68,0,0,0-2.88-.19l-2.89.58a14.53,14.53,0,0,0-3.46,1.73,19,19,0,0,0-3.07,2.5,20.76,20.76,0,0,0-2.69,3.07,19.31,19.31,0,0,0-2.12,3.27c-.19.38-.38,1-.57,1.34h16.34A10.05,10.05,0,0,0,158.81,81.8Z"/><path class="cls-4" d="M157.27,86.41c.2-.19.2-.38.39-.57.19-.58.58-1.16.77-1.74H142.09a11.32,11.32,0,0,0-1,2.31Z"/><path class="cls-4" d="M159.39,86.41h7.3v-.57c0-.58-.19-1.35-.19-1.93h-6.73a8.3,8.3,0,0,1-.38,2.12Z"/><path class="cls-4" d="M167.85,86.22v.38h1.73c-.19-.76-.19-1.53-.39-2.3h-1.53C167.66,84.87,167.85,85.45,167.85,86.22Z"/><path class="cls-2" d="M149.78,101.6a12.22,12.22,0,0,0-.77,3.65,11.32,11.32,0,0,0,.38,3.65,2.67,2.67,0,0,0,.39,1.16l.57,1.15a1.56,1.56,0,0,0,.77.77c.39.19.58.38,1,.38a23.92,23.92,0,0,0,3.66-.38,12.46,12.46,0,0,0,3.46-1.15,15.33,15.33,0,0,0,4-2.89,19.17,19.17,0,0,0,3.08-3.84,18.11,18.11,0,0,0,1.92-4.42c0-.2.19-.39.19-.58H150.93A10.06,10.06,0,0,0,149.78,101.6Z"/><path class="cls-2" d="M140.93,104.87a22,22,0,0,0,3.66,6.15c.19.19.38.38.57.38h.58a.41.41,0,0,0,.38-.38.72.72,0,0,0-.19-.58,7.92,7.92,0,0,1-1-3.46,11.5,11.5,0,0,1,.19-3.65,23.24,23.24,0,0,1,1.54-3.85h-7.5C139.78,101,140.17,102.94,140.93,104.87Z"/><path class="cls-2" d="M147.66,98H139.2a2.36,2.36,0,0,0,.2,1.15h7.49c.2-.19.2-.58.39-.77S147.66,98.14,147.66,98Z"/><path class="cls-2" d="M151.31,98.52c-.19.19-.19.39-.38.39h17.69c.19-.39.19-.77.38-1.16H152.08Z"/><path class="cls-1" d="M235.79,60.77c-.32,0-.32.32-.64.32v.65c0,.32.32.32.64.65s.65.64,1,.32a1,1,0,0,1,.65-.32c0-.33.32-.65,0-1a.69.69,0,0,0-.65-.65C236.44,60.77,236.12,60.45,235.79,60.77Z"/><path class="cls-1" d="M235.47,55v3.23c0,.32.32.32.65.32h.64c.33,0,.33-.32.65-.64v-5.5h-2.26C235.15,53.33,235.47,54.3,235.47,55Z"/><path class="cls-1" d="M236.44,46.54l-1.94-5.82a25.84,25.84,0,0,0-2.59-5.18c-.32-.32-.32-.65-.65-1s-.64-.65-1-.65c-.32-.32-.32-.32-.64-.32s-.33.32-.65.32a1,1,0,0,0-.32.65c0,.32,0,.32.32.65l1,1a5.24,5.24,0,0,1,1,1.94c.32,1,1,1.94,1.3,2.91s1,1.94,1.29,2.91a13.42,13.42,0,0,1,.65,1.94,14.76,14.76,0,0,0,.64,2.59v.32h1.94A6.37,6.37,0,0,1,236.44,46.54Z"/><path class="cls-1" d="M235.15,52.36h1.94v-.65c0-1.29-.33-2.26-.33-3.56h-1.94c0,1,.33,2,.33,3.24Z"/><path class="cls-2" d="M189.22,71.77h0v1.94h.32A4.16,4.16,0,0,1,189.22,71.77Z"/><path class="cls-3" d="M237.09,57.53v.65c0,.32-.33.32-.65.65h-.65c-.32,0-.32-.33-.64-.33,0-.32-.33-.32,0-.64a6.81,6.81,0,0,0,0-2.59,7,7,0,0,0-.33-2.59H222.53a9.73,9.73,0,0,1-1.29,3.24,39.18,39.18,0,0,1-1.94,3.56c-1,1.61-1.94,3.23-2.91,4.52a22.55,22.55,0,0,1-3.56,4.21c-1,1-1.94,2.26-2.91,3.23h28.46l1-4.85A47,47,0,0,0,240,55c0-1-.33-1.94-.33-2.59h-2.91A9.22,9.22,0,0,1,237.09,57.53Zm.32,3.89v1c0,.32-.32.32-.65.32a1.21,1.21,0,0,1-1-.32.7.7,0,0,1-.64-.65v-.65c0-.32.32-.32.64-.32h1A.69.69,0,0,1,237.41,61.42Z"/><path class="cls-3" d="M189.22,71.77h14.23a30.28,30.28,0,0,1,5.17-5.83,42.77,42.77,0,0,0,6.47-6.79,80.93,80.93,0,0,0,4.53-6.79H192.13a42.18,42.18,0,0,0-1.62,6.14,49.2,49.2,0,0,0-1,9.71,4.54,4.54,0,0,0-.32,3.56Z"/><path class="cls-4" d="M221.88,44.6a28.61,28.61,0,0,0,.33-7.44,27.42,27.42,0,0,1,1,7.44v3.88H234.5v-.33a25.93,25.93,0,0,0-.65-2.58,12.57,12.57,0,0,0-.64-1.94,11.63,11.63,0,0,0-1.3-2.91,3.64,3.64,0,0,0-1-2.59,5.24,5.24,0,0,0-1-1.94l-1-1c-.32,0-.32-.33-.32-.65s0-.32.32-.65.32-.32.65-.32.32,0,.64.32.65.33,1,.65.65.65.65,1a39.1,39.1,0,0,1,2.59,5.18l1.94,5.82c0,.64.32,1.29.32,1.94h2.59l-1-3.88a45.18,45.18,0,0,0-4.85-9.71A20.26,20.26,0,0,0,229,30.36a22.82,22.82,0,0,0-5.82-2.58,24,24,0,0,0-4.85-.33l-4.85,1a24.28,24.28,0,0,0-5.83,2.92,32.38,32.38,0,0,0-5.17,4.2A34,34,0,0,0,198,40.72a31.93,31.93,0,0,0-3.56,5.49c-.32.65-.65,1.62-1,2.27h27.49A16.84,16.84,0,0,0,221.88,44.6Z"/><path class="cls-4" d="M219.3,52.36c.32-.32.32-.65.64-1,.33-1,1-1.94,1.3-2.91h-27.5a20,20,0,0,0-1.61,3.88Z"/><path class="cls-4" d="M222.86,52.36h12.29v-1c0-1-.33-2.27-.33-3.24H223.5a13.83,13.83,0,0,1-.64,3.56Z"/><path class="cls-4" d="M237.09,52v.64H240c-.33-1.29-.33-2.58-.65-3.88h-2.59C236.76,49.77,237.09,50.74,237.09,52Z"/><path class="cls-2" d="M206.68,77.91a21.13,21.13,0,0,0-1.29,6.15A18.8,18.8,0,0,0,206,90.2a4.58,4.58,0,0,0,.64,1.94l1,1.94a2.57,2.57,0,0,0,1.3,1.3c.64.32,1,.64,1.61.64a40.1,40.1,0,0,0,6.15-.64,20.76,20.76,0,0,0,5.82-1.94,26,26,0,0,0,6.79-4.85,32.78,32.78,0,0,0,5.18-6.47,30.6,30.6,0,0,0,3.23-7.44c0-.33.33-.65.33-1H208.62A17.06,17.06,0,0,0,206.68,77.91Z"/><path class="cls-2" d="M191.8,83.41A36.58,36.58,0,0,0,198,93.76c.32.32.65.65,1,.65h1a.71.71,0,0,0,.65-.65,1.17,1.17,0,0,0-.33-1A13.16,13.16,0,0,1,198.6,87a19.07,19.07,0,0,1,.32-6.15,39,39,0,0,1,2.59-6.47H188.89C189.86,76.94,190.51,80.18,191.8,83.41Z"/><path class="cls-2" d="M203.12,71.77H188.89a4,4,0,0,0,.33,1.94h12.61c.32-.33.32-1,.65-1.3S203.12,72.09,203.12,71.77Z"/><path class="cls-2" d="M209.27,72.74c-.32.32-.32.64-.65.64h29.76c.32-.64.32-1.29.65-1.94H210.56Z"/><path class="cls-1" d="M267.78,89c-.19,0-.19.19-.39.19v.38c0,.2.2.2.39.39s.38.38.57.19a.62.62,0,0,1,.39-.19c0-.19.19-.39,0-.58a.41.41,0,0,0-.39-.38C268.16,89,268,88.81,267.78,89Z"/><path class="cls-1" d="M267.59,85.55v1.92c0,.19.19.19.38.19h.38c.2,0,.2-.19.39-.38V84h-1.35C267.39,84.59,267.59,85.16,267.59,85.55Z"/><path class="cls-1" d="M268.16,80.55,267,77.09A15.28,15.28,0,0,0,265.47,74c-.19-.19-.19-.38-.38-.57s-.39-.39-.58-.39c-.19-.19-.19-.19-.38-.19s-.2.19-.39.19a.6.6,0,0,0-.19.39c0,.19,0,.19.19.38l.58.58a3.07,3.07,0,0,1,.57,1.15c.2.58.58,1.15.77,1.73s.58,1.15.77,1.73a8.37,8.37,0,0,1,.39,1.15,8.65,8.65,0,0,0,.38,1.54v.19h1.15A3.76,3.76,0,0,1,268.16,80.55Z"/><path class="cls-1" d="M267.39,84h1.16v-.39c0-.76-.2-1.34-.2-2.11H267.2c0,.58.19,1.15.19,1.92Z"/><path class="cls-2" d="M240.1,95.54h0V96.7h.19A2.49,2.49,0,0,1,240.1,95.54Z"/><path class="cls-3" d="M268.55,87.08v.39c0,.19-.2.19-.39.38h-.38c-.19,0-.19-.19-.39-.19,0-.19-.19-.19,0-.38a3.86,3.86,0,0,0,0-1.54,4.29,4.29,0,0,0-.19-1.54h-7.3a5.94,5.94,0,0,1-.77,1.92A21.3,21.3,0,0,1,258,88.24a30.65,30.65,0,0,1-1.73,2.69,13,13,0,0,1-2.11,2.5c-.58.58-1.15,1.34-1.73,1.92h16.92l.57-2.88a27.79,27.79,0,0,0,.39-6.92c0-.58-.19-1.16-.19-1.54h-1.74A5.44,5.44,0,0,1,268.55,87.08Zm.19,2.31V90c0,.19-.19.19-.39.19a.7.7,0,0,1-.57-.19.42.42,0,0,1-.39-.39V89.2c0-.19.2-.19.39-.19h.57A.41.41,0,0,1,268.74,89.39Z"/><path class="cls-3" d="M240.1,95.54h8.45a18.54,18.54,0,0,1,3.08-3.46,26,26,0,0,0,3.85-4c1-1.35,1.92-2.7,2.69-4H241.83a25.92,25.92,0,0,0-1,3.65,29.7,29.7,0,0,0-.57,5.77,2.66,2.66,0,0,0-.19,2.11Z"/><path class="cls-4" d="M259.51,79.4A16.89,16.89,0,0,0,259.7,75a16.24,16.24,0,0,1,.58,4.43v2.3H267v-.19a14.83,14.83,0,0,0-.39-1.54,7.84,7.84,0,0,0-.38-1.15,6.57,6.57,0,0,0-.77-1.73,2.15,2.15,0,0,0-.58-1.54,3.07,3.07,0,0,0-.57-1.15l-.58-.58c-.19,0-.19-.19-.19-.38s0-.2.19-.39.19-.19.39-.19.19,0,.38.19.38.19.58.39.38.38.38.57A23.28,23.28,0,0,1,267,77.09l1.15,3.46c0,.38.19.77.19,1.15h1.54l-.57-2.3a26.61,26.61,0,0,0-2.89-5.77,12,12,0,0,0-2.69-2.69,13.47,13.47,0,0,0-3.46-1.54,14.68,14.68,0,0,0-2.88-.19l-2.89.57a14.92,14.92,0,0,0-3.46,1.73A19.6,19.6,0,0,0,248,74a20.35,20.35,0,0,0-2.69,3.08,18.92,18.92,0,0,0-2.12,3.27c-.19.38-.38,1-.57,1.34h16.34A10.31,10.31,0,0,0,259.51,79.4Z"/><path class="cls-4" d="M258,84c.2-.19.2-.39.39-.58.19-.57.58-1.15.77-1.73H242.79a11.32,11.32,0,0,0-1,2.31Z"/><path class="cls-4" d="M260.09,84h7.3v-.58c0-.57-.19-1.34-.19-1.92h-6.73a8.15,8.15,0,0,1-.38,2.11Z"/><path class="cls-4" d="M268.55,83.82v.38h1.73c-.19-.77-.19-1.54-.39-2.31h-1.54C268.35,82.47,268.55,83.05,268.55,83.82Z"/><path class="cls-2" d="M250.48,99.2a12.16,12.16,0,0,0-.77,3.65,11.35,11.35,0,0,0,.38,3.65,2.59,2.59,0,0,0,.39,1.15l.57,1.16a1.6,1.6,0,0,0,.77.77c.39.19.58.38,1,.38a23.92,23.92,0,0,0,3.66-.38,12.49,12.49,0,0,0,3.46-1.16,15.52,15.52,0,0,0,4-2.88,18.94,18.94,0,0,0,3.08-3.85,17.78,17.78,0,0,0,1.92-4.42c0-.19.19-.38.19-.57H251.63A9.89,9.89,0,0,0,250.48,99.2Z"/><path class="cls-2" d="M241.63,102.46a21.9,21.9,0,0,0,3.66,6.16c.19.19.38.38.57.38h.58a.41.41,0,0,0,.38-.38.71.71,0,0,0-.19-.58,7.92,7.92,0,0,1-1-3.46,11.48,11.48,0,0,1,.19-3.65,22.9,22.9,0,0,1,1.54-3.85h-7.5C240.48,98.62,240.86,100.54,241.63,102.46Z"/><path class="cls-2" d="M248.36,95.54H239.9a2.38,2.38,0,0,0,.2,1.16h7.49c.2-.2.2-.58.39-.77S248.36,95.74,248.36,95.54Z"/><path class="cls-2" d="M252,96.12c-.19.19-.19.38-.38.38h17.69c.19-.38.19-.76.38-1.15H252.78Z"/><path class="cls-1" d="M330.86,73.91c-.32,0-.32.32-.65.32v.65c0,.32.33.32.65.65s.65.64,1,.32a1,1,0,0,1,.65-.32c0-.33.32-.65,0-1a.7.7,0,0,0-.65-.65C331.51,73.91,331.18,73.59,330.86,73.91Z"/><path class="cls-1" d="M330.54,68.09v3.23c0,.33.32.33.64.33h.65c.32,0,.32-.33.65-.65V65.5h-2.27C330.21,66.47,330.54,67.44,330.54,68.09Z"/><path class="cls-1" d="M331.51,59.68l-1.94-5.82A25.84,25.84,0,0,0,327,48.68c-.32-.32-.32-.65-.65-1s-.64-.65-1-.65c-.32-.32-.32-.32-.65-.32s-.32.32-.64.32a1,1,0,0,0-.33.65c0,.32,0,.32.33.65l1,1a5.24,5.24,0,0,1,1,1.94c.32,1,1,1.94,1.29,2.91s1,1.94,1.3,2.91a12.93,12.93,0,0,1,.64,1.94,15,15,0,0,0,.65,2.59v.32h1.94A6.37,6.37,0,0,1,331.51,59.68Z"/><path class="cls-1" d="M330.21,65.5h1.94v-.65c0-1.29-.32-2.26-.32-3.56h-1.94c0,1,.32,2,.32,3.24Z"/><path class="cls-2" d="M284.28,84.91h0v1.94h.33A4,4,0,0,1,284.28,84.91Z"/><path class="cls-3" d="M332.15,70.67v.65c0,.33-.32.33-.64.65h-.65c-.32,0-.32-.32-.65-.32,0-.33-.32-.33,0-.65a6.61,6.61,0,0,0,0-2.59,7.21,7.21,0,0,0-.32-2.59H317.6a9.73,9.73,0,0,1-1.29,3.24,35.66,35.66,0,0,1-1.95,3.56c-1,1.61-1.94,3.23-2.91,4.52a22.5,22.5,0,0,1-3.55,4.21c-1,1-1.95,2.26-2.92,3.23h28.47l1-4.85a47,47,0,0,0,.65-11.64c0-1-.33-1.94-.33-2.59h-2.91A9.14,9.14,0,0,1,332.15,70.67Zm.33,3.89v1c0,.32-.33.32-.65.32a1.2,1.2,0,0,1-1-.32.71.71,0,0,1-.65-.65v-.65c0-.32.33-.32.65-.32h1A.7.7,0,0,1,332.48,74.56Z"/><path class="cls-3" d="M284.28,84.91h14.24a30,30,0,0,1,5.17-5.83,43.23,43.23,0,0,0,6.47-6.79c1.62-2.26,3.23-4.53,4.53-6.79h-27.5a43.22,43.22,0,0,0-1.61,6.15,49,49,0,0,0-1,9.7,4.59,4.59,0,0,0-.33,3.56Z"/><path class="cls-4" d="M317,57.74a28.59,28.59,0,0,0,.33-7.44,27.82,27.82,0,0,1,1,7.44v3.88h11.32v-.33c-.33-1-.33-1.94-.65-2.58a11.89,11.89,0,0,0-.65-1.94A11.24,11.24,0,0,0,327,53.86a3.65,3.65,0,0,0-1-2.59,5.24,5.24,0,0,0-1-1.94l-1-1c-.33,0-.33-.33-.33-.65s0-.32.33-.65.32-.32.64-.32.33,0,.65.32.65.33,1,.65.65.65.65,1a39.1,39.1,0,0,1,2.59,5.18l1.94,5.82c0,.64.32,1.29.32,1.94h2.59l-1-3.88A45.65,45.65,0,0,0,328.6,48a20.23,20.23,0,0,0-4.53-4.52,22.52,22.52,0,0,0-5.82-2.59,24.08,24.08,0,0,0-4.86-.33l-4.85,1a24.41,24.41,0,0,0-5.82,2.92,32,32,0,0,0-5.17,4.2A34,34,0,0,0,293,53.86a31.35,31.35,0,0,0-3.56,5.49c-.32.65-.65,1.62-1,2.27H316A16.84,16.84,0,0,0,317,57.74Z"/><path class="cls-4" d="M314.36,65.5c.33-.32.33-.65.65-1,.32-1,1-1.94,1.3-2.91h-27.5a20.64,20.64,0,0,0-1.62,3.88Z"/><path class="cls-4" d="M317.92,65.5h12.29v-1c0-1-.32-2.26-.32-3.24H318.57a13.43,13.43,0,0,1-.65,3.56Z"/><path class="cls-4" d="M332.15,65.18v.64h2.92c-.33-1.29-.33-2.58-.65-3.88h-2.59C331.83,62.91,332.15,63.88,332.15,65.18Z"/><path class="cls-2" d="M301.75,91.05a20.8,20.8,0,0,0-1.29,6.15,19.08,19.08,0,0,0,.64,6.14,4.6,4.6,0,0,0,.65,1.94l1,1.94a2.56,2.56,0,0,0,1.29,1.3c.65.32,1,.65,1.62.65a40.12,40.12,0,0,0,6.15-.65,20.76,20.76,0,0,0,5.82-1.94,26,26,0,0,0,6.79-4.85,32.85,32.85,0,0,0,5.18-6.47,30.82,30.82,0,0,0,3.23-7.44c0-.33.32-.65.32-1H303.69A16.36,16.36,0,0,0,301.75,91.05Z"/><path class="cls-2" d="M286.87,96.55A36.58,36.58,0,0,0,293,106.9c.32.32.64.65,1,.65h1a.7.7,0,0,0,.64-.65,1.2,1.2,0,0,0-.32-1,13.18,13.18,0,0,1-1.62-5.82A19.06,19.06,0,0,1,294,94a38.11,38.11,0,0,1,2.58-6.47H284C284.93,90.08,285.58,93.32,286.87,96.55Z"/><path class="cls-2" d="M298.19,84.91H284a4.16,4.16,0,0,0,.32,1.94H296.9c.32-.33.32-1,.65-1.3S298.19,85.23,298.19,84.91Z"/><path class="cls-2" d="M304.34,85.88c-.33.32-.33.64-.65.64h29.76c.32-.64.32-1.29.64-1.94H305.63Z"/><path class="cls-1" d="M370.2,94.21c-.19,0-.19.19-.39.19v.39c0,.19.2.19.39.38s.38.38.58.19a.59.59,0,0,1,.38-.19c0-.19.19-.38,0-.58a.41.41,0,0,0-.38-.38C370.58,94.21,370.39,94,370.2,94.21Z"/><path class="cls-2" d="M342.52,100.74h0v1.16h.19A2.49,2.49,0,0,1,342.52,100.74Z"/><path class="cls-3" d="M342.52,100.74H351a18.86,18.86,0,0,1,3.08-3.46,25.52,25.52,0,0,0,3.85-4c1-1.35,1.92-2.69,2.69-4H344.25a24.58,24.58,0,0,0-1,3.65,29,29,0,0,0-.58,5.77,2.66,2.66,0,0,0-.19,2.11Z"/><path class="cls-4" d="M360.39,89.21c.2-.19.2-.38.39-.58.19-.57.58-1.15.77-1.73H345.21a11.32,11.32,0,0,0-1,2.31Z"/><path class="cls-2" d="M344.05,107.67a22,22,0,0,0,3.66,6.15c.19.19.38.38.57.38h.58a.41.41,0,0,0,.38-.38.71.71,0,0,0-.19-.58,7.92,7.92,0,0,1-1-3.46,11.48,11.48,0,0,1,.19-3.65,23.24,23.24,0,0,1,1.54-3.85h-7.5C342.9,103.82,343.29,105.74,344.05,107.67Z"/><path class="cls-2" d="M350.78,100.74h-8.46a2.38,2.38,0,0,0,.2,1.16H350c.2-.19.2-.58.39-.77S350.78,100.94,350.78,100.74Z"/><path class="cls-1" d="M86.17,75c-.32,0-.32.33-.64.33V76c0,.33.32.33.64.65s.65.65,1,.32a1,1,0,0,1,.65-.32c0-.32.32-.65,0-1a.7.7,0,0,0-.65-.65C86.82,75,86.5,74.7,86.17,75Z"/><path class="cls-1" d="M85.85,69.2v3.24c0,.32.32.32.65.32h.64c.33,0,.33-.32.65-.65v-5.5H85.53C85.53,67.58,85.85,68.55,85.85,69.2Z"/><path class="cls-1" d="M86.82,60.79,84.88,55a26.11,26.11,0,0,0-2.59-5.18c-.32-.32-.32-.64-.65-1s-.64-.64-1-.64c-.32-.33-.32-.33-.64-.33s-.33.33-.65.33a1,1,0,0,0-.32.64c0,.33,0,.33.32.65l1,1a5.24,5.24,0,0,1,1,1.94c.32,1,1,1.94,1.29,2.91s1,1.94,1.3,2.91a13.42,13.42,0,0,1,.65,1.94,14.55,14.55,0,0,0,.64,2.59v.33h1.94A6.4,6.4,0,0,1,86.82,60.79Z"/><path class="cls-1" d="M85.53,66.61h1.94V66c0-1.3-.33-2.27-.33-3.56H85.2c0,1,.33,1.94.33,3.23Z"/><path class="cls-2" d="M39.6,86h0V88h.32A4.14,4.14,0,0,1,39.6,86Z"/><path class="cls-3" d="M87.47,71.79v.65c0,.32-.33.32-.65.64h-.65c-.32,0-.32-.32-.64-.32,0-.32-.33-.32,0-.65a6.8,6.8,0,0,0,0-2.59,7,7,0,0,0-.33-2.58H72.91a9.76,9.76,0,0,1-1.29,3.23,36.66,36.66,0,0,1-1.94,3.56c-1,1.62-1.94,3.23-2.91,4.53a22.17,22.17,0,0,1-3.56,4.2c-1,1-1.94,2.27-2.91,3.24H88.76l1-4.85a47.07,47.07,0,0,0,.65-11.65c0-1-.33-1.94-.33-2.59H87.14A9.26,9.26,0,0,1,87.47,71.79Zm.32,3.88v1c0,.32-.32.32-.65.32a1.21,1.21,0,0,1-1-.32.69.69,0,0,1-.64-.65v-.64c0-.33.32-.33.64-.33h1A.7.7,0,0,1,87.79,75.67Z"/><path class="cls-3" d="M39.6,86H53.83A30.18,30.18,0,0,1,59,80.2a43.21,43.21,0,0,0,6.47-6.79A81.06,81.06,0,0,0,70,66.61H42.51a42.3,42.3,0,0,0-1.62,6.15,49.1,49.1,0,0,0-1,9.7A4.55,4.55,0,0,0,39.6,86Z"/><path class="cls-4" d="M72.26,58.85a28.59,28.59,0,0,0,.33-7.44,27.87,27.87,0,0,1,1,7.44v3.88H84.88v-.32c-.32-1-.32-1.94-.65-2.59a12.22,12.22,0,0,0-.65-1.94A11.24,11.24,0,0,0,82.29,55a3.67,3.67,0,0,0-1-2.59,5.24,5.24,0,0,0-1-1.94l-1-1c-.32,0-.32-.32-.32-.65s0-.32.32-.64.32-.33.65-.33.32,0,.64.33.65.32,1,.64.65.65.65,1A39.1,39.1,0,0,1,84.88,55l1.94,5.82c0,.65.32,1.3.32,1.94h2.59l-1-3.88a45.1,45.1,0,0,0-4.85-9.7,20.06,20.06,0,0,0-4.53-4.53A23.22,23.22,0,0,0,73.56,42a24.77,24.77,0,0,0-4.85-.32l-4.86,1A24.74,24.74,0,0,0,58,45.59a32.49,32.49,0,0,0-5.17,4.2A34.47,34.47,0,0,0,48.33,55a32.41,32.41,0,0,0-3.56,5.5c-.32.65-.65,1.62-1,2.26H71.29A16.71,16.71,0,0,0,72.26,58.85Z"/><path class="cls-4" d="M69.68,66.61c.32-.32.32-.64.64-1,.33-1,1-1.94,1.3-2.91H44.12a20.21,20.21,0,0,0-1.61,3.88Z"/><path class="cls-4" d="M73.23,66.61h12.3v-1c0-1-.33-2.26-.33-3.23H73.88A13.58,13.58,0,0,1,73.23,66Z"/><path class="cls-4" d="M87.47,66.29v.65h2.91c-.33-1.3-.33-2.59-.65-3.88H87.14C87.14,64,87.47,65,87.47,66.29Z"/><path class="cls-2" d="M57.06,92.17a21.06,21.06,0,0,0-1.29,6.14,18.83,18.83,0,0,0,.65,6.15,4.67,4.67,0,0,0,.64,1.94l1,1.94a2.52,2.52,0,0,0,1.3,1.29c.64.33,1,.65,1.61.65a38.91,38.91,0,0,0,6.15-.65,20.45,20.45,0,0,0,5.82-1.94,25.76,25.76,0,0,0,6.79-4.85,32.57,32.57,0,0,0,5.18-6.47,30.27,30.27,0,0,0,3.23-7.44c0-.32.33-.65.33-1H59A17.31,17.31,0,0,0,57.06,92.17Z"/><path class="cls-2" d="M42.18,97.66A36.63,36.63,0,0,0,48.33,108c.32.32.65.64,1,.64h1a.7.7,0,0,0,.65-.64,1.19,1.19,0,0,0-.33-1A13.16,13.16,0,0,1,49,101.22a19,19,0,0,1,.32-6.14,38.64,38.64,0,0,1,2.59-6.47H39.27C40.24,91.2,40.89,94.43,42.18,97.66Z"/><path class="cls-2" d="M53.5,86H39.27A4,4,0,0,0,39.6,88H52.21c.32-.32.32-1,.65-1.29S53.5,86.34,53.5,86Z"/><path class="cls-2" d="M59.65,87c-.32.32-.32.65-.65.65H88.76c.32-.65.32-1.3.65-1.94H60.94Z"/><path class="cls-1" d="M118.16,103.26c-.19,0-.19.19-.39.19v.39c0,.19.2.19.39.38s.38.39.57.2a.61.61,0,0,1,.39-.2c0-.19.19-.38,0-.57a.41.41,0,0,0-.39-.39C118.54,103.26,118.35,103.07,118.16,103.26Z"/><path class="cls-1" d="M118,99.8v1.92c0,.2.19.2.38.2h.38c.2,0,.2-.2.39-.39V98.26h-1.35C117.77,98.84,118,99.42,118,99.8Z"/><path class="cls-1" d="M118.54,94.8l-1.15-3.46a15.46,15.46,0,0,0-1.54-3.07c-.19-.2-.19-.39-.38-.58s-.39-.38-.58-.38c-.19-.2-.19-.2-.39-.2s-.19.2-.38.2a.59.59,0,0,0-.19.38c0,.19,0,.19.19.38l.58.58a3.16,3.16,0,0,1,.57,1.15c.2.58.58,1.16.77,1.74s.58,1.15.77,1.73a7.93,7.93,0,0,1,.39,1.15,8.86,8.86,0,0,0,.38,1.54v.19h1.15A3.81,3.81,0,0,1,118.54,94.8Z"/><path class="cls-1" d="M117.77,98.26h1.16v-.38c0-.77-.2-1.35-.2-2.12h-1.15c0,.58.19,1.16.19,1.93Z"/><path class="cls-2" d="M90.48,109.8h0V111h.19A2.45,2.45,0,0,1,90.48,109.8Z"/><path class="cls-3" d="M118.93,101.34v.38c0,.2-.2.2-.39.39h-.38c-.19,0-.19-.19-.39-.19,0-.2-.19-.2,0-.39a3.85,3.85,0,0,0,0-1.54,4.24,4.24,0,0,0-.19-1.53h-7.3a6.13,6.13,0,0,1-.77,1.92,20,20,0,0,1-1.16,2.11,29.22,29.22,0,0,1-1.73,2.69,12.71,12.71,0,0,1-2.11,2.5c-.58.58-1.15,1.35-1.73,1.93H119.7l.57-2.89a27.73,27.73,0,0,0,.39-6.92c0-.58-.2-1.15-.2-1.54h-1.73A5.48,5.48,0,0,1,118.93,101.34Zm.19,2.31v.57c0,.2-.19.2-.39.2a.68.68,0,0,1-.57-.2.42.42,0,0,1-.39-.38v-.39c0-.19.2-.19.39-.19h.57A.41.41,0,0,1,119.12,103.65Z"/><path class="cls-3" d="M90.48,109.8h8.45a17.89,17.89,0,0,1,3.08-3.46,25.53,25.53,0,0,0,3.84-4,47.35,47.35,0,0,0,2.7-4H92.21a26.05,26.05,0,0,0-1,3.66,29.6,29.6,0,0,0-.57,5.76,2.68,2.68,0,0,0-.19,2.12Z"/><path class="cls-4" d="M109.89,93.65a16.82,16.82,0,0,0,.19-4.42,16.12,16.12,0,0,1,.58,4.42V96h6.73v-.2a14.58,14.58,0,0,0-.39-1.53,7.46,7.46,0,0,0-.38-1.16,6.72,6.72,0,0,0-.77-1.73,2.19,2.19,0,0,0-.58-1.54,3.16,3.16,0,0,0-.57-1.15l-.58-.58c-.19,0-.19-.19-.19-.38s0-.19.19-.38.19-.2.38-.2.2,0,.39.2.38.19.58.38.38.38.38.58a23.18,23.18,0,0,1,1.54,3.07l1.15,3.46c0,.39.19.77.19,1.16h1.54l-.57-2.31a26.84,26.84,0,0,0-2.89-5.77,12,12,0,0,0-2.69-2.69,13.82,13.82,0,0,0-3.46-1.54,14.68,14.68,0,0,0-2.88-.19l-2.89.58a14.53,14.53,0,0,0-3.46,1.73,19.6,19.6,0,0,0-3.07,2.5,20.2,20.2,0,0,0-2.69,3.07,19.31,19.31,0,0,0-2.12,3.27c-.19.39-.38,1-.58,1.35h16.34A9.78,9.78,0,0,0,109.89,93.65Z"/><path class="cls-4" d="M108.35,98.26c.2-.19.2-.38.39-.57.19-.58.57-1.16.77-1.73H93.17a11.25,11.25,0,0,0-1,2.3Z"/><path class="cls-4" d="M110.47,98.26h7.3v-.57c0-.58-.19-1.35-.19-1.93h-6.73a8.3,8.3,0,0,1-.38,2.12Z"/><path class="cls-4" d="M118.93,98.07v.39h1.73c-.2-.77-.2-1.54-.39-2.31h-1.54C118.73,96.73,118.93,97.3,118.93,98.07Z"/><path class="cls-2" d="M100.86,113.45a12.22,12.22,0,0,0-.77,3.65,11.42,11.42,0,0,0,.38,3.66,2.67,2.67,0,0,0,.39,1.15l.57,1.15a1.48,1.48,0,0,0,.77.77c.39.19.58.39,1,.39a23.94,23.94,0,0,0,3.66-.39,12.46,12.46,0,0,0,3.46-1.15,15.33,15.33,0,0,0,4-2.89,19.17,19.17,0,0,0,3.08-3.84,17.94,17.94,0,0,0,1.92-4.42c0-.19.19-.39.19-.58H102A9.71,9.71,0,0,0,100.86,113.45Z"/><path class="cls-2" d="M92,116.72a21.61,21.61,0,0,0,3.66,6.15c.19.19.38.38.57.38h.58a.41.41,0,0,0,.38-.38.73.73,0,0,0-.19-.58,7.75,7.75,0,0,1-1-3.46,11.5,11.5,0,0,1,.19-3.65,22.79,22.79,0,0,1,1.54-3.84h-7.5C90.86,112.87,91.24,114.8,92,116.72Z"/><path class="cls-2" d="M98.74,109.8H90.28a2.34,2.34,0,0,0,.2,1.15H98c.19-.19.19-.58.39-.77S98.74,110,98.74,109.8Z"/><path class="cls-2" d="M102.39,110.37c-.19.2-.19.39-.38.39H119.7c.19-.39.19-.77.38-1.15H103.16Z"/><path class="cls-5" d="M55,202.54a71.1,71.1,0,0,1-10.5.77,31.53,31.53,0,0,1-10.33-1.71A5.84,5.84,0,0,1,32,200.2a13.58,13.58,0,0,1-1.71-1.63,7.09,7.09,0,0,1-1.4-1.94,2,2,0,0,0-.39-1.17,1.34,1.34,0,0,1-.23-1.17,1.61,1.61,0,0,1,.93-1.16,1.37,1.37,0,0,1,1.56.23,2.17,2.17,0,0,1,.38.47.82.82,0,0,0,.39.31l.31.31a1.91,1.91,0,0,0,.47.31,12,12,0,0,0,3.11,2.33,9.37,9.37,0,0,0,2,.63,26,26,0,0,0,3,.46c1,.1,2,.18,3,.24s1.68.07,2.09.07q2.34,0,4.59-.15c1.5-.11,3-.26,4.43-.47A2.84,2.84,0,0,1,56,198a4.78,4.78,0,0,0,1.48.23,26.08,26.08,0,0,0,2.79-.15l2.8-.31a1.67,1.67,0,0,1,1.48.93,1.3,1.3,0,0,1-.23,1.71,5,5,0,0,1-3.11.93,17.27,17.27,0,0,0-3.42.47,8.06,8.06,0,0,0-1.4.39A11.23,11.23,0,0,1,55,202.54Zm15.54-9.18q-6.53.15-12.82.78a67.06,67.06,0,0,1-12.83,0,52,52,0,0,1-6.22-1,14.44,14.44,0,0,1-5.59-2.57,9.59,9.59,0,0,1-2.72-3.73,22.66,22.66,0,0,1-1.48-4.66,19.23,19.23,0,0,1-.39-4.12q-.08-3-.15-6.3c-.06-2.17-.06-4.25,0-6.22s.07-3.31.07-4q.16-8.09.39-16.09c.16-5.33.29-10.65.39-15.93q.15-9.18.62-18.27t1.4-18.27q.15-2.18.24-4.5a44.66,44.66,0,0,0-.08-4.51A7.27,7.27,0,0,1,32,81.27,1.88,1.88,0,0,1,33.2,80a8.86,8.86,0,0,1,2.18-.39,20.69,20.69,0,0,1,2.49,0c.82.06,1.55.08,2.17.08H50.38c2.23,0,4.35,0,6.38-.08s3.34-.08,4-.08a10.89,10.89,0,0,1,1.71.16,1.9,1.9,0,0,1,1.4.93,6.43,6.43,0,0,1,.85,3.11q.24,2.34.24,3.42a24.29,24.29,0,0,1-.24,2.49c-.15,1.24-.31,2.59-.46,4s-.31,2.8-.47,4-.23,2.08-.23,2.49q-1.25,13.68-2.41,27.13T59.94,154.5a17.86,17.86,0,0,0-.08,3.18,7.72,7.72,0,0,0,.55,3.19,14.3,14.3,0,0,0,2.49.23c1.24.06,2.53.08,3.88.08h6.38q3.57.31,7.07.31a51.34,51.34,0,0,0,6.92-.46c.93-.11,1.91-.21,2.95-.31a3.73,3.73,0,0,1,2.65.62,2.76,2.76,0,0,1,.77,1.55,11.8,11.8,0,0,1,.16,1.87q.15,3.88.15,7.77c0,2.59.11,5.18.31,7.77a13.77,13.77,0,0,0,.24,2.18,29.2,29.2,0,0,1,.31,3c0,1.09.08,2.13.08,3.11a9.89,9.89,0,0,1-.16,2.1A2.83,2.83,0,0,1,93.44,192a4.73,4.73,0,0,1-1.78.7c-.73.1-2.1.18-4.12.23l-6.45.16-6.46.16C72.61,193.34,71.24,193.36,70.51,193.36Zm-14.3-89.7a.89.89,0,0,0,.62,1.09.74.74,0,0,0,1.09-.47,1.9,1.9,0,0,1,.23-.77,1.88,1.88,0,0,0,.24-.63.59.59,0,0,0,.08-.54.59.59,0,0,1,.07-.55c.73-.51,1.06-1.57,1-3.18s-.13-2.88-.23-3.81a5.08,5.08,0,0,1,.31-3,5.1,5.1,0,0,0,.31-3,11.63,11.63,0,0,0-1.32-2.18c-.67-.93-1.16-1.61-1.48-2a3.32,3.32,0,0,0-2-.93,9.36,9.36,0,0,0-2.48,0,19.92,19.92,0,0,1-4.28.15,12.2,12.2,0,0,0-4.28.47c-.51-.21-.88-.21-1.08,0a1,1,0,0,0-.31.78,1.17,1.17,0,0,0,.38.85,1.21,1.21,0,0,0,1.17.23,14.83,14.83,0,0,1,4.59-.23,27.21,27.21,0,0,0,4.58.08,2.56,2.56,0,0,1,1.09-.08,1.51,1.51,0,0,1,.93.39,12.46,12.46,0,0,1,1,1.24,2.8,2.8,0,0,1,.7,1.4,4.14,4.14,0,0,1-.23,1.94,10.07,10.07,0,0,0-.39,2v2.8a15.68,15.68,0,0,1-.15,2.8c0,.2,0,.69-.08,1.47a3.58,3.58,0,0,0,.08,1.48,1.62,1.62,0,0,1,.15,1.16C56.42,102.86,56.31,103.25,56.21,103.66Zm-.62,8.86a1.21,1.21,0,0,0,1,.86.92.92,0,0,0,1-.55q.15-.3.39-.93a3.05,3.05,0,0,0,.23-.93.92.92,0,0,0-.77-1.32c-.73-.16-1.2.07-1.4.7a4.63,4.63,0,0,0-.32,1.08A6.92,6.92,0,0,0,55.59,112.52Z"/><path class="cls-5" d="M155.08,193.21q-9.33.15-18.65-.16t-18.81-.47h-7.78a12.93,12.93,0,0,1-2.48-.23,4.62,4.62,0,0,1-2.18-1,6.51,6.51,0,0,1-2.25-3.57,41.46,41.46,0,0,1-.86-4.36,70.31,70.31,0,0,1-.7-11c0-3.67.18-7.38.39-11.11a4.77,4.77,0,0,0-.23-.86,3.54,3.54,0,0,1-.24-1,50.47,50.47,0,0,1-.15-6.92c.1-2.22.26-4.53.46-6.91a92.44,92.44,0,0,0,.24-13.61,134.1,134.1,0,0,1-.08-13.76c0-.72.08-2.09.23-4.12s.29-4.19.39-6.53.23-4.5.39-6.52.23-3.35.23-4q.31-3.57.55-7.07A23.1,23.1,0,0,1,105,83.29a12.76,12.76,0,0,1,1.25-2.64,6.29,6.29,0,0,1,2-2,5.45,5.45,0,0,1,2.64-.85c.93,0,1.81-.08,2.64-.08.63,0,1.87,0,3.74.15s3.83.26,5.9.47l5.91.62c1.87.21,3.11.37,3.73.47a94.36,94.36,0,0,0,11.51.54q5.74-.08,11.5-.23h2.33c1.14,0,2.31,0,3.5.08a33.16,33.16,0,0,1,3.42.31c1.09.15,1.89.28,2.41.39a6.8,6.8,0,0,1,1.79.93A3,3,0,0,1,170.47,83a6,6,0,0,1,.16,1.71c0,.83,0,1.71-.08,2.65a19.49,19.49,0,0,1-.31,2.64,11.65,11.65,0,0,0-.23,1.87,40.22,40.22,0,0,0-.24,5.59c.06,1.87.13,3.68.24,5.44.1.94.18,1.84.23,2.72a6.24,6.24,0,0,1-.39,2.57,4,4,0,0,1-1.71,2.18,9.33,9.33,0,0,1-3.65.7c-1.61,0-3.34,0-5.21,0s-3.65-.18-5.36-.39a34.63,34.63,0,0,0-4-.31q-3.1-.31-6.29-.47c-2.13-.1-4.28-.16-6.45-.16a21.4,21.4,0,0,0-3.27.24c-1,.15-2.13.28-3.26.39,0,.41,0,1.24.07,2.48s.08,2.59.08,4v6.68c1.35.1,2.69.18,4,.23s2.7.08,4,.08h2.25c1.09,0,2.2,0,3.34.08s2.2.13,3.19.23a20.1,20.1,0,0,1,2.1.31,3.6,3.6,0,0,1,1.63,1.17,2.6,2.6,0,0,1,.7,1.63,29.54,29.54,0,0,1,.23,3.27q.07,2.33.24,4.89c.1,1.71.15,3.35.15,4.9v3.11a7.45,7.45,0,0,1-.62,2.25,5.08,5.08,0,0,1-1.4,1.79,6.84,6.84,0,0,1-2.41,1.09,11.7,11.7,0,0,1-2.72.31h-3c-1.51,0-3.11,0-4.82-.08s-3.32-.08-4.82-.08h-3v1.95c0,1,0,2.07-.08,3.26s-.08,2.31-.08,3.35v2a55.89,55.89,0,0,0,7.08.77l7.07.31h8.47q4.27,0,8.48-.31a9.63,9.63,0,0,1,3.18.24,3.71,3.71,0,0,1,2.41,1.63,5.91,5.91,0,0,1,.62,2.41,34.9,34.9,0,0,1,.16,3.5c0,1.24,0,2.46-.08,3.65s-.08,2-.08,2.57q0,3.57.24,7.07t.54,7.07a8.49,8.49,0,0,0,.08,1.17,2,2,0,0,1-.23,1.16,2.36,2.36,0,0,1-1.25,1.4,6.46,6.46,0,0,1-1.86.62,45.94,45.94,0,0,1-4.67.39C158.35,193,156.74,193.1,155.08,193.21Zm-37.77,5.59a39.71,39.71,0,0,0-4.28.55,13.28,13.28,0,0,1-4.27.08,9.22,9.22,0,0,1-4.2-1.56,2.11,2.11,0,0,1-.86-2.41,1.35,1.35,0,0,1,2-1,22.88,22.88,0,0,0,3.81.55q2.72.23,5.82.38c2.08.11,4,.18,5.91.24s3.16.07,3.89.07c1,.11,1.53.63,1.48,1.56s-.6,1.4-1.64,1.4c-1.24-.11-2.51-.16-3.81-.16A22.75,22.75,0,0,0,117.31,198.8Zm17.56-69.64a15.18,15.18,0,0,1,1.64.15c.77.11,1.63.21,2.56.31s1.79.19,2.57.24,1.32.07,1.63.07a1.47,1.47,0,0,0,1.09-1.16,1.19,1.19,0,0,0-.63-1.32,3.58,3.58,0,0,0-1.39-.08l-2.1.15c-.78.06-1.51.14-2.18.24a11.44,11.44,0,0,1-1.48.15,6.2,6.2,0,0,1-.85-.15,7.06,7.06,0,0,0-.86-.16,5.84,5.84,0,0,0-.93.08,1.23,1.23,0,0,1-.78-.08.9.9,0,0,0-1.16.7c-.16.57,0,.91.54,1a2,2,0,0,0,1.17,0A8.13,8.13,0,0,1,134.87,129.16ZM156,87.8c.31.31.82.26,1.55-.15a1.36,1.36,0,0,0,.93-1.56,1.6,1.6,0,0,0-1.24-1.4,4.18,4.18,0,0,0-2.1-.07,9.59,9.59,0,0,1-2.1.23h-1.71c-.83,0-1.68,0-2.56-.08l-2.49-.15a6.8,6.8,0,0,1-1.63-.24,3.62,3.62,0,0,0-1.63-.23c-.58,0-1.12.08-1.64.08a11.73,11.73,0,0,1-2.48.08,3.81,3.81,0,0,0-2.34.38,1,1,0,0,0-.31,1.25,2,2,0,0,0,1.09.93,9,9,0,0,0,3.11.08,21.29,21.29,0,0,1,3.26-.23h6.38a24.21,24.21,0,0,1,3.5.23A5,5,0,0,1,156,87.8Zm-9.18,40.73c-.52,1.15-.38,1.85.39,2.1s1.32-.23,1.63-1.47a.92.92,0,0,0-.77-1.17A.94.94,0,0,0,146.84,128.53Zm15.08-43.06a.84.84,0,0,0-.7.7,1.65,1.65,0,0,0,.16,1,2.08,2.08,0,0,0,.7.78.67.67,0,0,0,.93-.16c.73-.51.93-1.08.62-1.71A1.33,1.33,0,0,0,161.92,85.47Z"/><path class="cls-5" d="M260.8,194h-3.66c-1.81,0-3.75,0-5.83-.07l-5.83-.16c-1.81-.05-3.08-.13-3.81-.23a19.5,19.5,0,0,1-2.4-.62c-1-.32-1.59-.73-1.79-1.25a11.42,11.42,0,0,1-1-4.51q-.24-3.1-.39-6.6t-.16-6.69v-4.74c-1.45,0-2.85,0-4.19.16s-2.75.26-4.2.46a37,37,0,0,1-9.64,0q-4.81-.61-9.8-.93c-.1.73-.23,2.07-.38,4s-.31,4-.47,6.22-.29,4.25-.39,6.22a25.78,25.78,0,0,0,0,4,2.4,2.4,0,0,1,.16,1.4,1.51,1.51,0,0,1-.47.54,1.63,1.63,0,0,0-.47.55,2.68,2.68,0,0,1-1.16,1.09,3.43,3.43,0,0,1-1.63.46c-1.66.21-3.35.36-5.06.47a27.38,27.38,0,0,1-5.05-.16q-3-.31-5.75-.7c-1.87-.26-3.73-.44-5.6-.54H180a5.86,5.86,0,0,1-1.87-.16,2.26,2.26,0,0,1-1.48-.85,1.65,1.65,0,0,1-.23-1.63,1.68,1.68,0,0,0,0-1,5.63,5.63,0,0,1-.15-1q.3-11,.54-21.92a121.09,121.09,0,0,1,2.41-21.61c.52-2.49,1-5,1.55-7.39s1-4.84,1.56-7.23q2.18-9.63,4.9-19a76.59,76.59,0,0,1,7.69-17.73c.93-1.65,1.92-3.23,3-4.74a26,26,0,0,1,3.74-4.27,16.5,16.5,0,0,1,5.83-3.27c2.22-.72,4.48-1.34,6.76-1.86a63.62,63.62,0,0,1,7.69-.78c2.54-.1,5.11-.16,7.7-.16a79.25,79.25,0,0,1,8.24.78,22.5,22.5,0,0,1,7.77,2.64A21.76,21.76,0,0,1,251.94,87a57.26,57.26,0,0,1,4.66,7.23,68.26,68.26,0,0,1,5.6,14q2,7.31,3.42,14.77,1.69,8.24,2.87,16.32t1.95,16.33c.1.83.2,2.48.31,5s.2,5.16.31,8,.18,5.52.23,8,.08,4.15.08,5c0,1.45.05,2.93.15,4.43a15.64,15.64,0,0,1-.31,4.43,3.05,3.05,0,0,1-.85,1.32,4.44,4.44,0,0,1-1.48,1c-.31.1-.83.23-1.55.39s-1.53.28-2.41.39-1.71.2-2.49.31A15.06,15.06,0,0,1,260.8,194ZM192.86,88.43a1.18,1.18,0,0,1-1.63.93A2.15,2.15,0,0,1,189.91,86l.93-1.79a18.25,18.25,0,0,1,3.34-3.89,35.58,35.58,0,0,1,4.12-3.11,28,28,0,0,1,5.91-2.72q3.1-1,6.22-1.94a2.47,2.47,0,0,1,.62-.39,1.76,1.76,0,0,1,.62-.23c1-.21,2.12-.44,3.27-.7a3.43,3.43,0,0,1,2.95.54A2.77,2.77,0,0,1,219,72.88a2.15,2.15,0,0,1,.31,1.55,1.91,1.91,0,0,1-1.4,1.4,1.67,1.67,0,0,1-1.87-.62.91.91,0,0,0-.93-.15c-.41.1-.78.2-1.09.31a11.55,11.55,0,0,0-1.32.15,10.19,10.19,0,0,1-1.32.16,40.43,40.43,0,0,0-4.43,1.55,30.18,30.18,0,0,0-4.28,2.18c-.31.21-.85.65-1.63,1.32l-2.41,2.1c-.83.73-1.61,1.4-2.33,2a8.4,8.4,0,0,0-1.4,1.4c-.21.21-.54.57-1,1.09S193.07,88.22,192.86,88.43Zm26.74,56c.52,0,1.5.06,3,.16s3,.26,4.67.46,3.21.42,4.66.63a27.21,27.21,0,0,0,3,.31q-.15-2-.7-6.61t-1.24-9.64c-.47-3.37-1-6.53-1.55-9.48a35.66,35.66,0,0,0-1.64-6.3,16.84,16.84,0,0,0-1.24-1.94,5.15,5.15,0,0,0-1.55-1.63,3.74,3.74,0,0,0-3.81.23,10.2,10.2,0,0,0-3.35,2.88,19.74,19.74,0,0,0-2.17,3.88q-.93,2.18-1.71,4.35a59.8,59.8,0,0,0-3,11.2l-1.86,11.5a30.42,30.42,0,0,1,4.27,0A27.79,27.79,0,0,0,219.6,144.39Zm31.71-44.62a1,1,0,0,0,1.56.16,1.41,1.41,0,0,0,.62-1.71c-.21-.41-.52-1-.93-1.87s-.88-1.65-1.4-2.48-1-1.61-1.56-2.34A13.86,13.86,0,0,0,248.36,90c-.31-.31-1.09-.93-2.33-1.87a26.78,26.78,0,0,1-2.33-1.86,7.85,7.85,0,0,0-2.8-1.32c-1-.26-2.13-.49-3.27-.7a24.87,24.87,0,0,0-3.42-.39,6.49,6.49,0,0,0-3.26.7c-.42.21-.57.49-.47.85a1,1,0,0,0,.93.7,2.13,2.13,0,0,0,1.09.08c.52,0,.88-.08,1.09-.08a29.61,29.61,0,0,0,3.81.39,8.36,8.36,0,0,1,3.65,1,5.78,5.78,0,0,1,1.4,1.17,6.18,6.18,0,0,0,1.4,1.16,9.52,9.52,0,0,0,1.48,1,6.16,6.16,0,0,1,1.32,1,22.25,22.25,0,0,1,1.94,2.48A16.53,16.53,0,0,1,250.23,97a10.2,10.2,0,0,1,.46,1.47A3.33,3.33,0,0,0,251.31,99.77Zm4.82,100.74a46.38,46.38,0,0,1-7.07.7A64.63,64.63,0,0,1,242,201a12,12,0,0,1-5.45-1.71,14.53,14.53,0,0,1-2.79-1.94,3.59,3.59,0,0,1-1.56-2.57,1.51,1.51,0,0,1,.86-1.4,1.36,1.36,0,0,1,1.63.16,14.93,14.93,0,0,0,8.55,3.73h12.9a1.69,1.69,0,0,1,0,3.26Zm-2.95-93.74q0,.78.54.93a1.53,1.53,0,0,0,1.09-.08,1.44,1.44,0,0,0,.78-.77,1.15,1.15,0,0,0-.23-1.17l-.16-.31a1,1,0,0,0-1.4-.54,1.07,1.07,0,0,0-.62,1.47Z"/><path class="cls-5" d="M367.13,191.81a10,10,0,0,1-4.66,1.16q-3.27.24-6.92.16c-2.44,0-4.8-.16-7.07-.31s-4-.29-5.13-.39a22.81,22.81,0,0,0-2.57.15,5.31,5.31,0,0,1-2.56-.31,3.35,3.35,0,0,1-2.18-2.48,60.81,60.81,0,0,0-2.41-6.69q-1.78-4.35-4.2-9.64t-5.13-11.11q-2.71-5.83-5.28-11.12t-4.82-9.33c-1.51-2.69-2.67-4.71-3.5-6.06,0,.83,0,2.31.08,4.43s.15,4.56.31,7.31.31,5.62.46,8.63.32,5.88.47,8.63.31,5.18.47,7.3.23,3.6.23,4.43,0,1.92.16,3.27A38.76,38.76,0,0,1,313,184a30.77,30.77,0,0,1-.39,4,5.92,5.92,0,0,1-1.08,2.8A4,4,0,0,1,309,192.2a20.71,20.71,0,0,1-2.95.23c-.73,0-2.16-.05-4.28-.16l-6.92-.31c-2.49-.1-4.79-.21-6.92-.31s-3.55-.15-4.27-.15a7.51,7.51,0,0,1-1.56-.16,1.41,1.41,0,0,1-1.08-.78,4.28,4.28,0,0,1-.7-1.86,14.41,14.41,0,0,1-.24-2.72c0-1,0-1.92.08-2.8s.08-1.58.08-2.1q0-9.17-.08-18.11t.23-18q.63-14,1.64-27.75a215.71,215.71,0,0,0,.23-27.75,15.33,15.33,0,0,0-.16-1.86c-.1-.83-.18-1.66-.23-2.49a18.1,18.1,0,0,1,0-2.33,2.4,2.4,0,0,1,.54-1.56A2,2,0,0,1,284,80.5a8.82,8.82,0,0,0,1.79-.16q5.9-.93,12-1.4a65.46,65.46,0,0,1,12,.16c.41.1,1.11.31,2.1.62a8.79,8.79,0,0,1,1.94.78A4.51,4.51,0,0,1,315,82.67c.37,1.14.65,2,.86,2.49q5,13.07,10.18,25.73t10.19,25.88q-.17-8.39.31-16.47t.62-16.48c0-.83,0-2.31-.08-4.43s-.1-4.38-.16-6.77-.05-4.61,0-6.68a23.65,23.65,0,0,1,.39-4.36,3.35,3.35,0,0,1,2-2.48,11,11,0,0,1,3.58-.55c1.66,0,3.42,0,5.29,0s3.62.16,5.28.31,2.9.24,3.73.24H361a31.32,31.32,0,0,1,3.89.23,6.89,6.89,0,0,1,3,1.09,3.3,3.3,0,0,1,1.4,2.56v2.8c0,1.35,0,2.83-.08,4.43s-.08,3.11-.08,4.51v2.72q0,3-.15,9.72t-.31,15.55q-.17,8.78-.31,18.42t-.24,18.42q-.08,8.79,0,15.55t.39,9.71a15.18,15.18,0,0,1,.16,3.89A3.56,3.56,0,0,1,367.13,191.81ZM321.89,85.94c.21,1-.15,1.63-1.09,1.79s-1.5-.29-1.71-1.33c-.1-.41-.26-1.11-.46-2.09s-.44-2-.7-3.11-.55-2.1-.86-3a9.37,9.37,0,0,0-.77-1.87,2.88,2.88,0,0,0-2.34-.78h-2.64a67.13,67.13,0,0,0-8.39-.08q-4.2.24-8.4.55a8.27,8.27,0,0,1-2.87-.62,4.6,4.6,0,0,1-2.26-1.56,1.56,1.56,0,0,1,1.24-2.33,4,4,0,0,1,1.64.39,7.07,7.07,0,0,0,1.63.54,9.75,9.75,0,0,0,1.24-.15,10.54,10.54,0,0,1,1.25-.16,17.17,17.17,0,0,1,2.79-.15h4.36c1.55,0,3,0,4.35.07s2.28.08,2.8.08h3.42a6.23,6.23,0,0,1,3.26.93,3,3,0,0,1,1.4,1.48,15.56,15.56,0,0,1,.78,2.1c.1.31.26.91.47,1.79s.44,1.81.7,2.8.49,1.94.7,2.87S321.79,85.63,321.89,85.94Zm26.9,113.8a17.52,17.52,0,0,1-3.34.38,4.5,4.5,0,0,1-3-.69,1.77,1.77,0,0,1-.62-2,1.7,1.7,0,0,1,1.56-1.32A61.88,61.88,0,0,1,351,196l7.7.31h2a6.26,6.26,0,0,1,1.86.15,1.47,1.47,0,0,1,1.33,1.25,1.51,1.51,0,0,1-.86,1.71,1.6,1.6,0,0,1-1.09.23,11.64,11.64,0,0,0-1.4-.08c-.52,0-1.32,0-2.41-.08s-2.25-.07-3.49-.07-2.41,0-3.5.07A16.19,16.19,0,0,0,348.79,199.74ZM362,96.82c-.21,1,.16,1.45,1.09,1.24s1.19-.93,1.09-2.17a9.48,9.48,0,0,1,.15-3.11,15.62,15.62,0,0,0,.31-3.11,6.1,6.1,0,0,0-.62-2.8q-.15-1.08-.39-2.1a2.83,2.83,0,0,0-1-1.63,1,1,0,0,0-.77-.31,1.67,1.67,0,0,1-.78-.16,47.61,47.61,0,0,0-5.44-.62,49.35,49.35,0,0,0-5.44,0c-.52,0-1.12,0-1.79.08s-1.07.34-1.17.85c-.21.83.18,1.25,1.17,1.25a20.85,20.85,0,0,0,2.72-.16c1.34,0,2.67,0,4-.08a20.6,20.6,0,0,1,4,.24c.52.1,1.06.23,1.63.39a1.26,1.26,0,0,1,1,1,5.84,5.84,0,0,1-.08.93,5.82,5.82,0,0,0-.07.93,3.91,3.91,0,0,0,.07,2.33,11.43,11.43,0,0,1,.55,2.34,10,10,0,0,1,.07,2.41A11.26,11.26,0,0,1,362,96.82Zm-.46,6.84c-.32,1.14,0,1.69.85,1.63s1.48-.64,1.79-1.78a1.18,1.18,0,0,0-.47-1.25,1.17,1.17,0,0,0-1.4,0A2.47,2.47,0,0,0,361.54,103.66Z"/><path class="cls-5" d="M68,284.69q-3.39.21-6.66.11a55.09,55.09,0,0,1-6.66-.64,34.86,34.86,0,0,1-5.38-1.48,24.62,24.62,0,0,1-5-2.43,33.66,33.66,0,0,1-6.81-5.65,26.55,26.55,0,0,1-4.92-7.34,33.65,33.65,0,0,1-3-11.15,70,70,0,0,1-.11-11.57,58.05,58.05,0,0,1,2.32-11.88,51,51,0,0,1,4.86-11A40.64,40.64,0,0,1,42,214.49a29.54,29.54,0,0,1,6.86-5.55,25.25,25.25,0,0,1,11.94-3.38,34.64,34.64,0,0,1,8.88.74A31.22,31.22,0,0,1,78,209.36a25.51,25.51,0,0,1,7.82,6.76,25.94,25.94,0,0,1,3.75,7.19,27.13,27.13,0,0,1,1.43,8,15.49,15.49,0,0,1-.42,3.43,2.52,2.52,0,0,1-1.91,2.17,18.93,18.93,0,0,1-2,.21l-3.12.21-3.17.21a14.68,14.68,0,0,0-1.9.21A8.23,8.23,0,0,0,77,238l-2.27.42c-.81.14-1.57.25-2.28.31a2.9,2.9,0,0,1-1.48-.1,3,3,0,0,1-1.42-1.11,11.67,11.67,0,0,1-1-1.64,31.37,31.37,0,0,1-1.1-3.27,5.35,5.35,0,0,0-1.75-2.75,3.68,3.68,0,0,0-1.58-.74,3.91,3.91,0,0,0-1.8,0,13.69,13.69,0,0,0-6.44,3.28A14.44,14.44,0,0,0,52,238.15a16.89,16.89,0,0,0-1,7.08,17.47,17.47,0,0,0,2.17,7.24,13.63,13.63,0,0,0,2,2.69A6.78,6.78,0,0,0,58,256.91a12.61,12.61,0,0,0,4.17.63,19.15,19.15,0,0,0,4.7-.58,20.25,20.25,0,0,0,4.39-1.64,8.88,8.88,0,0,0,3.22-2.64,9.7,9.7,0,0,1,1-1.06,2,2,0,0,1,1.22-.63,1.71,1.71,0,0,1,1.06.63l.84,1.06c1.55,2.4,3.13,4.75,4.76,7.08a80,80,0,0,0,5.28,6.76c.28.35.84,1,1.69,1.8a6.15,6.15,0,0,1,1.48,1.9,2.19,2.19,0,0,1-.53,1.79c-.49.71-.88,1.24-1.16,1.59a30.93,30.93,0,0,1-9.93,7.71A31.83,31.83,0,0,1,68,284.69ZM34.19,222.25a1.07,1.07,0,0,1-1.32.69,1,1,0,0,1-1-1.11,4.82,4.82,0,0,1,.32-1.69,15.67,15.67,0,0,0,.53-1.69,1.23,1.23,0,0,0,0-.63,1.27,1.27,0,0,1,.06-.64,2.4,2.4,0,0,1,.89-1.37,7.49,7.49,0,0,0,1.22-1.16c.56-.71,1.12-1.48,1.69-2.33A7.73,7.73,0,0,1,38,210.84c.74-.63,1.55-1.3,2.44-2s1.72-1.36,2.53-2a14,14,0,0,1,1.85-1.21c.21-.14.6-.37,1.16-.69s1.15-.62,1.74-.9l1.75-.79a8.18,8.18,0,0,1,1.27-.48,2.63,2.63,0,0,1,.89-.05,1.89,1.89,0,0,1,.8.26,1.44,1.44,0,0,1,.42,1.27,1.29,1.29,0,0,1-.85,1.06,41.33,41.33,0,0,0-5,2.27,20.4,20.4,0,0,0-4.49,3.22c-.22.21-.57.58-1.06,1.11s-1,1.11-1.53,1.75l-1.53,1.84c-.5.6-.85,1-1.06,1.22a7.79,7.79,0,0,0-.79,1.16,7.76,7.76,0,0,1-.8,1.16,5.9,5.9,0,0,0-.84,1.48C34.58,221.34,34.33,221.9,34.19,222.25ZM79.51,286a84.83,84.83,0,0,1-8.24,3A25.81,25.81,0,0,1,62.61,290a9.79,9.79,0,0,1-1.48-.26l-1.59-.37a1.23,1.23,0,0,1-.84-1.27,1.24,1.24,0,0,1,.84-1.27,1.91,1.91,0,0,1,1-.15,3.19,3.19,0,0,0,1-.06,24.42,24.42,0,0,1,4.28,0,20.17,20.17,0,0,0,4.38-.16,19.41,19.41,0,0,0,4-.84l3.86-1.27a1.9,1.9,0,0,0,.63-.16,1.89,1.89,0,0,1,.64-.16.93.93,0,0,1,1,.85A1,1,0,0,1,79.51,286Zm.32-65.5a1.07,1.07,0,0,0,.21,1.11.93.93,0,0,0,1.06.26,2.4,2.4,0,0,0,1.32-.79,1.09,1.09,0,0,0,0-1.32,8.75,8.75,0,0,0-.84-1.06l-1-1.06c-.56-.7-1.16-1.4-1.79-2.11a14.1,14.1,0,0,0-2.11-1.9,7.62,7.62,0,0,0-1.69-.9c-.78-.31-1.63-.63-2.54-.95s-1.8-.6-2.64-.84a7.43,7.43,0,0,0-1.9-.37,6.59,6.59,0,0,0-2.33.21c-.77.21-1.55.38-2.32.53a2.27,2.27,0,0,1-.74.15,1.25,1.25,0,0,0-.74.27c-.49.28-.57.6-.21.95a1.46,1.46,0,0,0,1.27.1c.56-.14,1-.24,1.37-.31a5.35,5.35,0,0,1,1.48-.21,12.76,12.76,0,0,1,1.58.1,3.38,3.38,0,0,1,.9.27c.46.17.76.3.9.37l1.16.42,1.8.69,1.79.68a6.55,6.55,0,0,1,1.17.53,4.69,4.69,0,0,1,1.1.9q.69.69,1.38,1.53c.46.56.9,1.11,1.32,1.64A14.12,14.12,0,0,0,79.83,220.46Zm2.85,6a.65.65,0,0,0,.9-.42,1.8,1.8,0,0,0,0-1.27c-.14-.78-.53-1-1.16-.64l-.21.22q-.63.21-.48,1A1.24,1.24,0,0,0,82.68,226.48Z"/><path class="cls-5" d="M119.55,286.28a3.19,3.19,0,0,1-2-.64,5.88,5.88,0,0,1-1.48-1.64,11.71,11.71,0,0,1-1.11-2.21,13.2,13.2,0,0,1-.69-2.28,26,26,0,0,1-.69-7.18,22.88,22.88,0,0,1,1.43-7.08,20.89,20.89,0,0,1,3.28-5.7q2.1-2.64,4.22-5.07t4-5a52.86,52.86,0,0,0,3.48-5.28q1.17-2,2.17-4.12a21.91,21.91,0,0,0,1.53-4.33,24.47,24.47,0,0,0,.63-8.46,82.22,82.22,0,0,0-1.26-8.45,31.87,31.87,0,0,1-.48,8.35,34.35,34.35,0,0,1-2.48,7.92,40,40,0,0,1-5.65,9,66.16,66.16,0,0,1-7.45,7.61,36.76,36.76,0,0,0-6.34,7.29,27.88,27.88,0,0,0-3.91,8.77,21.3,21.3,0,0,0-.53,7.08,16.74,16.74,0,0,0,2,6.76,1.22,1.22,0,0,1,.21,1.16,1.47,1.47,0,0,1-.74.79,2,2,0,0,1-1.22.16,2.16,2.16,0,0,1-1.21-.63,35.11,35.11,0,0,1-7.18-11.62,45.48,45.48,0,0,1-3-13.42,50.64,50.64,0,0,1,1.11-14.79,62.07,62.07,0,0,1,4.91-14.05,39,39,0,0,1,4-6.4,59.54,59.54,0,0,1,5.08-5.75,37,37,0,0,1,5.75-4.7,30.81,30.81,0,0,1,6.61-3.33,25.28,25.28,0,0,1,5.65-1.27,19,19,0,0,1,5.65.21,20.82,20.82,0,0,1,6.5,2.91,18.25,18.25,0,0,1,5.12,5,46.09,46.09,0,0,1,5.5,11.2,53.05,53.05,0,0,1,2.53,12.26,52.07,52.07,0,0,1-.63,13.2c-.57,3.1-1.27,6.13-2.12,9.09a32.65,32.65,0,0,1-3.69,8.35,36.08,36.08,0,0,1-6,7.55,30.53,30.53,0,0,1-7.87,5.55,26.43,26.43,0,0,1-6.71,2.27A55.19,55.19,0,0,1,119.55,286.28Zm28.74-44.38a1,1,0,0,0,.16.85,1.27,1.27,0,0,0,.58.42,1.14,1.14,0,0,0,.74,0,1.15,1.15,0,0,0,.63-.58,2.74,2.74,0,0,0,.11-.85,53.31,53.31,0,0,0-.37-6.23,41.81,41.81,0,0,0-1.22-6.13,38.5,38.5,0,0,0-2.43-6.44,47.55,47.55,0,0,0-3.38-5.92,4,4,0,0,0-.79-.95,7,7,0,0,0-1-.74.8.8,0,0,0-.8-.16,1.83,1.83,0,0,0-.63.48.81.81,0,0,0-.21.68,1.18,1.18,0,0,0,.37.69,12.13,12.13,0,0,1,1.16.95,18.57,18.57,0,0,1,1.27,2c.56,1,1.11,2,1.64,3.11s1,2.15,1.48,3.17a20.09,20.09,0,0,1,.89,2.28,25.27,25.27,0,0,1,.69,2.8c.25,1.23.48,2.53.69,3.91s.37,2.67.47,3.9A9.81,9.81,0,0,1,148.29,241.9Zm.11,5.71c.35.42.68.6,1,.53a1.14,1.14,0,0,0,.74-.53,1.4,1.4,0,0,0,.16-1,1.26,1.26,0,0,0-.85-.9,1.45,1.45,0,0,0-1-.06,1,1,0,0,0-.64.53,1.25,1.25,0,0,0-.05.79A.93.93,0,0,0,148.4,247.61Z"/><path class="cls-5" d="M163.4,285a8.07,8.07,0,0,1-2-.27,3.11,3.11,0,0,1-1.69-1,2.5,2.5,0,0,1-.53-1.16,7.88,7.88,0,0,1-.11-1.27c0-.5,0-1.5.06-3s.09-3.15.16-4.92.12-3.4.15-4.92.06-2.52.06-3,0-1.25.16-2.49.21-2.55.31-4,.21-2.71.32-3.91.16-2,.16-2.43v-3.81q0-2.75-.11-6.35t-.16-7.56c0-2.65-.07-5.17-.1-7.57s0-4.49,0-6.29,0-3.09.1-3.87,0-1.71.11-2.59a10.56,10.56,0,0,1,.53-2.59,4.34,4.34,0,0,1,.89-1.8,3.57,3.57,0,0,1,1.64-1.16,4.73,4.73,0,0,1,2.38-.43l2.48.22c.35,0,1,0,2.06.1s2.11.13,3.28.16l3.27.11,2.06,0q5.93.21,11.68-.11a93,93,0,0,1,11.67.11,13.67,13.67,0,0,1,1.37.1l2,.22c.67.07,1.3.15,1.9.26a3.76,3.76,0,0,1,1.22.37,1.65,1.65,0,0,1,.84,1.48,1.44,1.44,0,0,1,0,.69,1.54,1.54,0,0,0,.06.68,11,11,0,0,1,.42,3.7c-.07,1.27-.18,2.53-.32,3.8-.07.64-.12,1.48-.16,2.54a31,31,0,0,1-.26,3.17,15.07,15.07,0,0,1-.69,3,3.77,3.77,0,0,1-1.21,1.9,4.33,4.33,0,0,1-2.17.63,27,27,0,0,1-3,.05,29,29,0,0,1-3.12-.26l-2.37-.32a77.16,77.16,0,0,0-8.4-.58c-2.79,0-5.55-.05-8.3-.05v1.87c0,.89,0,1.85,0,2.89s-.05,2-.05,2.88V240q4-.21,8-.21t8,.21c.35,0,.84,0,1.48.11s1.26.16,1.9.26a6.79,6.79,0,0,1,1.74.53,2.93,2.93,0,0,1,1.11.79,4.09,4.09,0,0,1,.74,2.38,15.88,15.88,0,0,1-.21,2.59c0,.28,0,.84-.11,1.69s-.14,1.78-.21,2.8-.14,2-.21,2.85-.11,1.46-.11,1.74a6.6,6.6,0,0,0-.15.85,2.74,2.74,0,0,1-.27.84,2.93,2.93,0,0,1-2.32,1.59,5.39,5.39,0,0,1-2.12,0c-2.95-.14-5.88-.27-8.76-.37a56.28,56.28,0,0,0-8.77.37,10.51,10.51,0,0,1,.16,1.64c0,.81.06,1.67.1,2.59s.07,1.77.11,2.58.05,1.36.05,1.64,0,.9.1,1.85.13,2,.16,3.12.09,2.18.16,3.17.11,1.62.11,1.9a14.08,14.08,0,0,1,0,2.43,6.17,6.17,0,0,1-.74,2.43,3.55,3.55,0,0,1-1.64,1.32,5.59,5.59,0,0,1-2.17.47h-2.53c-.57,0-1.09,0-1.59.06l-.95,0c-1.26.07-2.53.17-3.8.32Zm-.21-3a10.7,10.7,0,0,0,3.06,0,.56.56,0,0,0,.47-.69c0-.38-.22-.58-.58-.58s-1,0-1.69.06-1.16-.13-1.37-.48a4.51,4.51,0,0,1-.11-1.9c.07-1,.11-1.66.11-2a6.15,6.15,0,0,0-.16-1.43c-.1-.45-.19-.93-.26-1.42,0-.14,0-.46.05-1s0-1,0-1.53v-1.54a3.73,3.73,0,0,0-.1-1.05.66.66,0,0,0-.8-.53.67.67,0,0,0-.58.74v1c0,.46,0,.94-.05,1.43s-.07,1-.11,1.42-.05.8-.05,1-.17.67-.31,1.37a3.76,3.76,0,0,0-.11,1.48c.14.92.37,2,.69,3.28A2.88,2.88,0,0,0,163.19,282.05Zm-1.27-17c.14.63.44.85.9.63s.51-.56.15-1.05a.54.54,0,0,0-.74-.21A.51.51,0,0,0,161.92,265Zm30.74-59.37a1.13,1.13,0,0,1,0,1,.86.86,0,0,1-.79.48,1.12,1.12,0,0,1-.58-.16,2.66,2.66,0,0,0-.59-.27,23.49,23.49,0,0,0-4.64-.37c-1.55,0-3.07.13-4.55.27a4,4,0,0,0-1,.1,3.46,3.46,0,0,1-.84.11l-1.59-.21a3.54,3.54,0,0,0-1.48.1,6.12,6.12,0,0,1-3.38-.31,6,6,0,0,1-1.16-.48,2.06,2.06,0,0,1-.95-.79c-.35-.64-.35-1.13,0-1.48a2.79,2.79,0,0,1,1.58-.69A7.33,7.33,0,0,1,175,203a7.15,7.15,0,0,1,2.16.74,4.27,4.27,0,0,0,1.43.32l2.16.21c.78.07,1.52.11,2.22.11h1.59c1.05.07,2.11.12,3.17.16a31,31,0,0,1,3.17.26l.95.32A1.58,1.58,0,0,1,192.66,205.67Zm-1.69,9.4a3.25,3.25,0,0,0,1.64,0l1.64-.42a4.9,4.9,0,0,1,1.16-.16l1.79-.11c.64,0,1.25,0,1.85,0h1.22c.28.28.54.3.79,0a1,1,0,0,0,.27-.9,1,1,0,0,0-.64-.52,3.46,3.46,0,0,0-.84-.11,14.27,14.27,0,0,1-2.7,0c-.88-.11-1.81-.2-2.8-.27l-.68-.21a2.55,2.55,0,0,0-.69-.1,5.09,5.09,0,0,0-.79.1,1.47,1.47,0,0,1-.8,0,5.44,5.44,0,0,0-1.63-.16,9.83,9.83,0,0,0-1.64.27.78.78,0,0,0-.64.68.65.65,0,0,0,.43.8,2,2,0,0,0,.63.1,1.19,1.19,0,0,1,.53.11,3.81,3.81,0,0,1,1,.53A2.33,2.33,0,0,0,191,215.07Zm12.57-.21a.81.81,0,0,0,1.06.37,1.48,1.48,0,0,0,.85-1,.8.8,0,0,0-.37-1,.87.87,0,0,0-1.11.05,1,1,0,0,1-.53.27.92.92,0,0,0-.53.26.52.52,0,0,0,0,.63A1,1,0,0,0,203.54,214.86Z"/><path class="cls-5" d="M218.76,285a8.07,8.07,0,0,1-2-.27,3.11,3.11,0,0,1-1.69-1,2.5,2.5,0,0,1-.53-1.16,7.88,7.88,0,0,1-.11-1.27c0-.5,0-1.5.06-3s.08-3.15.15-4.92.13-3.4.16-4.92.06-2.52.06-3,.05-1.25.15-2.49.22-2.55.32-4,.21-2.71.32-3.91.16-2,.16-2.43v-3.81q0-2.75-.11-6.35t-.16-7.56c0-2.65-.07-5.17-.1-7.57s-.05-4.49-.05-6.29,0-3.09.1-3.87,0-1.71.11-2.59a11,11,0,0,1,.52-2.59,4.37,4.37,0,0,1,.9-1.8,3.57,3.57,0,0,1,1.64-1.16,4.72,4.72,0,0,1,2.38-.43l2.48.22c.35,0,1,0,2.06.1s2.11.13,3.27.16l3.28.11,2.06,0q5.91.21,11.67-.11a93.1,93.1,0,0,1,11.68.11,13.67,13.67,0,0,1,1.37.1l2,.22c.67.07,1.3.15,1.9.26a3.59,3.59,0,0,1,1.21.37,1.64,1.64,0,0,1,.85,1.48,1.44,1.44,0,0,1,.05.69,1.41,1.41,0,0,0,.05.68,10.71,10.71,0,0,1,.43,3.7c-.07,1.27-.18,2.53-.32,3.8-.07.64-.12,1.48-.16,2.54s-.12,2.11-.26,3.17a15.81,15.81,0,0,1-.69,3,3.83,3.83,0,0,1-1.21,1.9,4.33,4.33,0,0,1-2.17.63,27.06,27.06,0,0,1-3,.05,29,29,0,0,1-3.12-.26l-2.37-.32a77.16,77.16,0,0,0-8.4-.58c-2.79,0-5.55-.05-8.3-.05v1.87c0,.89,0,1.85-.05,2.89s0,2,0,2.88V240q4-.21,8-.21t8,.21a14.51,14.51,0,0,1,1.47.11c.64.07,1.27.16,1.91.26a6.79,6.79,0,0,1,1.74.53,2.93,2.93,0,0,1,1.11.79,4.09,4.09,0,0,1,.74,2.38,15.88,15.88,0,0,1-.21,2.59c0,.28,0,.84-.11,1.69s-.14,1.78-.21,2.8-.14,2-.21,2.85-.11,1.46-.11,1.74-.12.57-.16.85a2.47,2.47,0,0,1-.26.84,2.93,2.93,0,0,1-2.32,1.59,5.39,5.39,0,0,1-2.12,0c-2.95-.14-5.88-.27-8.77-.37A56.2,56.2,0,0,0,235,259a10.92,10.92,0,0,1,.15,1.64c0,.81.07,1.67.11,2.59s.07,1.77.11,2.58,0,1.36,0,1.64,0,.9.1,1.85.13,2,.16,3.12.09,2.18.16,3.17.11,1.62.11,1.9a14.08,14.08,0,0,1,0,2.43,6.17,6.17,0,0,1-.74,2.43,3.55,3.55,0,0,1-1.64,1.32,5.59,5.59,0,0,1-2.17.47H228.9q-.85,0-1.59.06l-.95,0c-1.27.07-2.53.17-3.8.32Zm-.22-3a7.46,7.46,0,0,0,1.54.11,7.27,7.27,0,0,0,1.53-.11.56.56,0,0,0,.47-.69.55.55,0,0,0-.58-.58c-.42,0-1,0-1.69.06s-1.16-.13-1.37-.48a4.51,4.51,0,0,1-.11-1.9c.07-1,.11-1.66.11-2a6.15,6.15,0,0,0-.16-1.43,12.33,12.33,0,0,1-.26-1.42c0-.14,0-.46,0-1s.05-1,.05-1.53v-1.54a4.15,4.15,0,0,0-.1-1.05c-.15-.43-.41-.6-.8-.53a.67.67,0,0,0-.58.74v1c0,.46,0,.94,0,1.43s-.07,1-.11,1.42,0,.8,0,1-.18.67-.32,1.37a3.9,3.9,0,0,0-.1,1.48c.14.92.37,2,.69,3.28A2.89,2.89,0,0,0,218.54,282.05Zm-1.26-17c.14.63.44.85.89.63s.51-.56.16-1.05a.54.54,0,0,0-.74-.21A.51.51,0,0,0,217.28,265ZM248,205.67a1.13,1.13,0,0,1-.05,1,.86.86,0,0,1-.8.48,1.18,1.18,0,0,1-.58-.16,2.58,2.58,0,0,0-.58-.27,23.53,23.53,0,0,0-4.65-.37c-1.55,0-3.06.13-4.54.27a4,4,0,0,0-.95.1,3.46,3.46,0,0,1-.84.11l-1.59-.21a3.54,3.54,0,0,0-1.48.1,6.12,6.12,0,0,1-3.38-.31,6,6,0,0,1-1.16-.48,2,2,0,0,1-.95-.79c-.36-.64-.36-1.13,0-1.48a2.79,2.79,0,0,1,1.58-.69,7.26,7.26,0,0,1,2.27.05,7.12,7.12,0,0,1,2.17.74,4.27,4.27,0,0,0,1.43.32l2.16.21c.78.07,1.52.11,2.22.11h1.59c1.05.07,2.11.12,3.16.16a30.55,30.55,0,0,1,3.17.26l.95.32A1.57,1.57,0,0,1,248,205.67Zm-1.69,9.4a3.25,3.25,0,0,0,1.64,0l1.64-.42a4.9,4.9,0,0,1,1.16-.16l1.79-.11c.64,0,1.25,0,1.85,0h1.22c.28.28.54.3.79,0a.92.92,0,0,0,.26-.9.93.93,0,0,0-.63-.52,3.48,3.48,0,0,0-.85-.11,14.18,14.18,0,0,1-2.69,0c-.88-.11-1.81-.2-2.8-.27l-.69-.21a2.43,2.43,0,0,0-.68-.1,5.32,5.32,0,0,0-.8.1,1.44,1.44,0,0,1-.79,0,5.44,5.44,0,0,0-1.63-.16,9.83,9.83,0,0,0-1.64.27.77.77,0,0,0-.64.68.65.65,0,0,0,.43.8,2,2,0,0,0,.63.1,1.19,1.19,0,0,1,.53.11,3.81,3.81,0,0,1,.95.53A2.33,2.33,0,0,0,246.33,215.07Zm12.57-.21a.81.81,0,0,0,1.06.37,1.45,1.45,0,0,0,.84-1,.79.79,0,0,0-.37-1,.86.86,0,0,0-1.1.05,1,1,0,0,1-.53.27.89.89,0,0,0-.53.26.52.52,0,0,0,0,.63A1,1,0,0,0,258.9,214.86Z"/><path class="cls-5" d="M306.55,285.11q-6.35.11-12.68-.1c-4.22-.14-8.49-.25-12.78-.32h-5.28a8.72,8.72,0,0,1-1.69-.16,3.11,3.11,0,0,1-1.48-.68,4.5,4.5,0,0,1-1.54-2.43c-.24-1-.44-2-.58-3a47.56,47.56,0,0,1-.47-7.45q0-3.75.26-7.55a2.57,2.57,0,0,0-.16-.58,2.83,2.83,0,0,1-.16-.69,35.51,35.51,0,0,1-.1-4.7c.07-1.52.17-3.08.32-4.7a62.18,62.18,0,0,0,.15-9.25q-.25-4.59-.05-9.35c0-.49.05-1.43.16-2.8s.19-2.85.26-4.44.16-3.06.27-4.43.16-2.27.16-2.7c.14-1.62.26-3.22.37-4.8a15.71,15.71,0,0,1,1-4.6,8.22,8.22,0,0,1,.85-1.8,4.17,4.17,0,0,1,1.37-1.37,3.79,3.79,0,0,1,1.79-.58c.64,0,1.24,0,1.8,0s1.27,0,2.54.1,2.6.18,4,.32l4,.42c1.26.14,2.11.25,2.53.32a64,64,0,0,0,7.82.37q3.9-.06,7.82-.16h1.58c.78,0,1.57,0,2.38,0s1.58.11,2.32.21,1.29.2,1.64.27a4.57,4.57,0,0,1,1.22.63,2.16,2.16,0,0,1,.79,1.06,4.33,4.33,0,0,1,.1,1.16c0,.57,0,1.16-.05,1.8a12.37,12.37,0,0,1-.21,1.79,7.27,7.27,0,0,0-.16,1.27,28.49,28.49,0,0,0-.16,3.8c0,1.27.09,2.51.16,3.7.07.64.12,1.25.16,1.85a4.29,4.29,0,0,1-.26,1.74,2.65,2.65,0,0,1-1.17,1.48,6.09,6.09,0,0,1-2.48.48q-1.63.06-3.54,0c-1.27,0-2.48-.12-3.64-.27a24.29,24.29,0,0,0-2.7-.21c-1.41-.14-2.83-.24-4.28-.31s-2.9-.11-4.38-.11a14.31,14.31,0,0,0-2.22.16c-.7.1-1.44.19-2.22.26,0,.29,0,.85.05,1.69s.06,1.76.06,2.75v4.54c.91.07,1.83.13,2.74.16s1.84.06,2.75.06h1.53c.74,0,1.5,0,2.28.05s1.49.09,2.16.16a12.14,12.14,0,0,1,1.43.21,2.41,2.41,0,0,1,1.11.79,1.83,1.83,0,0,1,.47,1.11,20.76,20.76,0,0,1,.16,2.22c0,1.05.09,2.16.16,3.33s.1,2.27.1,3.32v2.12a5.22,5.22,0,0,1-.42,1.53,3.43,3.43,0,0,1-1,1.21,4.44,4.44,0,0,1-1.64.74,8.07,8.07,0,0,1-1.85.21H298c-1,0-2.11,0-3.27-.05s-2.26,0-3.28,0h-2.06v1.32c0,.67,0,1.41-.05,2.22s-.05,1.57-.05,2.27v1.37a36.28,36.28,0,0,0,4.81.53l4.8.21h5.76q2.91,0,5.76-.21a6.39,6.39,0,0,1,2.16.16,2.55,2.55,0,0,1,1.64,1.11,4.06,4.06,0,0,1,.42,1.64c.07.74.11,1.53.11,2.37s0,1.68-.05,2.49-.06,1.39-.06,1.74c0,1.62.06,3.22.16,4.81s.23,3.18.37,4.8a5,5,0,0,0,.06.8,1.39,1.39,0,0,1-.16.79,1.65,1.65,0,0,1-.85.95,4.41,4.41,0,0,1-1.27.42c-1.05.14-2.11.23-3.17.27S307.67,285,306.55,285.11Zm-25.67,3.81a25.14,25.14,0,0,0-2.91.37,9.09,9.09,0,0,1-2.9,0,6.15,6.15,0,0,1-2.86-1.06,1.44,1.44,0,0,1-.58-1.63A.92.92,0,0,1,273,286a16.27,16.27,0,0,0,2.59.37c1.23.1,2.55.19,4,.26s2.75.13,4,.16,2.15.05,2.64.05c.7.07,1,.43,1,1.06s-.4.95-1.11.95-1.71-.1-2.59-.1A15.67,15.67,0,0,0,280.88,288.92Zm11.93-47.33a9.27,9.27,0,0,1,1.11.1l1.75.21c.63.07,1.21.13,1.74.16s.9.06,1.11.06a1,1,0,0,0,.74-.8.82.82,0,0,0-.42-.9,2.93,2.93,0,0,0-.95,0l-1.43.11c-.53,0-1,.09-1.48.16a7.25,7.25,0,0,1-1,.1,3.69,3.69,0,0,1-.58-.1,4.68,4.68,0,0,0-.59-.11,4.46,4.46,0,0,0-.63.05.83.83,0,0,1-.53-.05.62.62,0,0,0-.79.48c-.11.38,0,.61.37.68a1.43,1.43,0,0,0,.79,0A5.24,5.24,0,0,1,292.81,241.59Zm14.37-28.11c.21.22.57.18,1.06-.1a.92.92,0,0,0,.63-1.06,1.08,1.08,0,0,0-.84-.95,2.79,2.79,0,0,0-1.43-.05,6.64,6.64,0,0,1-1.42.16H304q-.84,0-1.74-.06l-1.69-.1a5.34,5.34,0,0,1-1.11-.16,2.44,2.44,0,0,0-1.11-.16,10.78,10.78,0,0,1-1.11.05,8,8,0,0,1-1.69.06,2.57,2.57,0,0,0-1.58.26.67.67,0,0,0-.21.85,1.32,1.32,0,0,0,.73.63,6,6,0,0,0,2.12.05,15.66,15.66,0,0,1,2.22-.16h4.33a17.82,17.82,0,0,1,2.38.16A3.42,3.42,0,0,1,307.18,213.48ZM301,241.16c-.35.78-.26,1.26.26,1.43s.9-.16,1.11-1a.73.73,0,0,0-1.37-.43ZM311.2,211.9a.57.57,0,0,0-.48.48,1.13,1.13,0,0,0,.11.68,1.32,1.32,0,0,0,.47.53.46.46,0,0,0,.64-.11c.49-.35.63-.74.42-1.16A.9.9,0,0,0,311.2,211.9Z"/><path class="cls-5" d="M359.27,285.11q-6.34.11-12.68-.1t-12.78-.32h-5.29a8.87,8.87,0,0,1-1.69-.16,3.19,3.19,0,0,1-1.48-.68,4.54,4.54,0,0,1-1.53-2.43,28.11,28.11,0,0,1-.58-3,47.56,47.56,0,0,1-.47-7.45q0-3.75.26-7.55a2.57,2.57,0,0,0-.16-.58,2.83,2.83,0,0,1-.16-.69,35.51,35.51,0,0,1-.1-4.7c.07-1.52.17-3.08.31-4.7a62.19,62.19,0,0,0,.16-9.25q-.25-4.59-.05-9.35c0-.49.05-1.43.16-2.8s.19-2.85.26-4.44.16-3.06.27-4.43.16-2.27.16-2.7c.13-1.62.26-3.22.36-4.8a15.72,15.72,0,0,1,1-4.6,8.67,8.67,0,0,1,.84-1.8,4.2,4.2,0,0,1,1.38-1.37,3.79,3.79,0,0,1,1.79-.58c.64,0,1.23,0,1.8,0s1.27,0,2.53.1,2.61.18,4,.32l4,.42c1.27.14,2.12.25,2.54.32a63.88,63.88,0,0,0,7.82.37c2.6,0,5.21-.09,7.81-.16h1.59c.77,0,1.57,0,2.38,0s1.58.11,2.32.21,1.29.2,1.64.27a4.37,4.37,0,0,1,1.21.63,2.18,2.18,0,0,1,.8,1.06,4.33,4.33,0,0,1,.1,1.16c0,.57,0,1.16-.05,1.8a16,16,0,0,1-.21,1.79,7.27,7.27,0,0,0-.16,1.27,26.91,26.91,0,0,0-.16,3.8c0,1.27.09,2.51.16,3.7.07.64.12,1.25.16,1.85a4.29,4.29,0,0,1-.27,1.74,2.68,2.68,0,0,1-1.16,1.48,6.09,6.09,0,0,1-2.48.48q-1.64.06-3.54,0c-1.27,0-2.48-.12-3.65-.27a24.15,24.15,0,0,0-2.69-.21c-1.41-.14-2.84-.24-4.28-.31s-2.9-.11-4.38-.11a14.31,14.31,0,0,0-2.22.16c-.71.1-1.45.19-2.22.26,0,.29,0,.85.05,1.69s.06,1.76.06,2.75v4.54c.91.07,1.83.13,2.74.16s1.83.06,2.75.06h1.53c.74,0,1.5,0,2.27.05s1.5.09,2.17.16a11.56,11.56,0,0,1,1.42.21,2.31,2.31,0,0,1,1.11.79,1.79,1.79,0,0,1,.48,1.11,20.76,20.76,0,0,1,.16,2.22c0,1.05.09,2.16.16,3.33s.1,2.27.1,3.32v2.12a5.22,5.22,0,0,1-.42,1.53,3.43,3.43,0,0,1-.95,1.21,4.44,4.44,0,0,1-1.64.74,8.07,8.07,0,0,1-1.85.21h-2.06c-1,0-2.11,0-3.27-.05s-2.26,0-3.28,0h-2.06v1.32c0,.67,0,1.41,0,2.22s-.05,1.57-.05,2.27v1.37a36.31,36.31,0,0,0,4.8.53l4.81.21h5.76q2.9,0,5.76-.21a6.39,6.39,0,0,1,2.16.16,2.55,2.55,0,0,1,1.64,1.11,4.06,4.06,0,0,1,.42,1.64c.07.74.11,1.53.11,2.37s0,1.68-.05,2.49-.06,1.39-.06,1.74c0,1.62.06,3.22.16,4.81s.23,3.18.37,4.8a6.6,6.6,0,0,0,.05.8,1.31,1.31,0,0,1-.16.79,1.6,1.6,0,0,1-.84.95,4.51,4.51,0,0,1-1.27.42c-1,.14-2.11.23-3.17.27S360.39,285,359.27,285.11Zm-25.68,3.81a25.25,25.25,0,0,0-2.9.37,9.15,9.15,0,0,1-2.91,0,6.15,6.15,0,0,1-2.85-1.06,1.43,1.43,0,0,1-.58-1.63.92.92,0,0,1,1.32-.69,16.27,16.27,0,0,0,2.59.37c1.23.1,2.55.19,4,.26s2.75.13,4,.16,2.14.05,2.64.05c.7.07,1,.43,1,1.06s-.41.95-1.11.95-1.71-.1-2.59-.1A15.88,15.88,0,0,0,333.59,288.92Zm11.94-47.33a9.62,9.62,0,0,1,1.11.1l1.74.21c.64.07,1.22.13,1.75.16s.9.06,1.11.06a1,1,0,0,0,.74-.8.81.81,0,0,0-.43-.9,2.91,2.91,0,0,0-.95,0l-1.42.11c-.53,0-1,.09-1.48.16a7.23,7.23,0,0,1-1,.1,3.89,3.89,0,0,1-.58-.1,4.35,4.35,0,0,0-.58-.11,4.46,4.46,0,0,0-.63.05.83.83,0,0,1-.53-.05.61.61,0,0,0-.79.48c-.11.38,0,.61.37.68a1.43,1.43,0,0,0,.79,0A5.24,5.24,0,0,1,345.53,241.59Zm14.37-28.11c.21.22.56.18,1.06-.1a.92.92,0,0,0,.63-1.06,1.08,1.08,0,0,0-.84-.95,2.79,2.79,0,0,0-1.43-.05,6.67,6.67,0,0,1-1.43.16h-1.16q-.84,0-1.74-.06l-1.69-.1a5.34,5.34,0,0,1-1.11-.16,2.46,2.46,0,0,0-1.11-.16,10.78,10.78,0,0,1-1.11.05,8,8,0,0,1-1.69.06,2.61,2.61,0,0,0-1.59.26.7.7,0,0,0-.21.85,1.34,1.34,0,0,0,.74.63,6,6,0,0,0,2.12.05,15.63,15.63,0,0,1,2.21-.16h4.34a17.66,17.66,0,0,1,2.37.16A3.47,3.47,0,0,1,359.9,213.48Zm-6.23,27.68c-.36.78-.27,1.26.26,1.43s.9-.16,1.11-1a.73.73,0,0,0-1.37-.43Zm10.25-29.26a.55.55,0,0,0-.48.48,1.06,1.06,0,0,0,.11.68,1.32,1.32,0,0,0,.47.53.46.46,0,0,0,.64-.11c.49-.35.63-.74.42-1.16A.9.9,0,0,0,363.92,211.9Z"/></svg>