<?xml version="1.0" encoding="utf-8"?>
<!-- Generator: Adobe Illustrator 26.0.1, SVG Export Plug-In . SVG Version: 6.00 Build 0)  -->
<svg version="1.1" id="Слой_1" xmlns="http://www.w3.org/2000/svg" xmlns:xlink="http://www.w3.org/1999/xlink" x="0px" y="0px"
	 viewBox="0 0 40 40" style="enable-background:new 0 0 40 40;" xml:space="preserve">
<style type="text/css">
	.st0{fill:#F2CA19;}
	.st1{fill:#ED6928;}
	.st2{fill:#F8AB21;}
</style>
<path class="st0" d="M8,34.7c-0.3-0.2-0.5-0.5-0.7-0.8c-0.1-0.3-0.2-0.7-0.1-1.1c0-0.4,0-0.8,0.1-1.2c0.1-0.4,0.2-0.8,0.3-1.1
	c0.4-1.1,1-2.2,1.7-3.2c0.7-1,1.6-1.9,2.6-2.6c0.9-0.6,1.9-1.1,3-1.5c1.1-0.3,2.1-0.7,3.2-1c1-0.3,2.1-0.6,3.1-1s2-0.8,2.9-1.3
	c0.7-0.3,1.4-0.7,2.1-1.1c0.7-0.4,1.3-0.9,1.8-1.4c1-1,1.9-2.1,2.6-3.4c0.7-1.3,1.3-2.6,1.8-3.9c-0.7,1.2-1.5,2.4-2.5,3.4
	c-1,1-2.1,1.9-3.3,2.7c-1.5,0.9-3.2,1.7-4.9,2.2c-1.7,0.5-3.5,0.9-5.2,1.1c-1.6,0.2-3.2,0.7-4.7,1.3s-2.9,1.5-4,2.6
	c-0.8,0.8-1.6,1.7-2.2,2.9c-0.6,1.1-0.9,2.2-1,3.4c0,0.2-0.1,0.4-0.2,0.5c-0.1,0.1-0.3,0.1-0.5,0.1c-0.2,0-0.4-0.1-0.5-0.2
	c-0.2-0.1-0.3-0.3-0.3-0.6c-0.4-2.3-0.3-4.5,0.2-6.9c0.5-2.3,1.3-4.5,2.5-6.5C6.6,14,8.1,12,9.9,10.3s3.8-3.3,6-4.6
	C17,5,18.2,4.5,19.4,4.1c1.2-0.4,2.5-0.7,3.7-1c1.2-0.2,2.5-0.4,3.7-0.4c1.2,0,2.5,0.1,3.7,0.4c0.9,0.2,1.9,0.6,2.7,1
	c0.9,0.4,1.6,1,2.3,1.6c0.8,0.8,1.4,1.9,1.9,3s0.7,2.3,0.8,3.6c0,2.1-0.2,4.2-0.8,6.2c-0.5,2.1-1.3,4-2.3,5.9
	c-1.1,2-2.4,3.7-3.9,5.4c-1.1,1.1-2.2,2.2-3.4,3.3c-1.2,1-2.5,1.8-3.8,2.5c-1.4,0.7-3,1.2-4.6,1.5c-1.6,0.3-3.3,0.4-4.8,0.1
	c-1.2-0.1-2.3-0.4-3.5-0.9C10.1,35.8,9,35.3,8,34.7z M32.3,23.9c-0.1,0.1-0.2,0.2-0.1,0.4c0,0.1,0,0.2,0.1,0.3
	c0,0.1,0.2,0.1,0.3,0.2c0.1,0,0.3,0,0.4,0c0.1,0,0.2-0.2,0.3-0.3c0.6-0.9,1.1-1.8,1.6-2.7c0.4-0.9,0.8-1.9,1.2-2.9
	c0.3-1.1,0.6-2.3,0.7-3.4s0.2-2.3,0.2-3.4c0-0.2,0-0.4,0-0.6c0-0.2-0.1-0.4-0.2-0.6c0-0.1-0.1-0.2-0.3-0.3c-0.1,0-0.2,0-0.4,0
	c-0.1,0-0.2,0.1-0.3,0.2c0,0.1,0,0.2,0,0.4c0.1,0.3,0.2,0.6,0.2,0.7c0,0.2,0,0.6,0,1.2c0,0.6-0.1,1.2-0.1,1.8
	c-0.1,0.6-0.1,1.2-0.2,1.7c-0.1,0.5-0.1,0.9-0.2,1.2c-0.1,0.3-0.2,0.8-0.5,1.4c-0.2,0.6-0.5,1.2-0.8,1.8c-0.3,0.6-0.6,1.2-0.9,1.8
	C32.8,23.3,32.6,23.7,32.3,23.9z M30.8,26.4c0,0.3,0.1,0.4,0.3,0.5c0.1,0,0.3,0,0.4,0c0.1,0,0.2-0.2,0.3-0.4c0.1-0.2,0-0.4-0.1-0.6
	c-0.1-0.1-0.2-0.2-0.4-0.3s-0.3,0-0.4,0c-0.1,0.1-0.2,0.2-0.2,0.3C30.7,26.1,30.7,26.2,30.8,26.4z"/>
<rect x="-131.7" y="34.8" class="st1" width="96.7" height="18.2"/>
<rect x="-131.7" y="50" class="st2" width="96.7" height="17.1"/>
<rect x="-131.7" y="66.5" class="st0" width="96.7" height="18.3"/>
</svg>
