<svg id="Слой_1" data-name="Слой 1" xmlns="http://www.w3.org/2000/svg" viewBox="0 0 147 148"><defs><style>.cls-1{fill:#ed6928;}.cls-2{fill:#fff5de;}</style></defs><path class="cls-1" d="M73.42,128.73A3.33,3.33,0,0,1,72,127a5.34,5.34,0,0,1-.3-2.2,11.34,11.34,0,0,1,.3-2.5,12.52,12.52,0,0,1,.7-2.3,26.87,26.87,0,0,1,3.4-6.5,26.12,26.12,0,0,1,5.2-5.3,21.1,21.1,0,0,1,6-3c2.2-.7,4.3-1.4,6.4-2s4.2-1.3,6.2-2a44.07,44.07,0,0,0,5.9-2.6c1.4-.7,2.8-1.5,4.2-2.3a21.13,21.13,0,0,0,3.7-2.8,25.89,25.89,0,0,0,5.3-6.9,69.08,69.08,0,0,0,3.6-7.9,30.8,30.8,0,0,1-5.1,6.9,33.91,33.91,0,0,1-6.6,5.4,44.27,44.27,0,0,1-9.9,4.5,64.66,64.66,0,0,1-10.6,2.3,41,41,0,0,0-9.5,2.7,26.92,26.92,0,0,0-8.2,5.3,21.65,21.65,0,0,0-4.4,5.8,17.27,17.27,0,0,0-2.1,6.9,1.29,1.29,0,0,1-.5,1.1,2,2,0,0,1-1.1.3,1.61,1.61,0,0,1-1.1-.5,1.85,1.85,0,0,1-.7-1.2,34.88,34.88,0,0,1,.4-14,45,45,0,0,1,5-13.1,53.23,53.23,0,0,1,9.2-12,63.89,63.89,0,0,1,12.1-9.3,36.81,36.81,0,0,1,7-3.2c2.4-.8,5-1.5,7.6-2.1a36,36,0,0,1,15.1,0,26,26,0,0,1,5.5,2.1,19.83,19.83,0,0,1,4.7,3.3,21.23,21.23,0,0,1,3.9,6.1,19.84,19.84,0,0,1,1.6,7.2,44.46,44.46,0,0,1-1.6,12.6,55.64,55.64,0,0,1-4.7,11.9,53.22,53.22,0,0,1-7.9,10.9q-3.3,3.45-6.9,6.6a37.26,37.26,0,0,1-17.1,8.2,29.43,29.43,0,0,1-9.8.3,28.85,28.85,0,0,1-7-1.8C77.72,130.93,75.52,129.93,73.42,128.73Zm49.4-21.9c-.3.3-.4.5-.3.8a.91.91,0,0,0,.3.7c.1.2.4.3.7.4a1.41,1.41,0,0,0,.9-.1,2.17,2.17,0,0,0,.6-.7c1.2-1.8,2.2-3.7,3.2-5.5a60.7,60.7,0,0,0,2.4-5.9,42.59,42.59,0,0,0,1.5-6.9,53.22,53.22,0,0,0,.4-6.9,6.15,6.15,0,0,0-.1-1.3c-.1-.4-.3-.8-.4-1.2a.9.9,0,0,0-.6-.6,2.2,2.2,0,0,0-.8.1c-.3.1-.5.2-.6.5a2,2,0,0,0-.1.8c.2.7.4,1.2.5,1.5v2.4l-.3,3.6c-.2,1.2-.3,2.4-.5,3.5a15.87,15.87,0,0,1-.5,2.4,25.25,25.25,0,0,1-1,2.8c-.5,1.2-1,2.4-1.6,3.7s-1.2,2.5-1.8,3.6A20.75,20.75,0,0,1,122.82,106.83Zm-3.1,5c.1.6.3.9.6,1a1.39,1.39,0,0,0,.9,0c.3-.1.5-.4.7-.8a1.09,1.09,0,0,0-.2-1.2,1.56,1.56,0,0,0-.8-.6.75.75,0,0,0-.8.1,2.65,2.65,0,0,0-.5.6A.76.76,0,0,0,119.72,111.83Z"/><path class="cls-2" d="M84.84,52.26a58,58,0,0,1,8.94,3.83,23.68,23.68,0,0,1,5.65,4.74,15.62,15.62,0,0,1,4.86,11.08q0,11.19-13.81,19.08t-33.6,7.88q-22.41,0-36.65-10.4-8.16-6-8.16-10.73,0-4.35,4.18-7.2a18.48,18.48,0,0,1,10.63-2.86A21.87,21.87,0,0,1,39.76,72l3.49,2.52a24.84,24.84,0,0,0,14.63,4.79,18.59,18.59,0,0,0,9.58-2.17c2.44-1.44,3.66-3.31,3.66-5.59a5.67,5.67,0,0,0-1.05-3.09,5.56,5.56,0,0,0-2.88-2.63A16.76,16.76,0,0,0,63,64.48c-1.34-.23-4-.45-8-.68q-7,0-10.74-2.57a8,8,0,0,1-3.76-6.91q0-7.89,13.2-9.6l5-.57a12.21,12.21,0,0,0,5.55-1.83,4.17,4.17,0,0,0,1.92-3.54q0-2.28-2.78-3.89a13.85,13.85,0,0,0-6.95-1.6,20.85,20.85,0,0,0-5,.58,13.59,13.59,0,0,0-4.25,1.82l-5.74,3.55A19,19,0,0,1,31,42.55a17.67,17.67,0,0,1-10.25-2.86c-2.78-1.9-4.16-4.3-4.16-7.2q0-7.19,12.59-12.85T57.75,14Q75.1,14,86.14,20.1t11,15.59a13.73,13.73,0,0,1-2.08,7.43A22.57,22.57,0,0,1,91.26,48,44.48,44.48,0,0,1,84.84,52.26Z"/></svg>