<svg id="Слой_1" data-name="Слой 1" xmlns="http://www.w3.org/2000/svg" viewBox="0 0 147 148"><defs><style>.cls-1{fill:#ed6928;}.cls-2{fill:#fff5de;}</style></defs><path class="cls-1" d="M69.91,131a3.33,3.33,0,0,1-1.4-1.7,5.34,5.34,0,0,1-.3-2.2,11.34,11.34,0,0,1,.3-2.5,12.52,12.52,0,0,1,.7-2.3,26.87,26.87,0,0,1,3.4-6.5,26.12,26.12,0,0,1,5.2-5.3,21.1,21.1,0,0,1,6-3c2.2-.7,4.3-1.4,6.4-2s4.2-1.3,6.2-2a44.07,44.07,0,0,0,5.9-2.6c1.4-.7,2.8-1.5,4.2-2.3a21.13,21.13,0,0,0,3.7-2.8,25.89,25.89,0,0,0,5.3-6.9,69.08,69.08,0,0,0,3.6-7.9,30.8,30.8,0,0,1-5.1,6.9,33.91,33.91,0,0,1-6.6,5.4,44.27,44.27,0,0,1-9.9,4.5,64.66,64.66,0,0,1-10.6,2.3,41,41,0,0,0-9.5,2.7,26.92,26.92,0,0,0-8.2,5.3,21.65,21.65,0,0,0-4.4,5.8,17.27,17.27,0,0,0-2.1,6.9,1.29,1.29,0,0,1-.5,1.1,2,2,0,0,1-1.1.3,1.61,1.61,0,0,1-1.1-.5,1.85,1.85,0,0,1-.7-1.2,34.88,34.88,0,0,1,.4-14,45,45,0,0,1,5-13.1,53.23,53.23,0,0,1,9.2-12A63.89,63.89,0,0,1,86,72.14a36.81,36.81,0,0,1,7-3.2c2.4-.8,5-1.5,7.6-2.1a36,36,0,0,1,15.1,0,26,26,0,0,1,5.5,2.1,19.83,19.83,0,0,1,4.7,3.3,21.23,21.23,0,0,1,3.9,6.1,19.84,19.84,0,0,1,1.6,7.2,44.46,44.46,0,0,1-1.6,12.6,55.64,55.64,0,0,1-4.7,11.9,53.22,53.22,0,0,1-7.9,10.9q-3.3,3.45-6.9,6.6a37.26,37.26,0,0,1-17.1,8.2,29.43,29.43,0,0,1-9.8.3,28.85,28.85,0,0,1-7-1.8C74.21,133.24,72,132.24,69.91,131Zm49.4-21.9c-.3.3-.4.5-.3.8a.91.91,0,0,0,.3.7c.1.2.4.3.7.4a1.41,1.41,0,0,0,.9-.1,2.17,2.17,0,0,0,.6-.7c1.2-1.8,2.2-3.7,3.2-5.5a60.7,60.7,0,0,0,2.4-5.9,42.59,42.59,0,0,0,1.5-6.9A53.22,53.22,0,0,0,129,85a6.15,6.15,0,0,0-.1-1.3c-.1-.4-.3-.8-.4-1.2a.9.9,0,0,0-.6-.6,2.2,2.2,0,0,0-.8.1c-.3.1-.5.2-.6.5a2,2,0,0,0-.1.8c.2.7.4,1.2.5,1.5v2.4l-.3,3.6c-.2,1.2-.3,2.4-.5,3.5a15.87,15.87,0,0,1-.5,2.4,25.25,25.25,0,0,1-1,2.8c-.5,1.2-1,2.4-1.6,3.7s-1.2,2.5-1.8,3.6A20.75,20.75,0,0,1,119.31,109.14Zm-3.1,5c.1.6.3.9.6,1a1.39,1.39,0,0,0,.9,0c.3-.1.5-.4.7-.8a1.09,1.09,0,0,0-.2-1.2,1.56,1.56,0,0,0-.8-.6.75.75,0,0,0-.8.1,2.65,2.65,0,0,0-.5.6A.76.76,0,0,0,116.21,114.14Z"/><path class="cls-2" d="M33.47,50.63l-4.34-2.74A17.45,17.45,0,0,1,23.92,42,15,15,0,0,1,22,34.75q0-10,11.55-16.56t29.62-6.51q17.88,0,29.52,6.51t11.64,16.56a13.55,13.55,0,0,1-2.17,7.77A26,26,0,0,1,98.59,47a34.56,34.56,0,0,1-5.73,3.65c1.28.39,2.67.88,4.17,1.49l2.78,1.14a19.27,19.27,0,0,1,8,6.91,17.32,17.32,0,0,1,3,9.66q0,11.65-13.46,19.25T63.17,96.67Q42.5,96.67,29,89.08T15.58,69.71a16.2,16.2,0,0,1,3.65-10.17,19.5,19.5,0,0,1,5.12-5A45.66,45.66,0,0,1,33.47,50.63ZM63.17,58A17.72,17.72,0,0,0,53,60.82q-4.29,2.86-4.29,6.78T53,74.49a17.73,17.73,0,0,0,10.13,2.88,17.74,17.74,0,0,0,10.12-2.88q4.29-2.86,4.29-6.89t-4.29-6.78A17.73,17.73,0,0,0,63.17,58Zm.17-28.57a13.6,13.6,0,0,0-7.64,2.06q-3.14,2.06-3.13,5t3.13,4.91a13.27,13.27,0,0,0,7.47,2.06,13.26,13.26,0,0,0,7.46-2.06q3.14-2.06,3.13-5c0-1.9-1-3.54-3-4.91A12.79,12.79,0,0,0,63.34,29.38Z"/></svg>