<svg id="Слой_1" data-name="Слой 1" xmlns="http://www.w3.org/2000/svg" viewBox="0 0 147 148"><defs><style>.cls-1{fill:#ed6928;}.cls-2{fill:#fff5de;}</style></defs><path class="cls-1" d="M69.32,127.85a3.33,3.33,0,0,1-1.4-1.7,5.34,5.34,0,0,1-.3-2.2,11.34,11.34,0,0,1,.3-2.5,12.52,12.52,0,0,1,.7-2.3,26.87,26.87,0,0,1,3.4-6.5,26.12,26.12,0,0,1,5.2-5.3,21.1,21.1,0,0,1,6-3c2.2-.7,4.3-1.4,6.4-2s4.2-1.3,6.2-2a44.07,44.07,0,0,0,5.9-2.6c1.4-.7,2.8-1.5,4.2-2.3a21.13,21.13,0,0,0,3.7-2.8,25.89,25.89,0,0,0,5.3-6.9,69.08,69.08,0,0,0,3.6-7.9,30.8,30.8,0,0,1-5.1,6.9,33.91,33.91,0,0,1-6.6,5.4,44.27,44.27,0,0,1-9.9,4.5A64.66,64.66,0,0,1,86.32,97a41,41,0,0,0-9.5,2.7,26.92,26.92,0,0,0-8.2,5.3,21.65,21.65,0,0,0-4.4,5.8,17.27,17.27,0,0,0-2.1,6.9,1.29,1.29,0,0,1-.5,1.1,2,2,0,0,1-1.1.3,1.61,1.61,0,0,1-1.1-.5,1.85,1.85,0,0,1-.7-1.2,34.88,34.88,0,0,1,.4-14,45,45,0,0,1,5-13.1,53.23,53.23,0,0,1,9.2-12A63.89,63.89,0,0,1,85.42,69a36.81,36.81,0,0,1,7-3.2c2.4-.8,5-1.5,7.6-2.1a36,36,0,0,1,15.1,0,26,26,0,0,1,5.5,2.1,19.83,19.83,0,0,1,4.7,3.3,21.23,21.23,0,0,1,3.9,6.1,19.84,19.84,0,0,1,1.6,7.2,44.46,44.46,0,0,1-1.6,12.6,55.64,55.64,0,0,1-4.7,11.9,53.22,53.22,0,0,1-7.9,10.9q-3.3,3.45-6.9,6.6a37.26,37.26,0,0,1-17.1,8.2,29.43,29.43,0,0,1-9.8.3,28.85,28.85,0,0,1-7-1.8C73.62,130.05,71.42,129.05,69.32,127.85Zm49.4-21.9c-.3.3-.4.5-.3.8a.91.91,0,0,0,.3.7c.1.2.4.3.7.4a1.41,1.41,0,0,0,.9-.1,2.17,2.17,0,0,0,.6-.7c1.2-1.8,2.2-3.7,3.2-5.5a60.7,60.7,0,0,0,2.4-5.9,42.59,42.59,0,0,0,1.5-6.9,53.22,53.22,0,0,0,.4-6.9,6.15,6.15,0,0,0-.1-1.3c-.1-.4-.3-.8-.4-1.2a.9.9,0,0,0-.6-.6,2.2,2.2,0,0,0-.8.1c-.3.1-.5.2-.6.5a2,2,0,0,0-.1.8c.2.7.4,1.2.5,1.5v2.4l-.3,3.6c-.2,1.2-.3,2.4-.5,3.5a15.87,15.87,0,0,1-.5,2.4,25.25,25.25,0,0,1-1,2.8c-.5,1.2-1,2.4-1.6,3.7s-1.2,2.5-1.8,3.6A20.75,20.75,0,0,1,118.72,106Zm-3.1,5c.1.6.3.9.6,1a1.39,1.39,0,0,0,.9,0c.3-.1.5-.4.7-.8a1.09,1.09,0,0,0-.2-1.2,1.56,1.56,0,0,0-.8-.6.75.75,0,0,0-.8.1,2.65,2.65,0,0,0-.5.6A.76.76,0,0,0,115.62,111Z"/><path class="cls-2" d="M65.28,76.2h25a18.57,18.57,0,0,1,10.12,2.63c2.76,1.76,4.15,4,4.15,6.59s-1.39,4.65-4.15,6.48a17.66,17.66,0,0,1-10,2.74H31.43q-7,0-11.11-2.39t-4.15-6.54q0-3.37,5.14-7.19L41.88,63.7q10.45-7.62,20.41-15.47a38,38,0,0,0,5.64-5.39,6.47,6.47,0,0,0,1.66-3.76q0-2.51-2.82-4.13a14.43,14.43,0,0,0-7.3-1.64,16.61,16.61,0,0,0-7.38,1.57,23.48,23.48,0,0,0-6.72,5.36l-3,3.47a16.13,16.13,0,0,1-11.94,4.66q-6.32,0-10.21-2.67a8.28,8.28,0,0,1-3.9-7.15q0-9.6,13-16.65t30.94-7q17.91,0,29.78,6.59t11.86,16.61q0,8.07-9,16.78L83,63.34q-6.32,4.91-8.13,6.21Q71.42,72.18,65.28,76.2Z"/></svg>