<svg id="Слой_1" data-name="Слой 1" xmlns="http://www.w3.org/2000/svg" viewBox="0 0 147 148"><defs><style>.cls-1{fill:#ed6928;}.cls-2{fill:#fff5de;}</style></defs><path class="cls-1" d="M70,130.38a3.33,3.33,0,0,1-1.4-1.7,5.34,5.34,0,0,1-.3-2.2,11.34,11.34,0,0,1,.3-2.5,12.52,12.52,0,0,1,.7-2.3,26.87,26.87,0,0,1,3.4-6.5,26.12,26.12,0,0,1,5.2-5.3,21.1,21.1,0,0,1,6-3c2.2-.7,4.3-1.4,6.4-2s4.2-1.3,6.2-2a44.07,44.07,0,0,0,5.9-2.6c1.4-.7,2.8-1.5,4.2-2.3a21.13,21.13,0,0,0,3.7-2.8,25.89,25.89,0,0,0,5.3-6.9,69.08,69.08,0,0,0,3.6-7.9,30.8,30.8,0,0,1-5.1,6.9,33.91,33.91,0,0,1-6.6,5.4,44.27,44.27,0,0,1-9.9,4.5A64.66,64.66,0,0,1,87,99.48a41,41,0,0,0-9.5,2.7,26.92,26.92,0,0,0-8.2,5.3,21.65,21.65,0,0,0-4.4,5.8,17.27,17.27,0,0,0-2.1,6.9,1.29,1.29,0,0,1-.5,1.1,2,2,0,0,1-1.1.3,1.61,1.61,0,0,1-1.1-.5,1.85,1.85,0,0,1-.7-1.2,34.88,34.88,0,0,1,.4-14,45,45,0,0,1,5-13.1,53.23,53.23,0,0,1,9.2-12,63.89,63.89,0,0,1,12.1-9.3,36.81,36.81,0,0,1,7-3.2c2.4-.8,5-1.5,7.6-2.1a36,36,0,0,1,15.1,0,26,26,0,0,1,5.5,2.1,19.83,19.83,0,0,1,4.7,3.3,21.23,21.23,0,0,1,3.9,6.1,19.84,19.84,0,0,1,1.6,7.2,44.46,44.46,0,0,1-1.6,12.6,55.64,55.64,0,0,1-4.7,11.9,53.22,53.22,0,0,1-7.9,10.9q-3.3,3.45-6.9,6.6a37.26,37.26,0,0,1-17.1,8.2,29.43,29.43,0,0,1-9.8.3,28.85,28.85,0,0,1-7-1.8C74.32,132.58,72.12,131.58,70,130.38Zm49.4-21.9c-.3.3-.4.5-.3.8a.91.91,0,0,0,.3.7c.1.2.4.3.7.4a1.41,1.41,0,0,0,.9-.1,2.17,2.17,0,0,0,.6-.7c1.2-1.8,2.2-3.7,3.2-5.5a60.7,60.7,0,0,0,2.4-5.9,42.59,42.59,0,0,0,1.5-6.9,53.22,53.22,0,0,0,.4-6.9,6.15,6.15,0,0,0-.1-1.3c-.1-.4-.3-.8-.4-1.2a.9.9,0,0,0-.6-.6,2.2,2.2,0,0,0-.8.1c-.3.1-.5.2-.6.5a2,2,0,0,0-.1.8c.2.7.4,1.2.5,1.5v2.4l-.3,3.6c-.2,1.2-.3,2.4-.5,3.5a15.87,15.87,0,0,1-.5,2.4,25.25,25.25,0,0,1-1,2.8c-.5,1.2-1,2.4-1.6,3.7s-1.2,2.5-1.8,3.6A20.75,20.75,0,0,1,119.42,108.48Zm-3.1,5c.1.6.3.9.6,1a1.39,1.39,0,0,0,.9,0c.3-.1.5-.4.7-.8a1.09,1.09,0,0,0-.2-1.2,1.56,1.56,0,0,0-.8-.6.75.75,0,0,0-.8.1,2.65,2.65,0,0,0-.5.6A.76.76,0,0,0,116.32,113.48Z"/><path class="cls-2" d="M65,43.41,68.44,43a31.56,31.56,0,0,1,4-.22q15.8,0,26.4,7.19t10.59,18.17q0,12.68-13.11,21T63.06,97.33q-21.36,0-34.47-8T15.47,68.2a27.44,27.44,0,0,1,3.56-13,80.93,80.93,0,0,1,9.21-13.42A99.61,99.61,0,0,1,40.31,29.47q5.2-4.34,9.2-7.19,5.57-4,9.73-6.52A21,21,0,0,1,70.7,12.34a21.34,21.34,0,0,1,11.64,3.08q4.86,3.09,4.86,7.66a6,6,0,0,1-1.74,4,47.77,47.77,0,0,1-7.29,5.83c-2.9,2-5.18,3.64-6.86,5S67.52,41.05,65,43.41Zm-2.87,16A16.66,16.66,0,0,0,52.49,62c-2.56,1.76-3.85,3.93-3.85,6.52s1.29,4.64,3.85,6.39a16.59,16.59,0,0,0,9.61,2.63,16.78,16.78,0,0,0,9.7-2.68c2.62-1.79,3.94-4,3.94-6.46s-1.29-4.64-3.85-6.4A17,17,0,0,0,62.1,59.41Z"/></svg>