<svg id="Слой_1" data-name="Слой 1" xmlns="http://www.w3.org/2000/svg" viewBox="0 0 184.57 200.48"><defs><style>.cls-1{fill:#ed6928;}</style></defs><path class="cls-1" d="M42,184.64a7.12,7.12,0,0,1-3.64-3.5c-1.39-1.57-1.56-3.67-2.08-4.89q-.24-3.13-.5-6.28c-.16-2.09.54-3.83.37-5.92.37-5.93,2.84-12,5-17.24,2.46-6.09,6.31-10.61,10.16-15.13a35.38,35.38,0,0,1,13.12-9.89c5.24-2.94,10.13-5,14.5-8.31,4.89-2.08,9.26-5.37,14.15-7.45,4.37-3.29,9.25-5.37,12.76-9,3.14-2.77,5.94-4.68,9.09-7.46a53,53,0,0,0,7.7-9c4.21-5.39,7-12.35,9.84-19.31,1.94-7.32,3.53-13.76,5.48-21.08-1.59,6.45-5.28,13.06-9,19.67s-8.76,11.65-13.48,15.82A91.47,91.47,0,0,1,94,91.22c-7.68,4-16.24,7.61-24.8,11.24-7.33,3.11-14.66,6.22-21.83,11.42a61.92,61.92,0,0,0-18,17c-3.85,4.52-6.31,10.61-7.55,16.18-1.6,6.45-2.84,12-2,17.43a3.45,3.45,0,0,1-.18,3,2,2,0,0,1-2.45,1c-.87-.35-2.09.17-2.61-1-.87-.36-1.39-1.58-1.9-2.8C8.82,154,6.25,142.84,7.34,130.12,7.21,117.92,9.69,106.77,13,96A127.1,127.1,0,0,1,29.73,62.21C36.92,52,45,42.05,54.42,33.71A93,93,0,0,1,70,22.79a186.22,186.22,0,0,1,17.82-9,95.61,95.61,0,0,1,18.5-5.69,70.67,70.67,0,0,1,18.83-1.49,37.46,37.46,0,0,1,14.11,2.66c4.71.89,8.71,3.52,12.71,6.15,4.51,3.85,9,7.71,12.85,13.3a43.91,43.91,0,0,1,7.26,17.11,132.37,132.37,0,0,1,2.5,31.39A121.82,121.82,0,0,1,169,108.4,136.75,136.75,0,0,1,154.62,139c-4.56,6.26-8.6,13.74-14,19.65-4.56,6.26-10.85,11.82-16.8,16.5s-13.63,8.67-21,11.78-16.06,4.65-23.56,5.66a59.72,59.72,0,0,1-17.78-1.11A70.93,70.93,0,0,0,42,184.64Zm110.47-77.87-.7,1.74c-.36.88.52,1.23,1.39,1.58l1.74.7c.87.35,1.22-.52,2.44-1L158,108a90.21,90.21,0,0,0,5.12-15.14c1.24-5.58,2.13-10.28,3.37-15.86.37-5.92.74-11.85-.11-17.25s-1.35-11.69-2.21-17.1c-.52-1.22-.16-2.09-.68-3.31s-1.39-1.58-1.91-2.8-.52-1.22-1.74-.7l-2.44,1c-1.23.52-1.23.52-1.58,1.39s-.35.87.17,2.1q2.08,2.35,1.55,3.66a20.58,20.58,0,0,1,.86,5.41,28.12,28.12,0,0,1,.66,8.37c-.18,3,.5,6.28.32,9.24s0,5.06-.37,5.93c.16,2.09-.54,3.83-1.08,7.66-.18,3-1.59,6.45-2.13,10.28a38.46,38.46,0,0,1-3,9.93C153.88,103.29,153.17,105,152.47,106.77Zm-5.63,13.93c.52,1.22,1,2.44,2.26,1.93a2.9,2.9,0,0,1,2.09-.17c.35-.87,1.58-1.39,1.06-2.61a2,2,0,0,0-1-2.45l-2.61-1.05c-.87-.35-1.22.52-2.09.16l-.71,1.75Z"/></svg>