<svg id="Слой_1" data-name="Слой 1" xmlns="http://www.w3.org/2000/svg" viewBox="0 0 184.57 200.48"><defs><style>.cls-1{fill:#039d99;}</style></defs><path class="cls-1" d="M43.43,185.22a7.18,7.18,0,0,1-3.65-3.5c-1.39-1.57-1.56-3.67-2.07-4.89-.17-2.09-.34-4.19-.5-6.28s.53-3.83.37-5.92c.37-5.93,2.83-12,4.94-17.24,2.47-6.1,6.32-10.62,10.17-15.13a35.27,35.27,0,0,1,13.11-9.89c5.24-3,10.13-5,14.5-8.32,4.89-2.07,9.26-5.37,14.15-7.44,4.37-3.3,9.26-5.37,12.76-9,3.15-2.78,5.94-4.68,9.09-7.46a53.07,53.07,0,0,0,7.71-9c4.2-5.39,7-12.35,9.83-19.31,1.95-7.32,3.54-13.76,5.48-21.08-1.59,6.45-5.28,13.06-9,19.67S121.6,72,116.88,76.18a91.39,91.39,0,0,1-21.5,15.61c-7.69,4-16.25,7.61-24.8,11.24-7.33,3.12-14.67,6.23-21.83,11.43a61.68,61.68,0,0,0-18,17c-3.86,4.52-6.32,10.61-7.56,16.18-1.59,6.45-2.83,12-2,17.43a3.44,3.44,0,0,1-.19,3,2,2,0,0,1-2.44,1c-.87-.35-2.09.17-2.61-1.06-.87-.35-1.39-1.57-1.91-2.79-3.8-10.65-6.37-21.82-5.28-34.54-.13-12.2,2.36-23.35,5.71-34.15A126.92,126.92,0,0,1,31.15,62.79c7.19-10.26,15.25-20.16,24.69-28.5A93.08,93.08,0,0,1,71.4,23.37a186,186,0,0,1,17.81-9,94.92,94.92,0,0,1,18.5-5.69,71.15,71.15,0,0,1,18.84-1.5,37.69,37.69,0,0,1,14.11,2.67c4.7.89,8.7,3.52,12.7,6.15,4.52,3.85,9,7.7,12.85,13.3a43.76,43.76,0,0,1,7.26,17.11A131.33,131.33,0,0,1,176,77.8,121.82,121.82,0,0,1,170.45,109,135.87,135.87,0,0,1,156,139.61c-4.55,6.26-8.59,13.74-14,19.65-4.55,6.26-10.85,11.81-16.79,16.5s-13.63,8.67-21,11.78-16.05,4.64-23.55,5.66a59.7,59.7,0,0,1-17.78-1.11A70.71,70.71,0,0,0,43.43,185.22Zm110.46-77.87-.7,1.74c-.35.87.52,1.22,1.39,1.58l1.74.7c.87.35,1.22-.52,2.45-1l.7-1.74a90.88,90.88,0,0,0,5.11-15.15c1.24-5.57,2.13-10.27,3.37-15.85.37-5.92.74-11.85-.11-17.26s-1.35-11.68-2.2-17.09c-.52-1.22-.17-2.09-.69-3.31s-1.39-1.58-1.9-2.8-.52-1.22-1.75-.7l-2.44,1c-1.22.52-1.22.52-1.57,1.39s-.36.87.16,2.09q2.09,2.37,1.56,3.67a20.63,20.63,0,0,1,.85,5.41,28.45,28.45,0,0,1,.67,8.37c-.19,3,.5,6.28.31,9.24s0,5.06-.37,5.93c.17,2.09-.54,3.83-1.07,7.66-.19,3-1.6,6.45-2.13,10.28a39.09,39.09,0,0,1-3,9.93C155.3,103.87,154.6,105.61,153.89,107.35Zm-5.63,13.93c.52,1.22,1,2.44,2.26,1.92a3,3,0,0,1,2.1-.16c.35-.87,1.57-1.39,1-2.61a2,2,0,0,0-1-2.45l-2.62-1c-.87-.36-1.22.51-2.09.16l-.7,1.74Z"/></svg>