<?xml version="1.0" encoding="utf-8"?>
<!-- Generator: Adobe Illustrator 26.0.1, SVG Export Plug-In . SVG Version: 6.00 Build 0)  -->
<svg version="1.1" id="Слой_1" xmlns="http://www.w3.org/2000/svg" xmlns:xlink="http://www.w3.org/1999/xlink" x="0px" y="0px"
	 viewBox="0 0 128 128" style="enable-background:new 0 0 128 128;" xml:space="preserve">
<style type="text/css">
	.st0{fill:#3F362A;}
	.st1{fill:#FFF5DE;}
</style>
<rect x="-9.1" y="-8" class="st0" width="146.2" height="147.3"/>
<g>
	<path class="st1" d="M55.2,124.9c-1.1,0-2.3-0.6-2.9-1.1c-1.1-0.6-1.7-1.7-2.3-2.3c-0.6-1.1-1.1-2.3-1.7-3.4
		c-0.6-1.7-1.1-2.9-1.1-4c-1.1-3.4-1.1-7.4-1.1-10.8c0-4,1.1-7.4,2.3-10.8c1.1-3.4,2.9-6.3,5.1-8.6c2.3-2.9,4.6-5.1,6.3-8
		c2.3-2.3,4-5.1,6.3-7.4c1.7-2.9,4-5.1,5.1-8c1.1-2.3,2.3-4,3.4-6.3c1.1-2.3,1.7-4.6,2.3-6.8c1.1-4,1.1-8.6,1.1-13.1
		c-0.6-4.6-1.1-8.6-1.7-13.1c0.6,4,0,8.6-0.6,13.1s-2.3,8.6-4,12c-2.3,5.1-5.1,9.7-8.6,13.7c-3.4,4-7.4,8-11.4,12
		c-3.4,3.4-6.8,6.8-9.7,11.4c-2.9,4-5.1,8.6-6.3,13.7c-1.1,3.4-1.1,7.4-0.6,10.8c0.6,4,1.1,7.4,2.9,10.3c0.6,0.6,0.6,1.1,0.6,1.7
		s-0.6,1.1-1.1,1.1c-0.6,0-1.1,0.6-1.7,0c-0.6,0-1.1-0.6-1.7-1.1c-4.6-5.1-8.6-10.8-10.8-18.3c-2.9-6.8-4-13.7-4.6-20.5
		c-0.6-7.4,0-15.4,1.7-22.8c1.7-7.4,4-14.8,7.4-21.7c1.7-3.4,4-6.8,6.3-9.7s5.1-6.3,8-9.1s5.7-5.1,9.1-7.4c3.4-2.3,6.8-4,10.3-5.1
		c2.9-1.1,5.7-1.7,8.6-1.7c2.9-0.6,5.7,0,8.6,0.6c3.4,1.1,6.8,2.3,10.3,4.6c3.4,2.3,5.7,4.6,8,8c3.4,5.1,6.3,10.8,8.6,17.1
		s3.4,12.5,4,18.8c0.6,6.8,0,13.7-1.1,20.5c-1.1,4.6-1.7,9.7-3.4,14.3c-1.1,4.6-3.4,9.1-5.7,13.1c-2.3,4-5.7,8-9.1,11.4
		c-3.4,3.4-8,6.3-12,8.6c-3.4,1.7-6.8,2.9-10.3,3.4C62.6,124.3,58.6,124.3,55.2,124.9z M99.6,55.8c0,0.6,0,1.1,0,1.1
		c0,0.6,0.6,0.6,1.1,0.6c0.6,0,0.6,0,1.1,0c0.6,0,0.6-0.6,1.1-1.1c0-0.6,0-0.6,0-1.1c0-3.4,0-6.3-0.6-9.7c-0.6-3.4-1.1-6.3-1.7-9.7
		c-1.1-3.4-2.3-6.8-4-9.7c-1.7-2.9-3.4-6.3-5.1-9.1c-0.6-0.6-0.6-1.1-1.1-1.7c-0.6-0.6-1.1-0.6-1.7-1.1c-0.6-0.6-0.6-0.6-1.1,0
		c-0.6,0-0.6,0.6-1.1,0.6c-0.6,0-0.6,0.6-0.6,1.1c0,0.6,0,0.6,0.6,1.1c1.1,0.6,1.7,1.1,1.7,1.7c0.6,0.6,1.1,1.7,1.7,2.9
		c1.1,1.7,1.7,2.9,2.3,4.6c0.6,1.7,1.7,3.4,2.3,5.1c0.6,1.7,1.1,2.9,1.1,3.4c0.6,1.1,0.6,2.3,1.1,4.6c0.6,1.7,0.6,4,1.1,6.3
		c0.6,2.3,0.6,4,0.6,6.3C99.6,53.6,99.6,55.3,99.6,55.8z M99.6,65c0.6,0.6,1.1,1.1,1.7,0.6c0.6-0.6,1.1-0.6,1.1-0.6
		c0-0.6,0.6-1.1,0-1.7c0-0.6-0.6-1.1-1.1-1.1c-0.6,0-1.1,0-1.7,0s-0.6,0.6-1.1,0.6c0,0.6,0,0.6,0,1.1C99.1,64.4,99.1,64.4,99.6,65z"
		/>
</g>
</svg>
